<svg width="7" height="10" viewBox="0 0 7 10" fill="none" xmlns="http://www.w3.org/2000/svg">
<path d="M6.50288 4.6098L2.16129 0.159755C2.06088 0.0567475 1.92683 0 1.7839 0C1.64097 0 1.50693 0.0567475 1.40651 0.159755L1.08678 0.487394C0.878734 0.700889 0.878734 1.04788 1.08678 1.26105L4.73252 4.99793L1.08274 8.73895C0.982323 8.84196 0.92688 8.97928 0.92688 9.1257C0.92688 9.27228 0.982323 9.4096 1.08274 9.51269L1.40247 9.84025C1.50296 9.94325 1.63693 10 1.77986 10C1.92279 10 2.05683 9.94325 2.15725 9.84025L6.50288 5.38614C6.60353 5.2828 6.65882 5.14484 6.6585 4.99817C6.65882 4.85094 6.60353 4.71305 6.50288 4.6098Z" fill="#6C4D38"/>
</svg>
