<svg width="40" height="40" viewBox="0 0 40 40" fill="none" xmlns="http://www.w3.org/2000/svg">
<g clip-path="url(#clip0)">
<path d="M4.99997 18.3333C4.5733 18.3333 4.14664 18.1699 3.82164 17.8449C3.16997 17.1933 3.16997 16.1399 3.82164 15.4883L15.3316 3.97825C15.9833 3.32659 17.0366 3.32659 17.6883 3.97825C18.34 4.62992 18.34 5.68325 17.6883 6.33492L6.1783 17.8449C5.8533 18.1699 5.42664 18.3333 4.99997 18.3333Z" fill="white"/>
<path d="M18.7499 10.0001C18.4249 10.0001 18.1049 9.87341 17.8666 9.63342L12.0332 3.80008C11.6749 3.44341 11.5682 2.90508 11.7616 2.43841C11.9549 1.97175 12.4116 1.66675 12.9166 1.66675H18.7499C19.4399 1.66675 19.9999 2.22675 19.9999 2.91675V8.75008C19.9999 9.25508 19.6949 9.71175 19.2282 9.90508C19.0732 9.96842 18.9116 10.0001 18.7499 10.0001Z" fill="white"/>
<path d="M11.6667 25.4166V34.9999H1.66675V25.4166C1.66675 24.2666 2.60008 23.3333 3.75008 23.3333H9.58341C10.7334 23.3333 11.6667 24.2666 11.6667 25.4166Z" fill="white"/>
<path d="M25 18.7501V35.0001H15V18.7501C15 17.6001 15.9333 16.6667 17.0833 16.6667H22.9167C24.0667 16.6667 25 17.6001 25 18.7501Z" fill="white"/>
<path d="M38.3333 12.0833V35H28.3333V12.0833C28.3333 10.9333 29.2666 10 30.4166 10H36.2499C37.3999 10 38.3333 10.9333 38.3333 12.0833Z" fill="white"/>
<path d="M38.75 40H1.25C0.56 40 0 39.44 0 38.75C0 38.06 0.56 37.5 1.25 37.5H38.75C39.44 37.5 40 38.06 40 38.75C40 39.44 39.44 40 38.75 40Z" fill="white"/>
</g>
<defs>
<clipPath id="clip0">
<rect width="40" height="40" fill="white"/>
</clipPath>
</defs>
</svg>
