<svg width="86" height="79" viewBox="0 0 86 79" fill="none" xmlns="http://www.w3.org/2000/svg">
<path d="M10.4419 73.5291C10.4419 75.0471 9.94331 76.3004 8.96006 77.303C7.96296 78.3057 6.71658 78.807 5.20708 78.807C3.75298 78.807 2.5343 78.3057 1.52335 77.317C0.512399 76.3143 0 75.0888 0 73.6405C0 72.1783 0.512399 70.9668 1.55105 69.992C2.562 69.045 3.79452 68.5715 5.24863 68.5715C6.32882 68.5715 7.33977 68.8918 8.26763 69.5324C9.12624 70.1312 9.72174 70.8693 10.0541 71.7606C10.1095 71.9137 9.99871 72.0669 9.84637 72.0669H7.47826C7.39517 72.0669 7.32592 72.0252 7.28438 71.9555C6.81352 71.1757 6.10724 70.7857 5.19323 70.7857C4.40386 70.7857 3.76683 71.0643 3.25443 71.6352C2.75588 72.1783 2.52045 72.8607 2.52045 73.6545C2.52045 74.49 2.75588 75.1863 3.24058 75.7434C3.73913 76.3282 4.40386 76.6207 5.22093 76.6207C5.78873 76.6207 6.27343 76.4954 6.68889 76.2308C7.0351 76.008 7.29823 75.7155 7.46441 75.3395C7.53365 75.1863 7.40902 75.0331 7.25668 75.0331H4.83317C4.70853 75.0331 4.61159 74.9357 4.61159 74.8103V73.2506C4.61159 73.1253 4.70853 73.0278 4.83317 73.0278H10.428C10.428 73.1114 10.4419 73.1949 10.4419 73.2924V73.5291Z" fill="white"/>
<path d="M21.1746 74.9352C21.3269 74.9352 21.4377 75.0884 21.3823 75.2276C21.0776 76.2442 20.496 77.0937 19.6651 77.7343C18.7511 78.4445 17.6986 78.8066 16.5076 78.8066C15.0812 78.8066 13.8625 78.3052 12.8515 77.3165C11.8406 76.3278 11.342 75.1023 11.342 73.6679C11.342 72.2335 11.8406 71.022 12.8377 70.0333C13.8348 69.0585 15.0535 68.571 16.4799 68.571C18.3494 68.571 19.7759 69.337 20.8007 70.8827C21.0915 71.3284 21.2992 71.7601 21.41 72.2057C21.4515 72.345 21.3407 72.4981 21.1884 72.4981H18.9865C18.8895 72.4981 18.8203 72.4424 18.7788 72.3589C18.3356 71.3144 17.5601 70.7853 16.466 70.7853C15.6905 70.7853 15.0535 71.0777 14.5549 71.6487C14.0702 72.2057 13.8348 72.8741 13.8348 73.654C13.8348 74.4478 14.0702 75.1301 14.5549 75.6872C15.0535 76.286 15.7044 76.5784 16.4799 76.5784C17.5047 76.5784 18.2664 76.0632 18.7788 75.0466C18.8203 74.963 18.8895 74.9212 18.9865 74.9212H21.1746V74.9352Z" fill="white"/>
<path d="M31.1593 77.3444C30.1484 78.3192 28.9297 78.8066 27.4895 78.8066C26.0769 78.8066 24.8721 78.3331 23.875 77.3722C22.8502 76.3974 22.3378 75.2137 22.3378 73.8072C22.3378 73.0552 22.4624 72.3589 22.7255 71.7044C22.864 71.3562 23.0717 70.9802 23.3626 70.6042C24.3874 69.2534 25.7584 68.585 27.5171 68.585C28.9574 68.585 30.1761 69.0724 31.1732 70.0611C32.1841 71.0498 32.6827 72.2614 32.6827 73.7097C32.6827 75.1301 32.1703 76.3556 31.1593 77.3444ZM29.456 71.6626C28.9436 71.0777 28.2927 70.7713 27.5171 70.7713C26.7278 70.7713 26.0907 71.0638 25.5783 71.6347C25.0798 72.1918 24.8444 72.8602 24.8444 73.654C24.8444 74.4617 25.0936 75.1441 25.5922 75.715C26.1046 76.2999 26.7555 76.5924 27.5587 76.5924C28.3204 76.5924 28.9574 76.2999 29.4698 75.7011C29.9545 75.1441 30.1899 74.4756 30.1899 73.6958C30.1761 72.902 29.9268 72.2335 29.456 71.6626Z" fill="white"/>
<path d="M48.1378 73.5287C48.1378 75.0466 47.6392 76.2999 46.656 77.3026C45.6589 78.3052 44.4125 78.8066 42.903 78.8066C41.4489 78.8066 40.2302 78.3052 39.2193 77.3165C38.2083 76.3138 37.6959 75.0883 37.6959 73.6401C37.6959 72.1778 38.2083 70.9663 39.247 69.9915C40.2579 69.0445 41.4904 68.571 42.9446 68.571C44.0386 68.571 45.0357 68.8913 45.9635 69.5319C46.8222 70.1307 47.4177 70.8688 47.75 71.7601C47.8054 71.9133 47.6946 72.0664 47.5423 72.0664H45.1742C45.0911 72.0664 45.0218 72.0247 44.9803 71.955C44.5094 71.1752 43.8032 70.7853 42.8892 70.7853C42.0998 70.7853 41.4627 71.0638 40.9503 71.6347C40.4518 72.1778 40.2164 72.8602 40.2164 73.654C40.2164 74.4895 40.4518 75.1858 40.9365 75.7429C41.4351 76.3278 42.0998 76.6202 42.9169 76.6202C43.4846 76.6202 43.9693 76.4949 44.3848 76.2303C44.731 76.0075 44.9941 75.715 45.1603 75.339C45.2296 75.1858 45.1049 75.0326 44.9526 75.0326H42.5706C42.446 75.0326 42.3491 74.9352 42.3491 74.8098V73.2501C42.3491 73.1248 42.446 73.0273 42.5706 73.0273H48.1655C48.1655 73.1109 48.1793 73.1944 48.1793 73.2919V73.5287H48.1378Z" fill="white"/>
<path d="M54.2452 78.6257C54.1759 78.6257 54.1067 78.5839 54.0651 78.5282L51.8632 75.4366H51.8355V78.3889C51.8355 78.5143 51.7386 78.6117 51.6139 78.6117H49.6613C49.5366 78.6117 49.4397 78.5143 49.4397 78.3889V68.975C49.4397 68.8497 49.5366 68.7522 49.6613 68.7522H52.5418C52.8742 68.7522 53.1373 68.7522 53.3312 68.7661C53.622 68.78 53.8851 68.8079 54.1205 68.8497C54.7022 68.9472 55.1869 69.156 55.5608 69.4485C56.364 70.103 56.7656 70.9943 56.7656 72.1362C56.7656 72.916 56.5579 73.5984 56.1286 74.1554C55.7547 74.6568 55.27 74.991 54.6745 75.1581C54.5221 75.1999 54.4529 75.3949 54.5498 75.5202L56.6964 78.2218C56.8072 78.375 56.7102 78.5839 56.5163 78.5839H54.2452V78.6257ZM53.8713 71.2728C53.5943 71.0639 53.2065 70.9664 52.7357 70.9664H52.0432C51.9186 70.9664 51.8217 71.0639 51.8217 71.1892V73.487C51.8217 73.6123 51.9186 73.7098 52.0432 73.7098H52.708C53.802 73.7098 54.356 73.2363 54.356 72.3033C54.3698 71.8437 54.2036 71.4956 53.8713 71.2728Z" fill="white"/>
<path d="M66.4872 77.3444C65.4763 78.3192 64.2576 78.8066 62.8173 78.8066C61.4048 78.8066 60.1999 78.3331 59.2028 77.3722C58.178 76.3974 57.6656 75.2137 57.6656 73.8072C57.6656 73.0552 57.7903 72.3589 58.0534 71.7044C58.1919 71.3562 58.3996 70.9802 58.6904 70.6042C59.7152 69.2534 61.0863 68.585 62.845 68.585C64.2853 68.585 65.504 69.0724 66.5011 70.0611C67.512 71.0498 68.0106 72.2614 68.0106 73.7097C68.0106 75.1301 67.4982 76.3556 66.4872 77.3444ZM64.77 71.6626C64.2576 71.0777 63.6067 70.7713 62.8312 70.7713C62.0418 70.7713 61.4048 71.0638 60.8924 71.6347C60.3938 72.1918 60.1584 72.8602 60.1584 73.654C60.1584 74.4617 60.4077 75.1441 60.9062 75.715C61.4186 76.2999 62.0695 76.5924 62.8727 76.5924C63.6344 76.5924 64.2714 76.2999 64.7838 75.7011C65.2685 75.1441 65.504 74.4756 65.504 73.6958C65.504 72.902 65.2547 72.2335 64.77 71.6626Z" fill="white"/>
<path d="M76.8599 74.7123C76.8599 75.3807 76.8045 75.9238 76.6937 76.3416C76.5414 76.8708 76.2783 77.3443 75.8905 77.7342C75.1981 78.4444 74.2841 78.8065 73.1485 78.8065C72.5946 78.8065 72.0822 78.7229 71.6252 78.5697C71.0989 78.3887 70.6696 78.1102 70.3373 77.762C69.9218 77.3303 69.6448 76.8569 69.5063 76.3555C69.4509 76.1327 69.4094 75.882 69.3817 75.5896C69.3679 75.3668 69.354 75.0743 69.354 74.7123V68.9748C69.354 68.8495 69.4509 68.752 69.5756 68.752H71.6252C71.7498 68.752 71.8467 68.8495 71.8467 68.9748V74.7123C71.8467 74.9769 71.8606 75.1997 71.8883 75.3807C71.916 75.6174 71.9852 75.8263 72.0683 75.9795C72.2622 76.3834 72.6223 76.5783 73.1347 76.5783C73.6609 76.5783 74.021 76.3834 74.201 75.9795C74.2702 75.8124 74.3256 75.6174 74.3533 75.3807C74.3672 75.2136 74.381 74.9769 74.381 74.6844V68.9469C74.381 68.8216 74.478 68.7241 74.6026 68.7241H76.6522C76.7768 68.7241 76.8738 68.8216 76.8738 68.9469V74.7123H76.8599Z" fill="white"/>
<path d="M85.7231 73.487C85.5292 73.9884 85.2799 74.3783 84.9475 74.6707C84.5598 75.0189 84.1028 75.2417 83.6042 75.367C83.2165 75.4645 82.7179 75.5202 82.0809 75.5202H81.2223C81.0976 75.5202 81.0007 75.6177 81.0007 75.743V78.375C81.0007 78.5004 80.9037 78.5978 80.7791 78.5978H78.8264C78.7018 78.5978 78.6049 78.5004 78.6049 78.375V68.9611C78.6049 68.8358 78.7018 68.7383 78.8264 68.7383H81.8177C82.1224 68.7383 82.3855 68.7383 82.6071 68.7522C82.8979 68.7661 83.1611 68.794 83.4103 68.8497C84.0058 68.9472 84.4905 69.1561 84.8506 69.4624C85.6123 70.1169 86 70.9943 86 72.0666C85.9862 72.5679 85.9031 73.0414 85.7231 73.487ZM83.0641 71.1614C82.8148 71.0361 82.4409 70.9664 81.9285 70.9664H81.2223C81.0976 70.9664 81.0007 71.0639 81.0007 71.1892V73.0832C81.0007 73.2085 81.0976 73.306 81.2223 73.306H82.0116C82.4963 73.306 82.8564 73.2364 83.1057 73.0832C83.4242 72.9021 83.5765 72.5818 83.5765 72.1223C83.5904 71.6627 83.4103 71.3424 83.0641 71.1614Z" fill="white"/>
<path d="M42.9308 0C38.4023 0 33.2229 1.79644 30.7302 2.77126C29.9269 3.07763 29.5807 4.02459 29.9823 4.77659C30.7994 6.33629 31.6165 7.90991 32.4335 9.46962C32.7798 10.1241 33.5691 10.4166 34.2477 10.1381C35.3141 9.69243 36.6158 9.23288 38.1115 8.89865C38.1115 8.89865 40.5073 8.34162 42.8339 8.34162C51.3508 8.29984 58.7182 13.2296 62.2496 20.4154C62.4989 20.8471 62.5127 21.3763 62.2773 21.808C62.0142 22.2675 61.5018 22.546 60.9755 22.5043C58.8567 22.5043 56.7379 22.5043 54.619 22.5043C54.1759 22.5043 53.7466 22.2954 53.4696 21.9333C52.5971 20.7775 51.5308 19.7609 50.326 18.9532C50.3121 18.9392 50.2983 18.9253 50.2844 18.9253C50.1459 18.8278 50.0074 18.7443 49.8551 18.6468C49.7859 18.605 49.7166 18.5632 49.6335 18.5215C49.5781 18.4936 49.5227 18.4658 49.4812 18.424C47.5424 17.3099 45.3128 16.6832 42.9169 16.6832C36.7543 16.6832 31.5611 20.9167 30.0793 26.6542C29.8023 27.7126 29.6638 28.8266 29.6638 29.9685C29.6638 31.013 29.7885 32.0296 30.01 33.0044C31.0487 37.4607 34.3031 41.0536 38.5408 42.5436C39.7595 43.0171 41.0474 43.2956 42.363 43.3513C46.9192 43.5324 50.9907 41.4017 53.5111 38.0317C53.6081 37.9063 53.6773 37.7671 53.7189 37.6278C53.9681 36.8062 53.3588 35.8731 52.4033 35.8731H48.4702H44.5095C43.7202 35.8731 43.0831 35.2325 43.0831 34.4388V28.9798C43.0831 28.186 43.7202 27.5454 44.5095 27.5454H48.4287H55.9208H63.0528C63.8422 27.5454 64.4793 28.186 64.4793 28.9798V30.8737H64.4654C64.3962 32.6005 64.133 34.2717 63.6899 35.8731C61.1417 44.9668 52.8187 51.6651 42.9308 51.6651C39.7872 51.6651 36.7959 50.9827 34.1092 49.7712C33.4029 49.4509 32.5859 49.7433 32.2397 50.4396L29.8854 55.1605C29.5253 55.8707 29.8162 56.7481 30.5363 57.0962C32.669 58.1407 37.2667 60.0067 42.9308 60.0067C59.2999 60.0067 72.5945 46.7493 72.7607 30.3306C72.9269 13.7588 59.3968 0 42.9308 0Z" fill="white"/>
<path d="M24.8169 12.7978C25.5648 12.7978 26.1603 12.1851 26.1603 11.447C26.1603 10.695 25.5509 10.0962 24.8169 10.0962C24.0691 10.0962 23.4736 10.7089 23.4736 11.447C23.4598 12.199 24.0691 12.7978 24.8169 12.7978Z" fill="white"/>
<path d="M24.8171 47.4873C24.0692 47.4873 23.4738 48.1 23.4738 48.8381C23.4738 49.5901 24.0831 50.1889 24.8171 50.1889C25.5649 50.1889 26.1604 49.5762 26.1604 48.8381C26.1604 48.1 25.5649 47.4873 24.8171 47.4873Z" fill="white"/>
<path d="M21.0917 39.1174C20.1361 38.2819 18.682 38.3793 17.8511 39.3402C17.0202 40.3011 17.1171 41.7633 18.0727 42.5989C19.0282 43.4344 20.4823 43.337 21.3132 42.3761C22.1442 41.4152 22.0472 39.9669 21.0917 39.1174Z" fill="white"/>
<path d="M21.0917 17.157C20.1361 16.3214 18.682 16.4189 17.8511 17.3798C17.0202 18.3407 17.1171 19.8029 18.0727 20.6384C19.0282 21.474 20.4823 21.3765 21.3132 20.4156C22.1442 19.4408 22.0472 17.9925 21.0917 17.157Z" fill="white"/>
<path d="M20.0669 27.1276C18.4881 25.554 15.94 25.5818 14.3889 27.1694C12.8241 28.7569 12.8517 31.3193 14.4305 32.879C16.0092 34.4526 18.5574 34.4248 20.1084 32.8372C21.6595 31.2497 21.6456 28.6873 20.0669 27.1276Z" fill="white"/>
</svg>
