<svg width="16" height="17" viewBox="0 0 16 17" fill="none" xmlns="http://www.w3.org/2000/svg">
<path d="M15.3033 4.26294C14.33 4.26294 13.4319 3.94153 12.7108 3.39933C11.8837 2.77776 11.2894 1.86601 11.0796 0.815127C11.0276 0.555478 10.9997 0.287529 10.997 0.0129395H8.21662V7.58591L8.21329 11.734C8.21329 12.843 7.4888 13.7833 6.4845 14.114C6.19304 14.2099 5.87826 14.2554 5.5505 14.2375C5.13212 14.2146 4.74007 14.0887 4.39931 13.8855C3.67415 13.4532 3.1825 12.669 3.16918 11.7718C3.14819 10.3697 4.28539 9.22647 5.69106 9.22647C5.96853 9.22647 6.23501 9.27163 6.4845 9.35364V7.28376V6.53968C6.22136 6.50083 5.95355 6.48058 5.68274 6.48058C4.14415 6.48058 2.70517 7.11808 1.67656 8.26657C0.899109 9.1345 0.432771 10.2418 0.360822 11.4029C0.266555 12.9283 0.826493 14.3783 1.91239 15.4481C2.07195 15.6051 2.2395 15.7509 2.41471 15.8854C3.34572 16.5996 4.48391 16.9867 5.68274 16.9867C5.95355 16.9867 6.22136 16.9668 6.4845 16.9279C7.60438 16.7626 8.63765 16.2516 9.45308 15.4481C10.455 14.4609 11.0086 13.1504 11.0146 11.7556L11.0003 5.56118C11.4783 5.92874 12.0009 6.23288 12.5619 6.46895C13.4343 6.83585 14.3593 7.02179 15.3113 7.02145V5.00901V4.26227C15.3119 4.26294 15.304 4.26294 15.3033 4.26294Z" fill="#276EF1"/>
</svg>
