<svg width="40" height="40" viewBox="0 0 40 40" fill="none" xmlns="http://www.w3.org/2000/svg">
<path d="M31.7614 21.8529L29.5301 19.786C29.5868 18.7545 29.6166 17.9168 29.6166 17.4503C29.6166 10.4897 26.3166 4.04963 20.7833 0.223458C20.572 0.0771441 20.3217 0 20.0559 0C19.794 0 19.5359 0.0793978 19.3282 0.223285C13.7949 4.04946 10.4921 10.4895 10.4921 17.4503C10.4921 17.9167 10.5155 18.7545 10.5722 19.7858L8.29604 21.8529C7.48889 22.5966 6.82458 24.0388 6.82458 25.1362V33.1787C6.82458 34.2383 7.52079 34.6422 8.15042 34.6422C8.1506 34.6422 8.15216 34.6422 8.15216 34.6422C8.46819 34.6422 8.79653 34.5675 9.1266 34.3504L13.4377 31.532C13.5897 31.432 13.7358 31.3195 13.875 31.1846L18.7199 39.1422C19.0511 39.6859 19.5386 39.9998 20.0575 39.9998C20.5765 39.9998 21.064 39.6892 21.3951 39.1455L26.2399 31.1929C26.3791 31.3278 26.5249 31.4493 26.677 31.5493L30.9879 34.3855C31.3178 34.6025 31.6197 34.7126 31.9358 34.7126C32.5656 34.7126 33.1749 34.2383 33.1749 33.1786V25.136C33.1753 24.0388 32.5687 22.5966 31.7614 21.8529ZM20.0578 17.83C18.2433 17.83 16.7722 16.3591 16.7722 14.5444C16.7722 12.7298 18.2431 11.2587 20.0578 11.2587C21.8725 11.2587 23.3435 12.7296 23.3435 14.5444C23.3435 16.3591 21.8724 17.83 20.0578 17.83ZM16.0753 6.03839C17.1631 4.47817 18.5098 2.99388 20.0578 1.83742C21.6059 2.99388 22.9526 4.47817 24.0404 6.03839H16.0753Z" fill="white"/>
</svg>
