<svg width="40" height="40" viewBox="0 0 40 40" fill="none" xmlns="http://www.w3.org/2000/svg">
<path d="M38.8281 0H34.0625C33.4148 0 32.8906 0.524141 32.8906 1.17188V2.34375H23.2998C22.8144 0.982656 21.5258 0 20 0C18.4742 0 17.1856 0.982656 16.7002 2.34375H7.10938V1.17188C7.10938 0.524141 6.58523 0 5.9375 0H1.17188C0.524141 0 0 0.524141 0 1.17188V5.85938C0 6.50711 0.524141 7.03125 1.17188 7.03125H5.9375C6.58523 7.03125 7.10938 6.50711 7.10938 5.85938V4.67188H11.9222C7.85523 7.21258 5.17359 11.675 4.85305 16.673C3.44695 17.1333 2.42188 18.4422 2.42188 20C2.42188 21.9386 3.99891 23.5156 5.9375 23.5156C7.87609 23.5156 9.45312 21.9386 9.45312 20C9.45312 18.5047 8.51086 17.2334 7.19219 16.726C7.59203 11.1538 11.4802 6.45719 16.8885 5.11719C17.4734 6.2482 18.6412 7.03125 20 7.03125C21.3588 7.03125 22.5266 6.2482 23.1115 5.11719C28.5198 6.45711 32.408 11.1537 32.8078 16.7259C31.4891 17.2334 30.5469 18.5047 30.5469 20C30.5469 21.9386 32.1239 23.5156 34.0625 23.5156C36.0011 23.5156 37.5781 21.9386 37.5781 20C37.5781 18.4422 36.553 17.1333 35.147 16.673C34.8264 11.675 32.1448 7.2282 28.0778 4.6875H32.8906V5.85938C32.8906 6.50711 33.4148 7.03125 34.0625 7.03125H38.8281C39.4759 7.03125 40 6.50711 40 5.85938V1.17188C40 0.524141 39.4759 0 38.8281 0Z" fill="white"/>
<path d="M27.9726 38.5465C27.3596 36.6708 25.5937 35.2344 23.5156 35.2344H16.4843C14.4062 35.2344 12.6402 36.6708 12.0273 38.5465C11.7909 39.2697 12.4062 40 13.1671 40H26.8327C27.5936 40 28.2089 39.2697 27.9726 38.5465Z" fill="white"/>
<path d="M30.3501 24.0375L21.1719 10.2703V21.3878C22.533 21.8732 23.5157 23.1617 23.5157 24.6875C23.5157 26.6261 21.9387 28.2032 20.0001 28.2032C18.0615 28.2032 16.4844 26.6261 16.4844 24.6875C16.4844 23.1617 17.4671 21.8732 18.8282 21.3878V10.2703L9.65007 24.0375C9.33992 24.5021 9.40171 25.1213 9.79656 25.5161C11.9479 27.6674 13.323 30.4389 13.8537 33.4118C14.6678 33.0816 15.5532 32.8907 16.4844 32.8907H23.5157C24.4469 32.8907 25.3323 33.0815 26.1464 33.4117C26.6771 30.4386 28.0523 27.6674 30.2036 25.5161C30.5984 25.1213 30.6602 24.5021 30.3501 24.0375Z" fill="white"/>
<path d="M20 23.5156C19.3534 23.5156 18.8281 24.0409 18.8281 24.6875C18.8281 25.3341 19.3534 25.8594 20 25.8594C20.6466 25.8594 21.1719 25.3341 21.1719 24.6875C21.1719 24.0409 20.6466 23.5156 20 23.5156Z" fill="white"/>
</svg>
