<svg width="40" height="40" viewBox="0 0 40 40" fill="none" xmlns="http://www.w3.org/2000/svg">
<path d="M14.0625 24.1016V12.3828H5.85938C2.62867 12.3828 0 15.0115 0 18.2422C0 21.4729 2.62867 24.1016 5.85938 24.1016H14.0625Z" fill="white"/>
<path d="M12.4447 26.4453H5.36768L7.24291 35.8203H14.3199L13.3824 31.1328H15.2343V28.7891H12.9135L12.4447 26.4453Z" fill="white"/>
<path d="M32.8125 6.12508C31.8516 7.27352 27.2344 12.0079 16.4062 12.3359V24.1485C27.2344 24.4766 31.8516 29.2109 32.8125 30.3594V32.3047H35.3125C35.3125 23.4764 35.3125 16.8298 35.3125 4.17969H32.8125V6.12508Z" fill="white"/>
<path d="M37.6562 14.9424V21.5419C39.0173 21.0565 40 19.7679 40 18.2421C40 16.7164 39.0173 15.4278 37.6562 14.9424Z" fill="white"/>
</svg>
