<svg width="10" height="10" viewBox="0 0 10 10" fill="none" xmlns="http://www.w3.org/2000/svg">
<path d="M2.26027 4.38388C2.9936 5.82508 4.17508 7.00147 5.61628 7.7399L6.73665 6.61953C6.87416 6.48203 7.07786 6.43619 7.2561 6.4973C7.82647 6.68573 8.44267 6.78758 9.07415 6.78758C9.35425 6.78758 9.58341 7.01675 9.58341 7.29684V9.07415C9.58341 9.35425 9.35425 9.58341 9.07415 9.58341C4.29221 9.58341 0.416748 5.70795 0.416748 0.926007C0.416748 0.645915 0.645915 0.416748 0.926007 0.416748H2.70841C2.98851 0.416748 3.21767 0.645915 3.21767 0.926007C3.21767 1.56258 3.31953 2.17369 3.50795 2.74406C3.56397 2.9223 3.52323 3.12091 3.38064 3.26351L2.26027 4.38388Z" fill="white"/>
</svg>
