<svg width="448" height="251" viewBox="0 0 448 251" fill="none" xmlns="http://www.w3.org/2000/svg">
<path d="M43.98 249.748C43.98 249.748 -4.27136 197.973 35.8179 141.916C71.3826 92.1842 112.855 95.5797 143.279 115.758C156.236 124.352 193.604 116.825 225.396 66.2066C268.762 -2.81667 419.078 39.042 391.675 145.236C378.418 196.62 432.035 198.484 404.708 249.853L43.98 249.748Z" fill="#EBF3FA"/>
<path d="M435.237 181.01C431.84 168.479 410.675 172.386 410.675 172.386C410.675 172.386 396.305 194.322 392.126 194.848C387.948 195.373 400.755 173.693 400.755 173.693C392.653 172.912 372.014 182.828 372.014 182.828C372.014 182.828 373.322 208.43 369.143 207.904C364.964 207.378 369.143 185.172 369.143 185.172C361.297 187.516 353.991 196.666 353.991 196.666C344.852 211.555 364.438 222.523 364.438 222.523C364.438 222.523 364.694 231.403 359.207 241.589C359.207 241.589 357.975 243.467 356.712 246.668H358.847C359.027 246.097 359.207 245.541 359.433 245.015C359.433 245.015 359.433 245.015 359.433 245C359.433 244.985 359.433 244.985 359.448 244.97C359.598 244.639 359.809 244.174 360.064 243.603C360.71 242.325 361.161 241.379 361.432 240.703C363.386 236.691 366.212 231.463 368.091 230.366C368.091 230.366 367.85 230.035 367.64 229.389C367.79 229.705 367.941 230.02 368.091 230.366C371.744 238.209 390.037 239.501 400.229 237.412C410.42 235.324 405.971 232.454 400.484 227.782C394.998 223.124 383.498 224.341 380.101 222.523C376.704 220.69 381.665 218.872 388.459 219.383C395.253 219.909 398.65 226.7 409.623 227.737C420.596 228.773 428.954 208.144 428.954 208.144C421.378 210.488 407.789 206.311 407.263 203.697C406.737 201.083 426.865 201.353 429.991 200.557C433.133 199.821 438.634 193.555 435.237 181.01Z" fill="#DFEBFD"/>
<path d="M146.751 184.435C146.751 184.435 147.683 191.888 146.285 191.978C144.887 192.068 145.849 183.609 145.849 183.609C145.849 183.609 139.205 179.898 136.499 179.988C136.499 179.988 140.302 187.44 138.935 187.185C137.552 186.93 133.238 179.357 133.238 179.357C133.238 179.357 126.293 177.629 124.91 181.716C123.527 185.803 125.226 187.996 126.248 188.312C127.27 188.642 133.944 188.958 133.719 189.814C133.493 190.671 128.893 191.782 126.428 190.851C126.428 190.851 128.788 197.867 132.441 197.747C136.109 197.627 137.371 195.448 139.626 195.403C141.896 195.373 143.504 196.08 142.332 196.62C141.174 197.161 137.386 196.515 135.462 197.958C133.553 199.385 132.02 200.256 135.357 201.158C138.694 202.059 144.782 201.999 146.165 199.475C146.225 199.37 146.285 199.265 146.33 199.16C146.24 199.37 146.165 199.475 146.165 199.475C146.766 199.881 147.593 201.669 148.164 203.036C148.239 203.261 148.374 203.592 148.555 204.028C148.63 204.223 148.69 204.388 148.735 204.493C149.742 207.543 148.795 212.652 148.795 212.652L149.502 212.892C151.426 207.799 148.87 203.366 148.87 203.366C147.262 199.881 147.533 196.936 147.533 196.936C147.533 196.936 154.252 193.691 151.531 188.567C151.546 188.552 149.306 185.382 146.751 184.435Z" fill="#AFCDFB"/>
<path d="M96.4853 217.685C95.8841 208.505 110.976 206.266 110.976 206.266C110.976 206.266 125.647 217.685 128.578 217.069C131.509 216.453 117.935 204.854 117.935 204.854C123.181 202.465 139.31 204.388 139.31 204.388C139.31 204.388 144.316 221.847 146.991 220.54C149.682 219.233 141.775 205.305 141.775 205.305C147.578 205.079 154.582 209.527 154.582 209.527C164.142 217.415 153.515 229.269 153.515 229.269C153.515 229.269 155.379 235.279 161.407 240.853C161.407 240.853 162.669 241.83 164.248 243.678L162.82 244.174C162.564 243.828 162.309 243.497 162.053 243.197L162.038 243.182C161.858 242.987 161.617 242.731 161.301 242.401C160.565 241.694 160.054 241.169 159.708 240.763C157.468 238.524 154.387 235.67 152.869 235.369C152.869 235.369 152.944 235.099 152.944 234.603C152.914 234.843 152.884 235.099 152.869 235.369C152.222 241.469 140.242 246.532 132.937 247.479C125.617 248.41 127.946 245.466 130.547 241.078C133.162 236.691 141.144 234.873 143.008 232.875C144.872 230.877 141.114 230.787 136.68 232.695C132.245 234.603 131.524 239.937 124.399 243.152C117.274 246.367 106.932 234.453 106.932 234.453C112.554 234.287 120.701 228.368 120.461 226.505C120.22 224.642 106.782 229.419 104.497 229.615C102.197 229.81 97.0866 226.865 96.4853 217.685Z" fill="#CDE0FB"/>
<path d="M379.154 52.9097C379.154 52.9097 377.546 51.6927 377.125 49.8747C376.824 48.5225 377.591 46.8397 377.651 46.7646L375.502 46.3289C375.502 46.3289 374.87 49.1835 375.937 51.0917C376.268 51.6776 377.23 52.474 377.846 52.7744C378.538 53.12 379.154 52.9097 379.154 52.9097Z" fill="#6BB7BF"/>
<path d="M382.897 51.6024L384.851 53.8411C384.851 53.8411 379.305 55.3135 376.133 51.3921C376.148 51.3921 380.823 52.9697 382.897 51.6024Z" fill="#86D1CD"/>
<path d="M281.81 23.4466C281.81 23.4466 283.809 20.1262 287.341 22.1545L289.28 20.051C289.28 20.051 287.266 18.7138 282.982 21.6286C280.186 23.5217 281.81 23.4466 281.81 23.4466Z" fill="#F99746"/>
<path d="M279.841 26.6918C279.841 26.6918 279.164 23.0709 285.132 20.3965C285.132 20.3965 282.997 21.6135 282.546 25.2945L279.841 26.6918Z" fill="#F99746"/>
<path d="M158.37 131.173C158.37 131.173 155.094 129.881 156.386 126.41L154.207 124.998C154.207 124.998 153.32 127.011 156.567 130.392C158.686 132.616 158.37 131.173 158.37 131.173Z" fill="#5685D8"/>
<path d="M161.587 132.45C161.587 132.45 158.446 133.592 155.154 128.664C155.154 128.664 156.567 130.392 159.934 130.242L161.587 132.45Z" fill="#739AF0"/>
<path d="M167.81 85.7688C167.81 85.7688 169.614 84.6269 169.809 83.2446C169.809 83.2446 171.568 83.3348 171.944 83.9057C171.944 83.9057 171.132 86.1895 170.185 86.6102C170.2 86.6252 168.051 86.7604 167.81 85.7688Z" fill="#F1A34F"/>
<path d="M49.1058 168.284C49.1058 168.284 47.1818 167.067 46.9713 165.595C46.9713 165.595 45.0924 165.7 44.6865 166.301C44.6865 166.301 45.5433 168.735 46.5655 169.201C46.5655 169.186 48.8503 169.351 49.1058 168.284Z" fill="#F1A34F"/>
<path d="M265.29 60.7528C265.29 60.7528 262.599 59.055 262.314 56.9966C262.314 56.9966 259.683 57.1318 259.127 57.9882C259.127 57.9882 260.329 61.3838 261.757 62.0298C261.742 62.0298 264.929 62.2402 265.29 60.7528Z" fill="#86D1CD"/>
<path d="M430.743 52.8498L447.488 105.271C448.224 107.585 446.932 110.079 444.617 110.815L352.608 140.188C350.294 140.924 347.798 139.632 347.062 137.318L330.317 84.8974C329.58 82.5836 330.873 80.0895 333.188 79.3533L425.196 49.9801C427.496 49.2439 430.006 50.536 430.743 52.8498Z" fill="#CDE0FB"/>
<path d="M377.831 119.484L353.3 127.312C352.263 127.643 351.135 127.072 350.805 126.035L350.73 125.795C350.399 124.758 350.97 123.631 352.007 123.301L376.524 115.473C377.561 115.142 378.688 115.713 379.019 116.75L379.094 116.99C379.44 118.027 378.869 119.154 377.831 119.484Z" fill="#AFCDFB"/>
<path d="M410.134 109.162L385.618 116.99C384.581 117.321 383.453 116.75 383.122 115.713L383.047 115.473C382.717 114.436 383.288 113.309 384.325 112.979L408.841 105.151C409.879 104.82 411.006 105.391 411.337 106.428L411.412 106.668C411.758 107.72 411.171 108.832 410.134 109.162Z" fill="#AFCDFB"/>
<path d="M380.958 91.4633C381.244 92.3497 381.319 93.146 381.198 93.8071C381.033 94.6485 380.552 95.2044 379.725 95.4748C378.914 95.7302 378.192 95.565 377.561 94.979C377.065 94.5132 376.674 93.8221 376.388 92.9357C376.103 92.0492 376.028 91.2679 376.148 90.6068C376.313 89.7655 376.809 89.2095 377.621 88.9391C378.448 88.6687 379.169 88.849 379.785 89.4349C380.282 89.8857 380.672 90.5618 380.958 91.4633ZM379.831 91.8088C379.65 91.2529 379.44 90.8022 379.184 90.4566C378.808 89.9458 378.388 89.7655 377.952 89.9007C377.501 90.0509 377.26 90.4266 377.26 91.0576C377.245 91.4783 377.335 91.9741 377.516 92.545C377.997 94.0625 378.643 94.7086 379.41 94.4532C379.861 94.3029 380.086 93.9123 380.086 93.2812C380.101 92.8756 380.011 92.3798 379.831 91.8088Z" fill="#AFCDFB"/>
<path d="M385.994 89.8556C386.279 90.742 386.354 91.5383 386.234 92.1994C386.069 93.0408 385.588 93.5967 384.761 93.8672C383.949 94.1226 383.228 93.9573 382.596 93.3713C382.1 92.9056 381.71 92.2144 381.424 91.328C381.138 90.4415 381.063 89.6603 381.183 88.9992C381.349 88.1578 381.845 87.6019 382.656 87.3314C383.483 87.061 384.205 87.2413 384.821 87.8273C385.317 88.278 385.708 88.9541 385.994 89.8556ZM384.866 90.2011C384.686 89.6452 384.475 89.1945 384.22 88.8489C383.844 88.3381 383.423 88.1578 382.987 88.293C382.536 88.4433 382.296 88.8189 382.296 89.4499C382.281 89.8706 382.371 90.3664 382.551 90.9374C383.032 92.4548 383.679 93.1009 384.445 92.8455C384.896 92.6952 385.122 92.3046 385.122 91.6736C385.137 91.2679 385.047 90.7721 384.866 90.2011Z" fill="#AFCDFB"/>
<path d="M393.615 87.4066C393.9 88.2931 393.975 89.0894 393.855 89.7504C393.69 90.5918 393.209 91.1477 392.382 91.4182C391.57 91.6736 390.849 91.5083 390.217 90.9224C389.721 90.4566 389.33 89.7655 389.045 88.879C388.759 87.9926 388.684 87.2113 388.804 86.5502C388.97 85.7088 389.466 85.1529 390.278 84.8825C391.104 84.612 391.826 84.7923 392.442 85.3783C392.953 85.844 393.329 86.5202 393.615 87.4066ZM392.487 87.7672C392.307 87.2113 392.096 86.7605 391.841 86.415C391.465 85.9041 391.044 85.7238 390.608 85.8591C390.157 86.0093 389.917 86.3849 389.917 87.016C389.902 87.4366 389.992 87.9325 390.172 88.5034C390.653 90.0209 391.3 90.6669 392.066 90.4115C392.517 90.2613 392.743 89.8706 392.743 89.2396C392.758 88.8339 392.683 88.3381 392.487 87.7672Z" fill="#AFCDFB"/>
<path d="M398.65 85.8141C398.936 86.7005 399.011 87.4968 398.891 88.1579C398.725 88.9993 398.244 89.5552 397.418 89.8257C396.606 90.0811 395.884 89.9158 395.253 89.3298C394.757 88.8641 394.366 88.1729 394.081 87.2865C393.795 86.4 393.72 85.6188 393.84 84.9577C394.005 84.1163 394.501 83.5604 395.313 83.2899C396.14 83.0195 396.861 83.1998 397.478 83.7857C397.989 84.2365 398.365 84.9126 398.65 85.8141ZM397.523 86.1596C397.342 85.6037 397.132 85.153 396.876 84.8074C396.501 84.2966 396.08 84.1163 395.644 84.2515C395.193 84.4018 394.952 84.7774 394.952 85.4084C394.937 85.8291 395.027 86.3249 395.208 86.8959C395.689 88.4133 396.335 89.0594 397.102 88.804C397.553 88.6537 397.778 88.2631 397.778 87.6321C397.793 87.2264 397.718 86.7306 397.523 86.1596Z" fill="#AFCDFB"/>
<path d="M403.686 84.2064C403.971 85.0929 404.047 85.8892 403.926 86.5503C403.761 87.3916 403.28 87.9476 402.453 88.218C401.641 88.4734 400.92 88.3081 400.289 87.7222C399.792 87.2564 399.402 86.5653 399.116 85.6788C398.83 84.7924 398.755 84.0111 398.876 83.35C399.041 82.5086 399.537 81.9527 400.349 81.6823C401.175 81.4118 401.897 81.5921 402.513 82.1781C403.024 82.6288 403.4 83.3049 403.686 84.2064ZM402.558 84.552C402.378 83.9961 402.168 83.5453 401.912 83.1998C401.536 82.6889 401.115 82.5086 400.679 82.6439C400.228 82.7941 399.988 83.1697 399.988 83.8008C399.973 84.2214 400.063 84.7173 400.243 85.2882C400.724 86.8057 401.371 87.4517 402.137 87.1963C402.588 87.0461 402.814 86.6554 402.814 86.0244C402.829 85.6187 402.754 85.1229 402.558 84.552Z" fill="#AFCDFB"/>
<path d="M408.721 82.5988C409.007 83.4852 409.082 84.2815 408.962 84.9426C408.796 85.784 408.315 86.3399 407.489 86.6103C406.677 86.8658 405.955 86.7005 405.324 86.1145C404.828 85.6488 404.437 84.9576 404.152 84.0712C403.866 83.1847 403.791 82.4034 403.911 81.7423C404.077 80.901 404.573 80.345 405.384 80.0746C406.211 79.8042 406.933 79.9845 407.549 80.5704C408.06 81.0212 408.436 81.6973 408.721 82.5988ZM407.594 82.9443C407.414 82.3884 407.203 81.9377 406.948 81.5921C406.572 81.0813 406.151 80.901 405.715 81.0362C405.264 81.1864 405.024 81.5621 405.024 82.1931C405.008 82.6138 405.099 83.1096 405.279 83.6805C405.76 85.198 406.406 85.8441 407.173 85.5887C407.624 85.4384 407.849 85.0478 407.849 84.4167C407.864 84.0111 407.774 83.5153 407.594 82.9443Z" fill="#AFCDFB"/>
<path d="M416.357 80.1495C416.643 81.036 416.718 81.8323 416.598 82.4934C416.433 83.3348 415.952 83.8907 415.125 84.1611C414.313 84.4165 413.592 84.2513 412.96 83.6653C412.464 83.1995 412.073 82.5084 411.788 81.6219C411.502 80.7355 411.427 79.9542 411.547 79.2931C411.713 78.4517 412.209 77.8958 413.02 77.6254C413.847 77.3549 414.569 77.5352 415.185 78.1212C415.681 78.587 416.072 79.2631 416.357 80.1495ZM415.23 80.5101C415.05 79.9542 414.839 79.5035 414.584 79.1579C414.208 78.6471 413.787 78.4668 413.351 78.602C412.9 78.7522 412.66 79.1279 412.66 79.7589C412.644 80.1796 412.735 80.6754 412.915 81.2463C413.396 82.7638 414.042 83.4099 414.809 83.1545C415.26 83.0042 415.486 82.6136 415.486 81.9825C415.501 81.5769 415.41 81.0811 415.23 80.5101Z" fill="#AFCDFB"/>
<path d="M421.393 78.5421C421.679 79.4286 421.754 80.2249 421.633 80.886C421.468 81.7274 420.987 82.2833 420.16 82.5537C419.349 82.8091 418.627 82.6439 417.996 82.0579C417.5 81.5921 417.109 80.901 416.823 80.0145C416.538 79.1281 416.463 78.3468 416.583 77.6857C416.748 76.8443 417.244 76.2884 418.056 76.018C418.883 75.7475 419.604 75.9278 420.22 76.5138C420.716 76.9796 421.107 77.6557 421.393 78.5421ZM420.266 78.9027C420.085 78.3468 419.875 77.8961 419.619 77.5505C419.243 77.0396 418.823 76.8593 418.387 76.9946C417.936 77.1448 417.695 77.5204 417.695 78.1515C417.68 78.5722 417.77 79.068 417.951 79.6389C418.432 81.1564 419.078 81.8025 419.845 81.5471C420.296 81.3968 420.521 81.0062 420.521 80.3751C420.536 79.9695 420.446 79.4736 420.266 78.9027Z" fill="#AFCDFB"/>
<path d="M426.429 76.9344C426.714 77.8209 426.789 78.6172 426.669 79.2783C426.504 80.1197 426.023 80.6756 425.196 80.946C424.384 81.2014 423.663 81.0362 423.031 80.4502C422.535 79.9844 422.144 79.2933 421.859 78.4069C421.573 77.5204 421.498 76.7391 421.618 76.078C421.784 75.2367 422.28 74.6807 423.091 74.4103C423.918 74.1399 424.64 74.3201 425.256 74.9061C425.752 75.3719 426.143 76.048 426.429 76.9344ZM425.301 77.295C425.121 76.7391 424.91 76.2884 424.655 75.9428C424.279 75.432 423.858 75.2517 423.422 75.3869C422.971 75.5371 422.731 75.9128 422.731 76.5438C422.716 76.9645 422.806 77.4603 422.986 78.0312C423.467 79.5487 424.114 80.1948 424.88 79.9394C425.331 79.7891 425.557 79.3985 425.557 78.7674C425.572 78.3618 425.482 77.866 425.301 77.295Z" fill="#AFCDFB"/>
<path d="M431.464 75.3268C431.75 76.2132 431.825 77.0095 431.705 77.6706C431.539 78.512 431.058 79.0679 430.231 79.3384C429.42 79.5938 428.698 79.4285 428.067 78.8426C427.571 78.3768 427.18 77.6856 426.894 76.7992C426.609 75.9127 426.534 75.1315 426.654 74.4704C426.819 73.629 427.315 73.0731 428.127 72.8026C428.954 72.5322 429.675 72.7125 430.292 73.2984C430.788 73.7642 431.178 74.4403 431.464 75.3268ZM430.337 75.6874C430.156 75.1315 429.946 74.6807 429.69 74.3352C429.315 73.8243 428.894 73.644 428.458 73.7792C428.007 73.9295 427.766 74.3051 427.766 74.9361C427.751 75.3568 427.841 75.8526 428.022 76.4236C428.503 77.9411 429.149 78.5871 429.916 78.3317C430.367 78.1815 430.592 77.7908 430.592 77.1598C430.607 76.7541 430.517 76.2583 430.337 75.6874Z" fill="#AFCDFB"/>
<path d="M364.092 78.3166L340.087 85.9792C339.05 86.3097 337.923 85.7388 337.592 84.7021C337.261 83.6654 337.832 82.5385 338.87 82.208L362.875 74.5454C363.912 74.2149 365.039 74.7858 365.37 75.8225C365.716 76.8592 365.13 77.9861 364.092 78.3166Z" fill="#AFCDFB"/>
<path d="M422.385 64.1333C422.159 63.4422 421.724 62.9013 421.167 62.5257C421.002 62.4205 420.792 62.4806 420.701 62.6459L420.626 62.7962C420.551 62.9464 420.596 63.1117 420.732 63.2018C421.137 63.4723 421.453 63.8779 421.603 64.3737C421.769 64.8695 421.739 65.3804 421.558 65.8311C421.498 65.9814 421.573 66.1466 421.709 66.2218L421.859 66.2969C422.024 66.387 422.25 66.3119 422.31 66.1316C422.565 65.5156 422.595 64.8095 422.385 64.1333Z" fill="#AFCDFB"/>
<path d="M423.933 63.6376C423.573 62.5107 422.821 61.6243 421.889 61.0533C421.724 60.9632 421.528 61.0233 421.438 61.1886L421.393 61.2787C421.318 61.429 421.378 61.6093 421.513 61.6994C422.295 62.1802 422.926 62.9164 423.227 63.863C423.527 64.8095 423.452 65.7711 423.091 66.6125C423.016 66.7627 423.091 66.958 423.242 67.0331L423.332 67.0782C423.497 67.1684 423.708 67.0932 423.783 66.928C424.204 65.9213 424.294 64.7644 423.933 63.6376Z" fill="#AFCDFB"/>
<path d="M425.301 63.2019C424.82 61.6994 423.813 60.5125 422.535 59.7762C422.37 59.6861 422.174 59.7462 422.084 59.9115C422.009 60.0617 422.069 60.257 422.205 60.3322C423.347 60.9932 424.249 62.045 424.685 63.3972C425.121 64.7494 424.985 66.1317 424.444 67.3336C424.369 67.4839 424.429 67.6792 424.58 67.7543C424.745 67.8445 424.94 67.7693 425.031 67.6041C425.647 66.2669 425.782 64.7043 425.301 63.2019Z" fill="#AFCDFB"/>
<path d="M426.774 62.7361C426.158 60.8129 424.865 59.3104 423.227 58.3939C423.061 58.3038 422.866 58.3639 422.776 58.5291L422.701 58.6794C422.626 58.8296 422.686 59.025 422.836 59.1001C424.294 59.9264 425.451 61.2636 426.008 62.9765C426.549 64.6893 426.383 66.4622 425.677 67.9647C425.602 68.1149 425.662 68.3102 425.812 68.3853L425.963 68.4605C426.128 68.5506 426.323 68.4755 426.413 68.3102C427.195 66.6275 427.39 64.6442 426.774 62.7361Z" fill="#AFCDFB"/>
<path d="M364.859 98.3594H312.474V249.177H364.859V98.3594Z" fill="#FFA412"/>
<path d="M312.474 98.3594H174.078V249.177H312.474V98.3594Z" fill="#FFB93E"/>
<path d="M312.469 182.698V172.136L174.073 172.136V182.698L312.469 182.698Z" fill="#FFA412"/>
<path d="M364.851 182.701V172.138H312.466V182.701H364.851Z" fill="#FA9712"/>
<path d="M269.499 99.9819C269.499 99.9819 300.764 79.6685 322.019 86.2043L317.63 90.291L319.599 97.1723C319.599 97.1723 295.969 89.4796 268.837 101.139L269.499 99.9819Z" fill="#F99746"/>
<path d="M267.755 95.3844C267.755 95.3844 262.239 94.7233 254.016 93.5814C232.19 90.5765 191.305 84.2962 183.969 78.4967C172.44 69.3767 199.767 30.6131 211.582 25.2193C223.412 19.8555 267.755 95.3844 267.755 95.3844Z" fill="#F99746"/>
<path d="M354.247 47.1103C356.216 56.7111 266.928 98.1941 266.928 98.1941C266.928 98.1941 268.552 93.807 271.197 86.9257C271.197 86.9257 271.197 86.9257 271.212 86.9106C280.863 61.8044 304.117 3.53885 311.768 4.35018C312.534 4.42531 313.436 4.71077 314.443 5.14649C326.168 10.315 352.443 38.2608 354.247 47.1103Z" fill="#F99746"/>
<path d="M313.677 13.6954C308.22 23.1609 271.784 85.9489 271.212 86.9255C280.863 61.8193 304.117 3.55375 311.768 4.36508C311.768 4.36508 313.286 4.32 314.443 5.16138C315.826 6.16804 316.683 8.46681 313.677 13.6954Z" fill="#ED7D2B"/>
<path d="M254.031 93.5815C232.19 90.5766 191.304 84.2962 183.969 78.4967C180.662 69.1664 189.26 68.4002 195.513 67.7541C201.751 67.093 254.031 93.5815 254.031 93.5815Z" fill="#ED7D2B"/>
<path d="M251.1 98.3593C251.1 98.3593 256.106 86.9856 265.951 86.3546C276.233 85.6935 282.08 98.3593 282.08 98.3593H251.1Z" fill="#ED7D2B"/>
<path d="M314.699 98.3594H169.885V119.108H314.699V98.3594Z" fill="#FFC261"/>
<path d="M369.278 98.3594H314.699V119.108H369.278V98.3594Z" fill="#FA9712"/>
<path d="M256.166 96.6317C256.166 96.6317 227.801 87.6469 208.666 93.5817C186.6 100.418 187.907 127.628 187.907 127.628L193.093 125.494L200.098 128.784C200.098 128.784 201.285 99.9672 219.263 95.9405C234.836 92.4548 256.166 96.6317 256.166 96.6317Z" fill="#F99746"/>
<path d="M241.63 98.3594H231.063V249.162H241.63V98.3594Z" fill="#FFA412"/>
<path d="M144.668 53.0886L134.976 56.3354L144.334 84.2441L154.026 80.9972L144.668 53.0886Z" fill="#ED7D2B"/>
<path d="M134.974 56.3425L109.362 64.9229L118.72 92.8315L144.332 84.2511L134.974 56.3425Z" fill="#F99746"/>
<path d="M140.203 71.9457L139.549 69.9939L113.936 78.5743L114.59 80.526L140.203 71.9457Z" fill="#FFB93E"/>
<path d="M149.898 68.7059L149.244 66.7542L139.552 70.001L140.206 71.9528L149.898 68.7059Z" fill="#F69B34"/>
<path d="M127.901 58.2286C127.901 58.2286 134.56 52.0384 140.483 51.5576L139.641 52.6544L140.618 53.7662C140.618 53.7662 133.989 54.217 127.811 58.499L127.901 58.2286Z" fill="#FFB93E"/>
<path d="M126.518 58.5592C126.518 58.5592 125.451 58.7846 123.858 59.0851C119.634 59.8814 111.667 61.2486 109.954 60.6326C107.248 59.656 109.909 50.7915 111.757 49.0636C113.621 47.3358 126.518 58.5592 126.518 58.5592Z" fill="#FFB93E"/>
<path d="M139.521 44.2556C140.483 45.9083 126.534 59.13 126.534 59.13C126.534 59.13 126.564 58.2135 126.624 56.7862C126.849 51.5426 127.541 39.3125 128.999 38.997C129.149 38.9669 129.329 38.9519 129.54 38.982C132.05 39.1923 138.634 42.7381 139.521 44.2556Z" fill="#FFB93E"/>
<path d="M129.947 40.5896C129.526 42.678 126.67 56.5608 126.64 56.7711C126.865 51.5275 127.557 39.2975 129.015 38.982C129.015 38.982 129.285 38.8768 129.556 38.9669C129.871 39.0721 130.172 39.4327 129.947 40.5896Z" fill="#F69B34"/>
<path d="M123.858 59.0847C119.634 59.881 111.667 61.2633 109.954 60.6323C108.766 59.1148 110.299 58.4387 111.427 57.9278C112.539 57.417 123.858 59.0847 123.858 59.0847Z" fill="#F69B34"/>
<path d="M123.617 60.1368C123.617 60.1368 123.843 57.7178 125.617 56.9966C127.48 56.2303 129.344 58.2136 129.344 58.2136L123.617 60.1368Z" fill="#F69B34"/>
<path d="M135.4 56.2021L108.59 65.1836L109.88 69.0301L136.69 60.0486L135.4 56.2021Z" fill="#FFA15A"/>
<path d="M145.49 52.8119L135.385 56.1973L136.67 60.0295L146.775 56.6442L145.49 52.8119Z" fill="#F78639"/>
<path d="M124.444 59.5056C124.444 59.5056 118.642 59.5958 115.47 61.8945C111.818 64.5238 113.742 69.482 113.742 69.482L114.568 68.7608L116.071 68.9411C116.071 68.9411 114.508 63.5322 117.575 61.6692C120.235 60.0615 124.444 59.5056 124.444 59.5056Z" fill="#FFBE55"/>
<path d="M121.869 60.7309L119.917 61.385L129.356 89.5358L131.309 88.8817L121.869 60.7309Z" fill="#FFB93E"/>
<path d="M313.571 114.361C313.571 114.361 309.738 116.614 312.083 120.987C312.083 120.987 308.731 120.37 307.995 119.364C307.995 119.364 308.085 119.785 308.205 119.995C308.205 119.995 305.124 119.289 304.117 118.012C303.109 116.72 308.055 101.304 316.082 105.301C316.082 105.301 323.417 106.668 320.546 114.796C317.675 122.94 320.396 123.661 320.396 123.661C320.396 123.661 319.539 123.826 319.178 123.736C319.178 123.736 318.697 123.39 318.667 123.075C318.667 123.075 318.652 123.571 318.742 123.751C318.742 123.751 315.736 123.255 314.563 121.753C313.391 120.25 312.7 115.968 313.571 114.361Z" fill="#233862"/>
<path d="M308.041 127.462C308.025 127.478 308.025 127.478 308.041 127.462C307.994 127.478 307.994 127.462 308.041 127.462Z" fill="#FFB27D"/>
<path d="M317.344 124.788C317.45 125.794 317.585 126.696 317.645 127.132C317.78 128.093 308.611 127.462 308.025 127.462C308.431 127.282 309.678 123.345 310.069 121.828C310.55 119.995 310.926 118.027 310.926 118.027L317.404 118.432L317.795 118.462C317.555 119.349 317.389 120.175 317.269 120.956C317.254 121.062 317.239 121.167 317.224 121.272C317.104 122.143 317.209 123.541 317.344 124.788Z" fill="#FFB27D"/>
<path d="M310.039 117.396C310.039 117.396 308.987 114.06 309.197 111.506C309.348 109.688 311.948 103.468 318.186 106.112C318.186 106.112 320.02 106.803 321.478 108.456C322.635 109.778 324.124 112.377 320.366 117.396L319.268 119.138L310.039 117.396Z" fill="#233862"/>
<path d="M317.344 124.788C312.805 123.466 310.896 118.222 310.896 118.222C312.82 118.282 315.315 119.604 317.269 120.957C317.254 121.062 317.239 121.167 317.224 121.272C317.104 122.144 317.209 123.541 317.344 124.788Z" fill="#ED975D"/>
<path d="M317.675 122.955C317.675 122.955 309.483 120.926 310.821 115.848C312.158 110.77 312.008 107.089 317.284 108.17C322.575 109.252 323.071 111.446 323.041 113.249C323.011 115.052 319.84 123.345 317.675 122.955Z" fill="#FFB27D"/>
<path d="M321.042 109.027C321.042 109.027 317.239 114.391 313.571 114.361C309.919 114.331 308.671 113.023 308.671 113.023C308.671 113.023 311.858 111.626 313.361 108.14C313.361 108.14 320.11 105.752 321.042 109.027Z" fill="#233862"/>
<path d="M320.351 109.357C320.351 109.357 321.658 111.13 321.734 112.528C321.794 113.925 321.283 116.644 322.079 116.749C322.079 116.749 324.83 113.144 323.552 110.364C322.185 107.404 320.351 109.357 320.351 109.357Z" fill="#233862"/>
<path d="M320.606 109.643C320.606 109.643 317.359 115.457 312.519 116.314C312.519 116.314 317.855 113.624 319.313 109.613C320.771 105.586 320.606 109.643 320.606 109.643Z" fill="#233862"/>
<path d="M316.397 119.694C316.397 119.694 316.503 120.461 316.999 120.656C317.495 120.836 318.802 121.167 318.938 121.092C319.073 121.017 319.554 120.401 319.554 120.401C319.554 120.401 317.48 119.604 316.397 119.694Z" fill="white"/>
<path d="M313.331 197.372C313.226 197.807 313.12 198.243 313.015 198.664C312.399 201.233 311.828 203.607 311.467 205.59C311.001 208.174 310.881 210.113 311.497 210.909C314.037 214.244 311.497 240.688 311.497 240.688L308.596 243.663C308.596 243.663 303.56 217.55 302.207 213.463C301.591 211.6 300.689 203.652 299.878 195.554C299.832 195.148 299.802 194.742 299.757 194.337C299.622 192.924 299.487 191.512 299.351 190.13C298.63 182.452 298.104 175.886 298.104 175.886C298.104 175.886 303.44 172.13 308.295 171.725C311.151 171.469 313.842 172.386 315.165 175.886C317.119 180.995 315.15 189.799 313.331 197.372Z" fill="#FFB27D"/>
<path d="M313.331 197.372C309.363 194.517 303.786 189.409 301.757 181.07C301.366 176.923 304.643 172.972 308.295 171.725C311.151 171.469 313.842 172.386 315.165 175.886C317.119 180.995 315.15 189.799 313.331 197.372Z" fill="#ED975D"/>
<path d="M327.791 146.934L347.272 151.967V154.236C347.272 154.236 327.881 154.011 326.634 151.847C325.386 149.699 327.791 146.934 327.791 146.934Z" fill="#FFB27D"/>
<path d="M347.287 221.892L346.37 225.648C346.37 225.648 320.005 212.036 316.608 209.422C315.24 208.37 313.436 202.676 311.753 196.215C309.257 186.599 307.063 175.331 307.063 175.331C307.063 175.331 310.76 161.132 320.651 169.817C326.574 175.015 325.657 185.052 324.995 192.85C324.559 198.078 324.259 202.315 326.213 203.412C330.046 205.545 341.275 215.387 344.837 222.163L347.287 221.892Z" fill="#FFB27D"/>
<path d="M302.568 158.758C295.684 157.001 288.123 146.333 288.123 146.333L290.062 144.65C292.076 147.009 300.419 151.096 300.419 151.096C300.374 148.932 300.434 146.964 300.569 145.161C301.501 132.946 306.101 128.874 307.363 127.988C307.559 127.838 307.679 127.778 307.679 127.778C307.679 127.778 307.679 127.868 307.694 128.033C307.709 128.394 307.739 129.13 307.784 130.136C308.01 137.604 308.325 160.216 302.568 158.758Z" fill="#FFB27D"/>
<path d="M308.025 144.094C307.664 152.809 306.371 161.433 302.568 160.877C297.924 160.201 296.706 155.859 296.465 152.628C296.315 150.615 296.541 149.038 296.541 149.038C296.541 149.038 298.825 149.022 299.201 148.692C300.96 147.069 300.434 131.143 301.306 129.49C302.177 127.838 307.829 126.771 307.829 126.771C307.829 126.771 308.37 135.485 308.025 144.094Z" fill="white"/>
<path d="M308.025 144.094C307.664 152.809 306.371 161.433 302.568 160.877C297.924 160.201 296.706 155.859 296.465 152.628C297.608 152.568 299.622 152.298 300.419 151.081C301.561 149.338 305.124 138.115 305.124 138.115C305.124 138.115 306.522 140.639 308.025 144.094Z" fill="#DFEBFD"/>
<path d="M337.366 146.934C338.629 148.722 337.938 152.193 335.292 154.987C333.654 156.715 331.429 157.752 327.806 157.211C326.228 156.986 321.824 154.492 321.358 151.457C321.268 150.901 321.223 150.585 321.223 150.585C321.223 150.585 319.208 152.598 319.148 152.974C319.118 153.139 318.938 154.657 318.908 154.867C318.878 155.123 319.058 156.039 319.058 156.039C319.058 156.039 309.468 160.231 301.546 155.453C301.546 155.453 299.291 136.101 300.915 132.871C301.727 131.263 306.251 128.153 307.814 126.771C308.175 126.456 308.521 125.524 308.431 124.923C308.356 124.412 308.942 123.556 309.423 123.721C310.37 124.022 313.045 125.344 314.939 124.848C315.886 124.592 317.074 123.511 317.976 123.766C319.088 124.067 317.916 126.741 318.547 126.786C319.419 126.831 324.109 127.763 324.499 128.529C324.635 128.799 325.988 132.36 327.671 137.093C327.671 137.093 327.671 137.093 327.671 137.108C330.858 145.973 335.503 144.305 337.366 146.934Z" fill="white"/>
<path d="M321.222 150.585C321.222 150.585 320.982 143.193 320.396 143.283C319.794 143.373 311.181 151.667 313.226 154.972C315.27 158.308 321.222 150.585 321.222 150.585Z" fill="#DFEBFD"/>
<path d="M327.791 180.875C327.791 180.875 324.469 181.896 319.584 182.573C313.526 183.414 305.063 183.714 297.503 180.875C297.503 180.875 296.886 169.636 298.675 163.777C300.464 157.917 301.306 155.107 301.306 155.107C301.306 155.107 308.476 156.91 315.766 155.513C316.788 155.318 317.81 155.062 318.817 154.717C318.817 154.717 323.312 164.257 324.544 168.344C325.777 172.431 327.791 180.875 327.791 180.875Z" fill="#2B478B"/>
<path d="M327.791 180.875C327.791 180.875 324.469 181.897 319.584 182.573C310.61 177.494 314.984 156.099 314.984 156.099C315.255 155.889 315.51 155.678 315.766 155.498C316.788 155.303 317.81 155.047 318.817 154.702C318.817 154.702 323.312 164.243 324.544 168.329C325.777 172.416 327.791 180.875 327.791 180.875Z" fill="#233862"/>
<path d="M308.927 157.211C303.605 157.211 301.426 155.378 301.261 155.258L300.915 152.749C300.96 152.794 308.1 157.061 319.133 152.974L318.893 154.867C314.654 156.445 311.692 157.211 308.927 157.211Z" fill="#B64C41"/>
<path d="M347.287 151.967C347.287 151.967 350.865 150.21 352.278 150.044C353.706 149.879 356.081 149.819 356.081 150.044C356.081 150.27 353.525 151.862 352.834 151.967C352.157 152.088 350.85 153.049 351.241 153.169C351.631 153.29 353.736 152.794 353.766 153.169C353.796 153.545 352.488 153.77 352.263 154.056C352.037 154.341 351.241 154.687 349.963 154.507C348.685 154.341 347.272 154.251 347.272 154.251V151.967H347.287Z" fill="#FFB27D"/>
<path d="M290.047 144.635L288.108 146.333C288.108 146.333 284.651 143.809 284.485 142.772V142.667C284.485 141.585 286.68 139.362 288.499 139.271C288.679 139.271 288.844 139.317 288.995 139.392C289.972 139.993 290.077 142.517 290.077 143.824C290.062 144.32 290.047 144.635 290.047 144.635Z" fill="#FFB27D"/>
<path d="M347.287 221.892L346.37 225.648C346.37 225.648 320.005 212.036 316.608 209.422C315.24 208.37 313.436 202.676 311.753 196.215C314.007 196.681 318.863 196.921 324.995 192.834C324.559 198.063 324.259 202.3 326.213 203.397C330.046 205.53 341.275 215.371 344.837 222.148L347.287 221.892Z" fill="#2B478B"/>
<path d="M352.488 223.35C352.488 223.35 352.473 223.35 352.458 223.35C352.338 223.32 351.797 223.139 351.436 222.283C351.195 221.712 351.135 221.246 350.91 220.69L350.023 219.158C349.091 217.926 348.76 218.226 348.76 218.226C348.76 218.226 348.52 218.542 348.159 218.947C347.558 219.623 346.656 220.57 346.009 220.81C345.559 220.976 345.258 221.261 345.093 221.532C344.867 221.862 344.822 222.163 344.822 222.163C344.822 222.163 346.731 222.493 346.566 223.44C346.235 225.258 346.325 225.588 346.355 225.648L346.37 225.663C346.37 225.663 349.632 227.376 350.669 227.707C352.518 228.308 353.495 229.555 354.096 230.141C354.337 230.381 354.683 230.486 355.013 230.426C355.509 230.351 356.141 230.186 356.276 229.885L352.488 223.35Z" fill="#233862"/>
<path d="M311.512 210.909C314.052 214.245 311.512 240.688 311.512 240.688L308.611 243.663C308.611 243.663 303.575 217.55 302.223 213.463C301.606 211.6 300.704 203.652 299.893 195.554C302.298 196.636 308.19 198.965 313.03 198.649C312.414 201.218 311.843 203.592 311.482 205.575C311.001 208.175 310.896 210.098 311.512 210.909Z" fill="#233862"/>
<path d="M314.413 245L312.85 245.842C312.279 246.037 311.813 246.097 311.241 246.322C310.37 246.653 309.753 247.314 309.723 247.434C309.287 249.222 308.656 249.117 308.656 249.117L302.388 249.177C302.087 249.027 302.598 247.765 302.839 247.524C303.425 246.938 305.214 247.239 305.86 245.391C306.221 244.354 308.025 241.154 308.025 241.154L308.04 241.139C308.1 241.109 308.431 241.034 310.249 241.424C311.181 241.62 311.572 239.711 311.572 239.711C311.572 239.711 311.873 239.772 312.188 239.997C312.444 240.177 312.73 240.478 312.88 240.943C313.105 241.59 314.022 242.536 314.684 243.152C315.09 243.528 315.39 243.768 315.39 243.768C315.39 243.768 315.676 244.099 314.413 245Z" fill="#233862"/>
<path d="M251.356 172.671H224.72V249.372H251.356V172.671Z" fill="#4A75CB"/>
<path d="M224.72 172.671H154.342V249.372H224.72V172.671Z" fill="#739AF0"/>
<path d="M224.714 215.555V210.191H154.336V215.555H224.714Z" fill="#AFCDFB"/>
<path d="M251.354 215.551V210.187H224.718V215.551H251.354Z" fill="#88B3FF"/>
<path d="M205.675 171.499C205.675 171.499 227.245 161.703 242.292 165.43L239.285 167.443L240.803 170.989C240.803 170.989 224.073 166.632 205.239 172.085L205.675 171.499Z" fill="#4A75CB"/>
<path d="M201.977 171.124C201.977 171.124 199.166 170.778 194.987 170.207C183.894 168.675 163.09 165.489 159.362 162.53C153.5 157.887 167.389 138.175 173.402 135.44C179.43 132.706 201.977 171.124 201.977 171.124Z" fill="#72A9F7"/>
<path d="M245.974 146.573C246.981 151.456 201.571 172.551 201.571 172.551C201.571 172.551 202.398 170.312 203.736 166.827C208.651 154.056 220.466 124.427 224.359 124.833C224.75 124.878 225.201 125.013 225.712 125.238C231.694 127.853 245.042 142.066 245.974 146.573Z" fill="#72A9F7"/>
<path d="M225.336 129.566C222.57 134.374 204.036 166.316 203.736 166.812C208.651 154.041 220.466 124.412 224.359 124.818C224.359 124.818 225.126 124.803 225.712 125.224C226.433 125.749 226.869 126.906 225.336 129.566Z" fill="#4A75CB"/>
<path d="M195.002 170.207C183.894 168.675 163.105 165.489 159.362 162.53C157.679 157.782 162.053 157.391 165.225 157.061C168.411 156.73 195.002 170.207 195.002 170.207Z" fill="#4A75CB"/>
<path d="M193.514 172.626C193.514 172.626 196.055 166.842 201.075 166.511C206.306 166.181 209.282 172.626 209.282 172.626H193.514Z" fill="#4A75CB"/>
<path d="M225.847 172.671H152.207V183.219H225.847V172.671Z" fill="#88B3FF"/>
<path d="M253.61 172.671H225.847V183.219H253.61V172.671Z" fill="#3969B7"/>
<path d="M196.084 171.785C196.084 171.785 181.654 167.217 171.929 170.237C160.715 173.723 161.377 187.561 161.377 187.561L164.022 186.479L167.585 188.147C167.585 188.147 168.186 173.498 177.325 171.439C185.232 169.666 196.084 171.785 196.084 171.785Z" fill="#4A75CB"/>
<path d="M188.674 172.671H183.308V250.033H188.674V172.671Z" fill="#AFCDFB"/>
<path d="M69.1128 141.18C69.1128 141.18 88.9545 155.709 93.8097 155.363C98.6649 155.018 115.846 144.41 115.846 144.41L112.208 140.083C112.208 140.083 96.6507 145.853 93.7947 144.26C90.9387 142.667 79.8153 129.19 75.1405 129.896C70.4657 130.633 65.851 135.951 69.1128 141.18Z" fill="#233862"/>
<path d="M57.4032 250.364H51.4658C50.7142 249.958 50.0528 249.027 49.8424 247.644C49.5568 245.736 47.4072 244.699 46.9413 243.137C46.4753 241.574 48.8503 239.381 48.8503 239.381L49.2411 238.87L49.6469 238.344L53.5852 239.276C53.5852 239.276 53.6754 240.207 53.7355 241.409C53.7806 242.265 53.7957 243.272 53.7506 244.144C53.6303 246.232 54.3368 248.471 56.1857 248.876C57.5986 249.147 57.5385 249.958 57.4032 250.364Z" fill="#233862"/>
<path d="M91.8255 250.364H78.2671C77.6207 249.567 77.8612 246.638 77.9514 245.676C77.9664 245.481 77.9814 245.376 77.9814 245.376C77.9814 245.376 82.6112 241.679 83.2425 244.504C83.2575 244.594 83.2876 244.684 83.3177 244.76C84.1143 247.404 87.7069 248.621 89.7963 248.951C91.1491 249.177 91.6452 249.868 91.8255 250.364Z" fill="#233862"/>
<path d="M89.2401 174.7C89.2401 174.7 88.5336 183.474 87.7069 194.006C86.5795 208.325 85.2267 225.919 85.1064 229.254C84.881 235.039 83.949 244.294 83.949 244.294C83.949 244.294 81.7544 246.487 77.3501 245.571C77.3501 245.571 73.4269 232.364 72.3146 218.376C72.2995 218.151 72.2845 217.911 72.2695 217.685C71.2323 203.457 69.6089 173.483 69.6089 173.483L89.2401 174.7Z" fill="#F99746"/>
<path d="M89.2401 174.7C89.2401 174.7 88.5336 183.474 87.7069 194.006L72.2995 218.376C72.2845 218.151 72.2694 217.911 72.2544 217.685C71.2172 203.457 69.5938 173.483 69.5938 173.483L89.2401 174.7Z" fill="#ED7D2B"/>
<path d="M86.0234 175.736C86.0234 175.736 73.3518 207.498 65.0092 222.418C56.6817 237.337 54.0662 241.514 54.0662 241.514C54.0662 241.514 49.2862 239.606 48.8503 238.299C48.8503 238.299 52.037 209.482 57.6137 202.465C60.7703 198.499 64.4681 186.584 64.6485 182.422C64.8288 178.261 65.7758 170.012 65.7758 170.012L86.0234 175.736Z" fill="#F99746"/>
<path d="M77.6808 130.512C72.9459 132.661 63.942 129.491 63.942 129.491C63.942 129.491 68.0606 125.539 66.9783 118.493L71.1571 121.092L73.9981 122.865C73.9981 122.865 74.1334 124.097 74.1183 126.275C74.1183 126.846 74.0883 127.492 74.0582 128.199C76.2829 129.115 77.6808 130.512 77.6808 130.512Z" fill="#FFB27D"/>
<path d="M73.968 122.88C73.968 122.88 74.1033 124.112 74.0883 126.29C71.1722 126.14 67.3692 121.918 67.3692 121.918C68.7822 121.317 70.0448 121.092 71.1421 121.122L73.968 122.88Z" fill="#ED975D"/>
<path d="M75.4562 122.579C75.4562 122.579 67.4894 124.908 66.1215 119.935C64.7537 114.962 62.7996 111.912 67.8201 110.214C72.8407 108.516 74.3589 110.139 75.2157 111.686C76.0875 113.234 77.5005 121.858 75.4562 122.579Z" fill="#FFB27D"/>
<path d="M89.7362 171.574C89.9917 173.873 90.0969 175.301 90.0518 175.361C89.9165 175.496 89.7512 175.601 89.5558 175.616C87.7069 175.811 82.4459 177.479 77.8312 177.569C73.938 177.659 70.4056 176.938 66.5575 175.736C66.0464 175.571 64.8589 175.12 64.8138 174.564C64.7537 173.963 64.7086 173.107 64.6635 172.01C64.4681 168.209 64.1374 161.673 62.7996 154.251C62.5591 152.869 62.3486 151.487 62.1833 150.134C60.9206 140.008 61.8526 130.858 65.5353 127.357C65.851 127.071 68.0907 127.853 70.15 128.574C72.059 129.25 73.8628 129.13 75.5163 128.574L77.3952 129.866C79.6951 131.534 82.2805 133.878 83.7386 137.724C84.9862 140.999 86.2037 147.009 87.2409 153.29C87.7069 156.129 88.1579 158.999 88.5036 161.733L88.5186 161.839C88.5787 162.109 88.6088 162.409 88.6389 162.68C88.699 163.161 88.7742 163.641 88.8343 164.107C89.2101 167.007 89.5257 169.606 89.7362 171.574Z" fill="#2B478B"/>
<path d="M66.0614 119.454C66.0614 119.454 66.8731 119.214 66.6025 118.087C66.332 116.96 66.1516 115.458 67.1136 115.623C68.0756 115.788 68.2109 116.524 68.5416 116.044C68.8723 115.563 68.6619 113.73 71.4127 113.264C74.1785 112.798 75.4261 113.625 76.6436 112.903C77.8612 112.182 77.6959 110.214 77.6959 110.214C77.6959 110.214 77.4103 110.95 76.8842 111.251C76.8842 111.251 78.6879 108.05 75.9522 106.323C73.2164 104.61 70.8264 106.232 69.3984 106.488C66.2418 107.059 64.2125 107.495 63.4159 109.718C62.6492 111.942 63.7766 117.681 66.0614 119.454Z" fill="#2B478B"/>
<path d="M89.7361 171.575C89.3453 171.65 82.551 172.867 77.9363 169.832C73.1864 166.707 67.6247 148.151 67.6247 148.151C67.6247 148.151 78.2971 160.021 78.5075 160.486C78.6879 160.877 86.3841 163.326 88.8342 164.092C89.21 167.007 89.5257 169.606 89.7361 171.575Z" fill="#233862"/>
<path d="M145.05 112.05L92.2495 112.801L93.0007 165.577L145.801 164.826L145.05 112.05Z" fill="#ED7D2B"/>
<path d="M133.791 112.2L80.9907 112.951L81.742 165.727L134.543 164.976L133.791 112.2Z" fill="#F99746"/>
<path d="M87.9023 129.16C87.8271 124.172 91.2543 120.1 96.3801 120.025C101.461 119.95 104.948 123.872 105.008 128.905C105.083 133.833 101.656 137.965 96.5304 138.04C91.4497 138.115 87.9774 134.193 87.9023 129.16ZM117.033 120.145L123.031 120.055L97.8081 155.634L91.8105 155.724L117.033 120.145ZM99.7321 128.995C99.7021 126.636 98.3643 124.593 96.35 124.608C94.2306 124.638 93.1633 126.666 93.1934 129.085C93.2235 131.444 94.5613 133.487 96.5755 133.472C98.695 133.427 99.7622 131.354 99.7321 128.995ZM109.803 146.859C109.728 141.871 113.155 137.799 118.281 137.724C123.362 137.649 126.849 141.571 126.909 146.604C126.984 151.532 123.557 155.664 118.431 155.739C113.351 155.814 109.878 151.892 109.803 146.859ZM121.633 146.694C121.603 144.335 120.265 142.292 118.251 142.307C116.132 142.337 115.064 144.365 115.094 146.784C115.124 149.143 116.462 151.186 118.477 151.171C120.596 151.141 121.663 149.053 121.633 146.694Z" fill="white"/>
<path d="M107.579 167.398C105.79 167.368 103.505 166.601 102.784 166.241C101.551 165.625 100.92 165.024 100.92 165.024L101.115 163.852L101.341 162.455C101.341 162.455 101.476 162.44 101.701 162.41C101.927 162.38 102.242 162.365 102.618 162.349C102.618 162.349 103.204 162.53 103.685 162.094C104.166 161.658 105.068 161.373 105.745 161.523C106.421 161.688 107.864 161.538 107.924 161.764C108.045 162.334 105.925 162.229 105.67 162.59C105.444 162.92 105.655 163.131 105.685 163.176C105.685 163.176 105.685 163.176 105.7 163.176C106.932 164.423 111.201 164.874 111.036 165.865C110.946 166.256 108.33 167.413 107.579 167.398Z" fill="#FFB27D"/>
<path d="M64.3779 141.045C64.3779 141.045 74.1484 163.612 78.5076 165.76C82.8667 167.909 102.784 166.241 102.784 166.241L102.919 162.395C102.919 162.395 85.7678 158.999 84.1143 156.189C82.4609 153.38 79.68 136.116 75.2908 134.374C70.8866 132.616 64.2125 134.884 64.3779 141.045Z" fill="#2B478B"/>
<path d="M409.713 201.444C409.503 201.579 409.277 201.699 409.052 201.819C408.977 201.864 408.902 201.909 408.827 201.939C408.646 202.03 408.481 202.12 408.3 202.21C399.943 206.312 389.751 203.156 385.212 194.923C380.883 187.065 383.213 177.344 390.323 172.236C390.894 171.83 391.48 171.454 392.111 171.109C392.337 170.989 392.562 170.868 392.788 170.748C393.013 170.643 393.239 170.538 393.449 170.433C394.141 170.132 394.832 169.862 395.539 169.651C396.591 169.336 397.643 169.126 398.71 169.005C402.017 168.66 405.339 169.261 408.285 170.703C411.412 172.236 414.118 174.7 415.921 177.99C420.491 186.254 417.695 196.591 409.713 201.444Z" fill="#FFB93E"/>
<path d="M400.694 202.631C394.862 202.631 389.496 199.46 386.685 194.367C384.626 190.626 384.145 186.314 385.332 182.212C386.52 178.11 389.225 174.715 392.968 172.656C395.328 171.349 397.989 170.673 400.664 170.673C406.497 170.673 411.863 173.843 414.674 178.937C416.733 182.678 417.214 186.99 416.027 191.092C414.839 195.193 412.133 198.589 408.391 200.647C406.031 201.939 403.37 202.631 400.694 202.631ZM400.664 171.62C398.139 171.62 395.644 172.266 393.419 173.483C389.902 175.421 387.346 178.606 386.234 182.467C385.122 186.329 385.573 190.385 387.512 193.886C390.157 198.679 395.208 201.654 400.679 201.654C403.205 201.654 405.7 201.008 407.925 199.791C411.442 197.853 413.997 194.667 415.11 190.806C416.222 186.945 415.771 182.888 413.832 179.387C411.202 174.61 406.151 171.62 400.664 171.62Z" fill="#FFA412"/>
<path d="M400.679 174.88L404.212 182.032L412.088 183.174L406.376 188.733L407.729 196.576L400.679 192.865L393.63 196.576L394.982 188.733L389.27 183.174L397.162 182.032L400.679 174.88Z" fill="#FFA412"/>
<path d="M420.22 158.774C420.1 158.849 419.98 158.924 419.845 158.984C419.8 159.014 419.754 159.029 419.709 159.059C419.604 159.104 419.514 159.164 419.409 159.209C414.689 161.523 408.947 159.75 406.376 155.108C403.926 150.675 405.249 145.191 409.262 142.307C409.578 142.081 409.924 141.856 410.27 141.675C410.39 141.6 410.525 141.54 410.66 141.48C410.781 141.42 410.916 141.36 411.036 141.3C411.427 141.135 411.818 140.984 412.209 140.864C412.795 140.684 413.396 140.564 413.997 140.504C415.861 140.308 417.74 140.654 419.409 141.465C421.167 142.322 422.701 143.719 423.723 145.567C426.308 150.209 424.73 156.039 420.22 158.774Z" fill="#FFB93E"/>
<path d="M415.125 159.435C411.833 159.435 408.812 157.647 407.218 154.777C406.061 152.674 405.79 150.24 406.452 147.926C407.128 145.612 408.646 143.704 410.766 142.532C412.103 141.796 413.607 141.405 415.11 141.405C418.402 141.405 421.423 143.193 423.016 146.063C424.174 148.166 424.444 150.6 423.783 152.914C423.122 155.228 421.588 157.136 419.469 158.308C418.146 159.059 416.643 159.435 415.125 159.435ZM415.11 141.946C413.682 141.946 412.269 142.307 411.021 142.998C409.037 144.094 407.594 145.897 406.963 148.061C406.331 150.225 406.587 152.523 407.684 154.507C409.172 157.211 412.028 158.894 415.125 158.894C416.553 158.894 417.966 158.533 419.213 157.842C421.198 156.745 422.641 154.942 423.272 152.779C423.903 150.6 423.648 148.316 422.55 146.333C421.062 143.629 418.206 141.946 415.11 141.946Z" fill="#FFA412"/>
<path d="M415.125 143.779L417.109 147.82L421.558 148.467L418.342 151.592L419.108 156.024L415.125 153.935L411.141 156.024L411.908 151.592L408.691 148.467L413.141 147.82L415.125 143.779Z" fill="#FFA412"/>
<path d="M250.424 30.5531C250.349 30.6432 250.273 30.7334 250.198 30.8085C250.168 30.8386 250.153 30.8686 250.123 30.8987C250.063 30.9588 250.003 31.0339 249.943 31.094C246.997 34.0989 242.186 34.2942 239 31.4546C235.963 28.7501 235.497 24.2578 237.767 21.0125C237.948 20.757 238.143 20.5016 238.353 20.2612C238.429 20.1711 238.504 20.096 238.594 20.0058C238.669 19.9307 238.744 19.8405 238.834 19.7654C239.075 19.525 239.345 19.3147 239.601 19.1193C240.007 18.8339 240.428 18.5785 240.864 18.3681C242.217 17.7221 243.735 17.4817 245.208 17.6469C246.771 17.8272 248.289 18.4733 249.567 19.6001C252.739 22.4548 253.084 27.2777 250.424 30.5531Z" fill="#CDE0FB"/>
<path d="M244.336 32.822C242.562 32.822 240.879 32.1759 239.541 30.9889C238.098 29.7118 237.241 27.9389 237.136 26.0158C237.031 24.0926 237.677 22.2296 238.955 20.8022C240.232 19.3599 242.006 18.5035 243.93 18.3983C245.854 18.2931 247.718 18.9392 249.146 20.2163C250.574 21.4934 251.446 23.2663 251.551 25.1894C251.656 27.1126 251.01 28.9756 249.732 30.403C248.455 31.8454 246.681 32.7018 244.757 32.8069C244.622 32.822 244.471 32.822 244.336 32.822ZM244.351 18.804C244.216 18.804 244.08 18.804 243.945 18.819C242.126 18.9242 240.473 19.7205 239.27 21.0877C238.068 22.4399 237.451 24.1828 237.557 26.0008C237.662 27.8187 238.459 29.4715 239.826 30.6734C241.179 31.8754 242.923 32.4914 244.742 32.3862C246.561 32.2811 248.214 31.4848 249.417 30.1175C250.619 28.7653 251.235 27.0224 251.13 25.2045C251.025 23.3865 250.228 21.7338 248.86 20.5318C247.613 19.42 246.02 18.804 244.351 18.804Z" fill="#AFCDFB"/>
<path d="M242.577 20.5918L245.148 23.1009L248.68 22.4098L247.087 25.625L248.846 28.7802L245.283 28.2544L242.833 30.8987L242.217 27.3529L238.955 25.8354L242.141 24.1677L242.577 20.5918Z" fill="#AFCDFB"/>
<path d="M227.23 243.978C227.095 244.144 226.974 244.294 226.824 244.444C226.779 244.489 226.734 244.549 226.689 244.594C226.584 244.715 226.478 244.82 226.358 244.94C221.097 250.304 212.499 250.649 206.817 245.601C201.406 240.778 200.564 232.755 204.608 226.955C204.923 226.49 205.284 226.039 205.66 225.618C205.795 225.468 205.945 225.318 206.081 225.168C206.216 225.017 206.366 224.882 206.501 224.747C206.937 224.326 207.403 223.951 207.884 223.59C208.591 223.064 209.357 222.628 210.124 222.253C212.544 221.096 215.235 220.66 217.88 220.976C220.676 221.306 223.397 222.463 225.652 224.461C231.364 229.51 231.995 238.134 227.23 243.978Z" fill="#CDE0FB"/>
<path d="M216.362 248.035C213.19 248.035 210.184 246.893 207.794 244.76C205.224 242.461 203.691 239.306 203.495 235.865C203.3 232.424 204.457 229.119 206.742 226.535C209.027 223.951 212.198 222.433 215.641 222.238C219.083 222.042 222.39 223.199 224.975 225.483C227.546 227.782 229.079 230.937 229.274 234.378C229.47 237.818 228.312 241.124 226.027 243.708C223.743 246.292 220.571 247.81 217.129 248.005C216.858 248.02 216.618 248.035 216.362 248.035ZM216.392 223.004C216.152 223.004 215.911 223.004 215.671 223.019C212.439 223.199 209.463 224.642 207.313 227.061C205.164 229.48 204.066 232.59 204.262 235.835C204.457 239.08 205.885 242.04 208.305 244.189C210.725 246.337 213.837 247.434 217.084 247.239C220.315 247.058 223.292 245.616 225.441 243.197C227.591 240.778 228.688 237.668 228.493 234.423C228.312 231.192 226.869 228.218 224.449 226.069C222.209 224.071 219.368 223.004 216.392 223.004Z" fill="#AFCDFB"/>
<path d="M213.206 226.174L217.82 230.667L224.118 229.42L221.278 235.189L224.404 240.793L218.046 239.862L213.672 244.579L212.589 238.239L206.757 235.55L212.454 232.56L213.206 226.174Z" fill="#AFCDFB"/>
<path d="M428.548 250.259H14.8639C14.6083 250.259 14.3979 250.048 14.3979 249.793V249.628C14.3979 249.372 14.6083 249.162 14.8639 249.162H428.548C428.803 249.162 429.014 249.372 429.014 249.628V249.793C429.029 250.048 428.818 250.259 428.548 250.259Z" fill="#2E3552"/>
<path d="M271.618 152.689C271.618 152.689 269.664 154.026 267.47 153.8C265.846 153.635 264.253 152.133 264.193 152.042L262.9 154.281C262.9 154.281 265.846 156.069 268.386 155.573C269.168 155.423 270.416 154.657 270.987 154.071C271.603 153.455 271.618 152.689 271.618 152.689Z" fill="#6BB7BF"/>
<path d="M271.558 148.016L274.805 146.679C274.805 146.679 274.354 153.41 268.792 155.468C268.792 155.468 272.31 150.856 271.558 148.016Z" fill="#86D1CD"/>
<path d="M294.316 228.533C294.316 228.533 295.729 230.141 297.127 230.111C297.127 230.111 297.307 231.868 296.811 232.334C296.811 232.334 294.421 231.899 293.85 231.027C293.835 231.012 293.354 228.924 294.316 228.533Z" fill="#F99746"/>
<path d="M272.099 206.492C272.099 206.492 270.822 204.929 270.837 203.081C270.852 201.699 271.994 200.241 272.069 200.181L270.07 199.265C270.07 199.265 268.777 201.894 269.394 203.998C269.574 204.644 270.326 205.65 270.867 206.086C271.453 206.552 272.099 206.492 272.099 206.492Z" fill="#CDE0FB"/>
<path d="M276.038 206.086L277.421 208.73C277.421 208.73 271.693 208.866 269.514 204.328C269.529 204.313 273.693 206.943 276.038 206.086Z" fill="#CDE0FB"/>
<path d="M92.1713 61.6241C91.8556 61.5189 91.2393 61.7293 91.2543 62.2401C91.2994 63.2017 91.2694 64.9596 89.5408 65.861C85.9332 67.7241 76.824 62.6458 73.6524 59.4455C74.5543 57.6275 75.4411 51.4224 75.2457 47.1854C75.0503 42.9485 71.9989 39.4928 69.8644 46.5844C67.7299 53.6911 70.4957 62.9312 70.4957 62.9312C70.4957 62.9312 68.8573 60.3019 67.2189 56.0349C67.1888 50.7162 67.3241 36.3977 67.279 31.725C67.2339 26.241 62.033 25.5649 61.0108 30.8837C59.5227 38.6214 62.3637 48.7329 65.3399 56.3054C65.5353 65.1699 65.8961 73.2081 65.4301 73.2231C64.5132 73.2532 62.6493 62.5256 62.3486 59.8963C61.8676 55.8997 58.0045 55.494 57.0725 61.1433C55.7197 69.4369 56.3059 80.3148 56.3059 80.3148C54.6224 75.0712 53.6604 68.1899 53.5401 66.0113C53.4499 64.3135 51.556 64.8394 51.586 66.6724C51.6161 68.0847 52.052 72.6221 52.8637 76.6788C52.6984 80.3148 52.2023 88.7135 51.09 88.7586C49.662 88.8187 49.5417 77.5202 49.9626 76.4084C48.5045 75.3566 47.1216 76.9943 46.7609 80.4049C46.4001 83.8155 45.7838 95.4746 43.4539 96.0906C41.124 96.7217 40.2372 90.4113 40.7933 83.8606C41.4096 76.5586 44.0251 75.2364 44.0853 77.1295C44.1754 79.4433 44.4009 79.7438 44.8519 79.7889C45.2878 79.819 46.1596 79.3231 45.9191 77.0394C45.6786 74.7556 43.6193 73.2532 41.3946 74.6505C39.2301 76.0027 37.6367 82.6286 38.1478 89.585C38.0125 93.7769 38.3733 104.204 37.1106 104.219C35.6525 104.219 34.45 93.5214 34.0141 90.9372C33.5782 88.353 31.9097 85.0175 30.1209 88.5032C28.1668 92.3195 27.9113 99.967 27.9564 107.705C23.6423 89.4197 21.4778 77.7906 20.7412 73.5837C29.0837 64.1933 38.8543 55.9899 48.6549 51.7379C49.7822 51.2421 50.2783 51.0317 50.0077 50.1152C49.7071 49.1086 49.4365 49.0485 47.8432 49.4692C43.8297 50.5509 32.3907 57.0115 20.2301 70.6239C19.7642 68.1147 19.3884 66.9278 18.4714 67.2133C17.4192 67.5288 17.1036 67.3635 17.7349 71.7056C17.795 72.1564 17.8852 72.6672 17.9754 73.2382C16.8029 74.6204 15.6305 76.0778 14.473 77.6103C14.1123 75.3266 13.6914 74.6805 13.0901 74.6204C12.7444 74.5753 12.1131 74.8007 11.7223 74.8909C10.174 75.2815 10.7753 79.0978 11.3314 81.8773C7.72386 87.0007 4.20647 92.7852 0.94462 99.3059C0.493673 100.207 0.719146 100.583 1.18513 100.823C1.56091 101.034 2.17721 100.838 2.62816 99.9219C5.04824 95.084 8.20487 89.8704 11.9026 84.6869C13.1202 90.7268 16.2768 105.992 19.3282 113.805C22.8005 122.684 24.905 121.993 25.5513 121.197C25.9421 120.731 25.4912 120.055 24.9801 120.16C24.469 120.28 22.1842 115.863 20.7111 111.16C19.3583 106.878 16.0965 88.5933 14.909 80.6453C16.0664 79.1428 17.2689 77.6554 18.5015 76.198C20.0047 84.4616 22.9058 98.3894 24.3939 103.212C26.1977 109.102 26.9943 112.708 28.257 112.828C29.5197 112.948 29.9255 111.506 29.9255 109.493C29.9255 107.479 30.2412 99.0054 30.4967 95.5197C30.7522 92.034 31.5189 89.2544 31.9698 92.0941C32.4207 94.9337 33.4128 106.277 36.9002 106.518C39.2752 106.683 39.7562 100.388 39.8163 96.3761C40.5979 97.6532 41.7554 98.6148 43.4539 98.3293C46.6557 97.7884 48.0987 86.3246 48.1738 84.5367C48.6849 89.5699 49.8574 90.7268 51.1501 90.7419C52.518 90.7419 54.0963 86.7453 54.1414 81.3965C56.2308 87.0759 58.6659 86.3396 58.1849 81.1561C57.6738 75.597 58.4104 59.6709 59.5828 59.2502C60.4546 58.9497 60.9206 63.8327 61.5219 67.5288C62.1232 71.2248 63.1603 75.9276 65.6856 75.4468C66.9784 75.2064 67.4744 72.547 67.6097 69.3768C67.7299 66.7625 67.5947 63.6674 67.4443 61.3086C69.7893 66.3569 71.3225 68.28 71.6081 68.6556C71.9538 69.1064 72.2845 69.6022 73.0361 69.1965C73.7275 68.8059 73.8929 68.5505 73.6524 67.9946C72.3597 64.8694 70.7062 58.4539 70.7964 51.1219C70.8866 43.7898 73.0661 41.9719 73.5622 47.6211C74.1184 54.0216 71.548 59.9564 71.548 59.9564C71.548 59.9564 75.9221 64.9596 83.4379 67.4837C91.8105 70.2933 92.9379 63.8778 92.9379 62.9763C93.0281 61.8945 92.517 61.7443 92.1713 61.6241ZM64.2576 28.9605C65.866 28.645 65.3549 34.1891 65.2497 45.9233C65.2347 47.2155 65.2347 48.5677 65.2497 49.9349C61.1912 35.1657 62.7244 29.261 64.2576 28.9605Z" fill="#2B478B"/>
<path d="M130.577 26.2862C128.939 26.4815 118.777 28.6751 107.188 34.7601C107.173 30.2076 106.722 26.3012 106.692 24.6335C106.647 20.9975 107.278 13.9209 107.639 12.6288C108 11.3517 106.181 11.7424 105.76 12.3584C105.324 12.9894 104.738 14.2965 104.452 15.4985C103.159 20.682 98.3042 32.7017 97.8532 33.483C97.4023 34.2643 96.1847 36.2776 95.839 33.498C95.4933 30.7185 97.1918 18.9692 97.282 17.3165C97.3722 15.6638 95.7037 15.5135 93.945 16.9409C92.1863 18.3682 88.6238 23.3113 86.8802 25.4899C85.1365 27.6685 83.3929 28.6451 83.1223 28.3596C82.8517 28.0741 82.2504 27.6535 81.8145 28.0291C81.3786 28.4047 81.3185 29.0658 81.6492 29.5315C81.9799 29.9973 82.8367 31.2143 85.1215 29.4714C87.4063 27.7286 92.3066 21.3731 93.7496 19.5101C95.1776 17.647 95.5835 18.1729 95.343 19.8707C94.8018 23.6118 93.6744 31.3044 94.0352 34.099C94.2607 35.8118 95.3429 36.3377 96.816 36.3677C100.228 36.4278 104.542 20.9825 104.542 20.9825C104.678 24.7837 105.174 30.2978 104.993 35.9621C79.4245 50.4759 95.6736 65.0047 103.926 51.0769C106.316 47.0352 107.053 41.5512 107.173 36.5631C115.876 32.0106 126.819 28.63 130.412 27.969C131.268 27.8187 131.93 27.5333 131.84 27.0374C131.734 26.5416 131.599 26.166 130.577 26.2862ZM102.092 50.4759C96.1847 62.8111 83.8889 50.2655 104.888 37.8251C104.632 42.3025 103.866 46.7798 102.092 50.4759Z" fill="#2B478B"/>
<path d="M139.461 3.22327C137.522 6.18312 134.921 15.859 132.08 15.874C129.239 15.889 129.435 8.73731 129.931 5.65726C130.427 2.56218 131.329 0.383608 130.351 0.203312C129.374 0.0380407 128.788 0.338533 127.781 4.99617C126.774 9.65381 124.279 20.141 122.039 19.8706C119.799 19.6001 119.889 13.2748 120.325 11.2615C120.761 9.24815 122.4 5.0112 121.047 4.8309C119.784 4.66563 119.288 5.67228 118.341 11.2164C117.89 13.8156 115.395 25.8804 111.938 26.9472C108.481 28.0139 110.57 15.889 111.787 13.0644C113.005 10.2398 115.004 10.1647 114.989 13.5602C114.974 16.9558 114.628 17.6469 114.403 18.308C114.177 18.9691 114.268 19.2996 114.719 19.4198C115.17 19.54 115.651 19.525 116.071 18.4432C116.492 17.3615 117.545 12.1329 115.515 10.1496C113.486 8.16637 110.825 9.84913 109.307 14.8073C107.789 19.7654 107.473 27.443 111.156 28.2543C114.839 29.0657 117.965 20.3964 118.522 17.3014C119.108 20.5317 121.242 22.7102 123.768 21.0575C126.308 19.4048 127.931 11.3816 127.931 11.3816C127.931 11.3816 128.247 17.3314 131.915 17.7821C135.582 18.2329 139.355 6.99445 140.062 4.9511C140.663 3.22327 141.986 2.83263 142.542 3.77918C142.903 4.39519 143.339 4.0947 143.579 3.8543C143.82 3.61391 143.865 3.10307 143.429 2.51711C142.963 1.91612 141.4 0.263411 139.461 3.22327Z" fill="#2B478B"/>
</svg>
