<svg width="40" height="40" viewBox="0 0 40 40" fill="none" xmlns="http://www.w3.org/2000/svg">
<path d="M16.8779 16.4927C14.762 16.4927 13.5679 18.3884 13.3538 20.1497C13.2052 21.3724 12.8097 22.586 12.4351 23.5239H16.8779C18.8165 23.5239 20.3936 21.9468 20.3936 20.0083C20.3936 18.0698 18.8165 16.4927 16.8779 16.4927Z" fill="white"/>
<path d="M38.8281 1.63232H1.17188C0.524687 1.63232 0 2.15701 0 2.8042V23.524H9.8807C10.2524 22.7299 10.8562 21.2726 11.0271 19.8669C11.2138 18.3313 11.8546 16.92 12.8315 15.8932C13.9015 14.7684 15.3386 14.149 16.878 14.149C17.1591 14.149 17.4354 14.1701 17.7061 14.2086L24.565 7.34959C25.2289 6.68553 26.1118 6.31982 27.0509 6.31982C27.9899 6.31982 28.8728 6.68553 29.5368 7.34967C30.2007 8.01357 30.5666 8.89646 30.5666 9.83545C30.5666 10.7745 30.2007 11.6573 29.5366 12.3214L22.6777 19.1804C22.7161 19.451 22.7373 19.7272 22.7373 20.0083C22.7373 21.3264 22.2995 22.544 21.5623 23.524H40V2.8042C40 2.15693 39.4752 1.63232 38.8281 1.63232Z" fill="white"/>
<path d="M21.7641 16.7794L27.8794 10.664C28.1008 10.4426 28.2227 10.1483 28.2227 9.83545C28.2227 9.52248 28.1008 9.22826 27.8794 9.00693C27.658 8.78545 27.3637 8.66357 27.0508 8.66357C26.7378 8.66357 26.4436 8.78545 26.2223 9.00678L20.1069 15.1222C20.764 15.558 21.3284 16.1222 21.7641 16.7794Z" fill="white"/>
<path d="M0 30.1646C0 30.8117 0.524687 31.3364 1.17188 31.3364H38.8281C39.4752 31.3364 40 30.8117 40 30.1646V25.8677H0V30.1646Z" fill="white"/>
<path d="M25.8594 36.0239H24.6875V33.6802H15.3125V36.0239H14.1406C13.4934 36.0239 12.9688 36.5486 12.9688 37.1958C12.9688 37.843 13.4934 38.3677 14.1406 38.3677H25.8594C26.5065 38.3677 27.0312 37.843 27.0312 37.1958C27.0312 36.5486 26.5065 36.0239 25.8594 36.0239Z" fill="white"/>
</svg>
