<svg width="17" height="17" viewBox="0 0 17 17" fill="none" xmlns="http://www.w3.org/2000/svg">
<g clip-path="url(#clip0)">
<path d="M11.7782 9.03125H5.22201C5.12884 9.03125 5.05357 9.10802 5.05596 9.20115C5.07579 9.96967 5.12785 10.7038 5.20704 11.398C5.21843 11.4979 5.31488 11.5653 5.4123 11.5405C6.41464 11.2852 7.44758 11.1562 8.50009 11.1562C9.5526 11.1562 10.5855 11.2852 11.5879 11.5405C11.6853 11.5653 11.7818 11.4979 11.7931 11.398C11.8723 10.7038 11.9244 9.96964 11.9442 9.20115C11.9466 9.10802 11.8713 9.03125 11.7782 9.03125Z" fill="#276EF1"/>
<path d="M11.7931 5.60204C11.7818 5.50217 11.6853 5.4347 11.5879 5.4595C10.5855 5.7149 9.5526 5.84383 8.50009 5.84383C7.44759 5.84383 6.41464 5.7149 5.4123 5.45953C5.31492 5.43473 5.21843 5.5022 5.20704 5.60208C5.12785 6.29629 5.07579 7.03044 5.05596 7.79893C5.05357 7.89209 5.12881 7.96883 5.22201 7.96883H11.7781C11.8713 7.96883 11.9466 7.89206 11.9442 7.79893C11.9244 7.03041 11.8723 6.29625 11.7931 5.60204Z" fill="#276EF1"/>
<path d="M11.588 4.20086C11.2905 2.55481 10.8345 1.20487 10.3082 0.250883C10.2848 0.208383 10.2437 0.1784 10.1961 0.168805C9.64376 0.0575078 9.07642 0 8.50014 0C7.92387 0 7.35653 0.0575078 6.80419 0.168838C6.75661 0.178434 6.71551 0.208416 6.69207 0.250916C6.1658 1.20487 5.70982 2.55481 5.41232 4.20089C5.39708 4.28516 5.44891 4.36771 5.53159 4.38998C6.47854 4.64505 7.47374 4.78125 8.50014 4.78125C9.52655 4.78125 10.5217 4.64505 11.4687 4.38995C11.5514 4.3677 11.6032 4.28513 11.588 4.20086Z" fill="#276EF1"/>
<path d="M12.0332 0.764692C11.8979 0.702834 11.757 0.837904 11.8105 0.976693C11.8114 0.97915 11.8123 0.981607 11.8133 0.984065C12.1364 1.82424 12.3989 2.77806 12.5953 3.80958C12.615 3.91268 12.7247 3.97142 12.8218 3.93157C13.4753 3.66339 14.0986 3.33617 14.6851 2.95686C14.772 2.90071 14.7876 2.77962 14.7171 2.70392C14.6496 2.63144 14.5808 2.55992 14.5104 2.48953C13.7816 1.76062 12.9434 1.18086 12.0332 0.764692Z" fill="#276EF1"/>
<path d="M13.1729 7.96869H16.8047C16.902 7.96869 16.9783 7.88531 16.9703 7.78829C16.8529 6.36325 16.384 5.01026 15.6053 3.83058C15.5543 3.75338 15.4509 3.7325 15.3737 3.78347C14.7393 4.20259 14.0668 4.56334 13.3598 4.86237C13.2147 4.92373 13.0688 4.98213 12.9221 5.03775C12.8502 5.06504 12.8062 5.13746 12.8158 5.21386C12.9203 6.04722 12.985 6.91655 13.0071 7.80642C13.0094 7.8966 13.0827 7.96869 13.1729 7.96869Z" fill="#276EF1"/>
<path d="M5.41232 12.7991C5.70982 14.4452 6.1658 15.7951 6.69207 16.7491C6.71551 16.7916 6.75661 16.8216 6.80419 16.8312C7.35653 16.9425 7.92387 17 8.50014 17C9.07642 17 9.64376 16.9425 10.1961 16.8312C10.2437 16.8216 10.2848 16.7916 10.3082 16.7491C10.8345 15.7951 11.2905 14.4452 11.588 12.7991C11.6032 12.7148 11.5514 12.6323 11.4687 12.61C10.5217 12.3549 9.52655 12.2188 8.50014 12.2188C7.47374 12.2188 6.47854 12.3549 5.53159 12.61C5.44891 12.6323 5.39708 12.7149 5.41232 12.7991Z" fill="#276EF1"/>
<path d="M3.64041 12.1375C3.78545 12.0762 3.93134 12.0178 4.07803 11.9622C4.15002 11.9349 4.19401 11.8624 4.18441 11.786C4.07989 10.9527 4.01514 10.0834 3.99303 9.19348C3.99077 9.10333 3.91749 9.03125 3.82731 9.03125H0.195491C0.0981393 9.03125 0.0218718 9.11462 0.0298737 9.21164C0.147247 10.6367 0.616241 11.9897 1.39492 13.1694C1.44585 13.2465 1.54931 13.2674 1.62648 13.2165C2.26089 12.7973 2.93339 12.4366 3.64041 12.1375Z" fill="#276EF1"/>
<path d="M14.6851 14.0432C14.0986 13.6639 13.4753 13.3366 12.8218 13.0685C12.7247 13.0286 12.615 13.0874 12.5953 13.1905C12.3989 14.222 12.1364 15.1758 11.8133 16.016C11.8123 16.0184 11.8114 16.0209 11.8105 16.0234C11.757 16.1621 11.8979 16.2972 12.0332 16.2354C12.9434 15.8192 13.7816 15.2394 14.5105 14.5105C14.5809 14.4401 14.6497 14.3686 14.7171 14.2961C14.7876 14.2204 14.7719 14.0993 14.6851 14.0432Z" fill="#276EF1"/>
<path d="M13.0071 9.19351C12.985 10.0834 12.9203 10.9527 12.8158 11.7861C12.8062 11.8625 12.8502 11.9349 12.9221 11.9622C13.0688 12.0178 13.2147 12.0762 13.3598 12.1376C14.0668 12.4366 14.7393 12.7974 15.3737 13.2165C15.4509 13.2674 15.5543 13.2465 15.6053 13.1694C16.3839 11.9897 16.8529 10.6367 16.9703 9.21164C16.9783 9.11462 16.902 9.03125 16.8047 9.03125H13.1729C13.0827 9.03128 13.0094 9.10337 13.0071 9.19351Z" fill="#276EF1"/>
<path d="M2.31486 2.95686C2.9014 3.33617 3.52465 3.66342 4.17816 3.93157C4.27524 3.97142 4.38501 3.91268 4.40463 3.80958C4.60106 2.77806 4.86353 1.82424 5.1867 0.984065C5.18763 0.981608 5.18859 0.979151 5.18952 0.976694C5.24301 0.837904 5.10207 0.702834 4.9668 0.764692C4.05657 1.18089 3.21842 1.76065 2.48951 2.48953C2.41912 2.55992 2.35029 2.63144 2.28282 2.70392C2.2124 2.77962 2.22804 2.90072 2.31486 2.95686Z" fill="#276EF1"/>
<path d="M3.98948 7.96868C4.00744 7.02223 4.07358 6.09778 4.18441 5.21385C4.19401 5.13745 4.15002 5.06503 4.07803 5.03774C3.93134 4.98212 3.78545 4.92372 3.64041 4.86236C2.93339 4.5633 2.26089 4.20255 1.62648 3.78346C1.54931 3.73249 1.44589 3.75341 1.39492 3.83057C0.616241 5.01025 0.147247 6.36324 0.0298737 7.78829C0.0218718 7.88531 0.0981393 7.96868 0.195491 7.96868H3.98948Z" fill="#276EF1"/>
<path d="M4.96705 16.2351C5.10232 16.297 5.24326 16.1619 5.18977 16.0231C5.18884 16.0207 5.18788 16.0182 5.18695 16.0157C4.86382 15.1756 4.60132 14.2217 4.40489 13.1902C4.38526 13.0871 4.27549 13.0284 4.17841 13.0682C3.5249 13.3364 2.90165 13.6636 2.31511 14.0429C2.22825 14.0991 2.21265 14.2202 2.2831 14.2959C2.35057 14.3684 2.4194 14.4399 2.48979 14.5103C3.21864 15.2392 4.05678 15.8189 4.96705 16.2351Z" fill="#276EF1"/>
</g>
<defs>
<clipPath id="clip0">
<rect width="17" height="17" fill="white"/>
</clipPath>
</defs>
</svg>
