<svg width="217" height="204" viewBox="0 0 217 204" fill="none" xmlns="http://www.w3.org/2000/svg">
<g opacity="0.8">
<path d="M31.8263 187.862C74.0783 208.55 142.578 208.555 184.83 187.862C227.082 167.168 227.077 133.622 184.83 112.929C142.583 92.2351 74.0783 92.2351 31.8263 112.929C-10.4258 133.622 -10.4206 167.168 31.8263 187.862Z" fill="#D7EDFF"/>
</g>
<path d="M185.411 174.324C196.684 174.324 205.823 170.67 205.823 166.162C205.823 161.654 196.684 158 185.411 158C174.138 158 165 161.654 165 166.162C165 170.67 174.138 174.324 185.411 174.324Z" fill="#0963AF"/>
<path d="M101.052 94.139L81.559 105.373C80.7668 105.889 80.2073 106.694 79.9991 107.615L75.153 135.536C75.0972 135.97 75.1651 136.41 75.3491 136.807C75.5331 137.203 75.8256 137.54 76.193 137.778L88.7656 145.042C89.1692 145.244 89.6143 145.349 90.0655 145.349C90.5168 145.349 90.9618 145.244 91.3654 145.042L118.237 129.559C118.632 129.349 118.962 129.036 119.192 128.654C119.423 128.271 119.544 127.833 119.544 127.387C119.544 126.941 119.423 126.503 119.192 126.12C118.962 125.738 118.632 125.425 118.237 125.215L108.597 119.627C108.209 119.373 107.879 119.041 107.626 118.652C107.374 118.264 107.205 117.827 107.131 117.37L104.957 96.2976C104.892 95.8545 104.736 95.4296 104.498 95.05C104.26 94.6704 103.945 94.3442 103.574 94.0923C103.18 93.9017 102.746 93.8066 102.308 93.8147C101.869 93.8228 101.439 93.9339 101.052 94.139Z" fill="#263238"/>
<path d="M90.0708 140.113V145.333C90.527 145.342 90.978 145.235 91.3811 145.022L118.253 129.538C118.627 129.305 118.941 128.987 119.169 128.61C119.396 128.233 119.531 127.808 119.563 127.369C119.534 126.856 119.353 126.363 119.043 125.952H114.644L90.0708 140.113Z" fill="#455A64"/>
<path d="M103.507 95.5504L84.008 106.79C83.2158 107.306 82.6563 108.11 82.4481 109.031L78.044 134.374C77.989 134.808 78.0573 135.249 78.2412 135.646C78.425 136.043 78.7171 136.381 79.0839 136.621L88.75 142.188C89.1536 142.39 89.5987 142.495 90.0499 142.495C90.5012 142.495 90.9462 142.39 91.3498 142.188L118.253 126.684C118.981 126.269 118.981 125.594 118.253 125.174L108.597 119.627C108.209 119.373 107.879 119.041 107.626 118.652C107.374 118.264 107.205 117.827 107.131 117.37L104.957 96.2976C104.96 96.1281 104.916 95.9611 104.829 95.8155C104.742 95.6699 104.616 95.5515 104.465 95.4737C104.314 95.3959 104.144 95.3619 103.975 95.3755C103.805 95.389 103.643 95.4496 103.507 95.5504Z" fill="#263238"/>
<path d="M118.253 125.195L108.597 119.627C108.208 119.384 107.879 119.056 107.635 118.667L78.2261 135.609C78.4047 136.027 78.7078 136.381 79.0944 136.621L88.7605 142.189C89.1641 142.39 89.6091 142.495 90.0604 142.495C90.5116 142.495 90.9567 142.39 91.3603 142.189L118.253 126.684C118.996 126.29 118.996 125.615 118.253 125.195Z" fill="#37474F"/>
<path d="M39.0834 149.671L37.8355 148.95C37.3011 148.603 36.8563 148.135 36.5374 147.584C36.2184 147.033 36.0343 146.415 36 145.779V62.2376C36.0343 61.603 36.2185 60.9855 36.5374 60.4354C36.8564 59.8853 37.3012 59.4183 37.8355 59.0724L140.143 0.43757C140.712 0.149903 141.341 0 141.979 0C142.616 0 143.245 0.149903 143.814 0.43757L144.766 0.956462C145.3 1.30378 145.744 1.77185 146.063 2.3227C146.382 2.87355 146.566 3.49167 146.601 4.12689V87.7204C146.567 88.3558 146.383 88.974 146.064 89.525C145.745 90.0759 145.3 90.5439 144.766 90.8909L42.7543 149.671C42.185 149.957 41.5564 150.107 40.9188 150.107C40.2813 150.107 39.6526 149.957 39.0834 149.671Z" fill="#455A64"/>
<path d="M43.373 64.3444L36.5407 60.406C36.2163 60.954 36.0373 61.5755 36.0208 62.2117V145.779C36.0551 146.415 36.2392 147.033 36.5581 147.584C36.8771 148.135 37.3218 148.603 37.8562 148.95L39.1041 149.671C39.6734 149.957 40.302 150.107 40.9396 150.107C41.5771 150.107 42.2058 149.957 42.7751 149.671L43.3938 149.308L43.373 64.3444Z" fill="#263238"/>
<path d="M40.9188 148.612V65.0708C40.9531 64.4355 41.1373 63.8172 41.4562 63.2663C41.7751 62.7154 42.2199 62.2474 42.7543 61.9004L144.766 3.0943C145.779 2.51315 146.601 2.98534 146.601 4.13209V87.7205C146.567 88.3558 146.383 88.974 146.064 89.525C145.745 90.0759 145.3 90.5439 144.766 90.8909L42.7543 149.671C41.7404 150.252 40.9188 149.78 40.9188 148.612Z" fill="#37474F"/>
<path d="M88.8385 117.463L98.5046 111.89C99.2273 111.475 99.8149 111.771 99.8149 112.555C99.7829 112.994 99.6475 113.419 99.4198 113.796C99.1922 114.172 98.8786 114.49 98.5046 114.724L88.8385 120.296C88.1106 120.712 87.5282 120.416 87.5282 119.632C87.5598 119.193 87.695 118.768 87.9227 118.391C88.1504 118.014 88.4642 117.696 88.8385 117.463Z" fill="#E0E0E0"/>
<path d="M45.6193 64.417L141.693 8.89554C142.27 8.56344 142.732 8.83327 142.732 9.49745V82.3551C142.713 82.7172 142.609 83.0697 142.429 83.3842C142.248 83.6988 141.996 83.9666 141.693 84.166L45.6193 139.521C45.0369 139.854 44.5793 139.584 44.5793 138.914V66.2695C44.592 65.9003 44.6929 65.5395 44.8739 65.2172C45.0548 64.8949 45.3104 64.6205 45.6193 64.417Z" fill="white"/>
<path d="M50.8719 67.5076L151.698 9.39167C153.299 8.47323 154.609 9.22562 154.609 11.0677V76.7335C154.583 77.2011 154.447 77.656 154.212 78.0615C153.977 78.467 153.65 78.812 153.257 79.0685L50.3519 138.362C49.6084 138.793 49 138.44 49 137.584V70.7455C49.0366 70.0973 49.225 69.4667 49.55 68.9044C49.8751 68.342 50.3279 67.8636 50.8719 67.5076Z" fill="#E0E0E0"/>
<path d="M154.609 12.5985V11.0833C154.609 9.24125 153.299 8.48885 151.698 9.40729L50.8719 67.5232C50.3279 67.8793 49.8751 68.3577 49.55 68.92C49.225 69.4823 49.0366 70.1129 49 70.7611V73.4594L154.609 12.5985Z" fill="#09B3EC"/>
<path d="M142.406 16.0542C142.115 16.2434 141.873 16.4985 141.699 16.7988C141.526 17.0991 141.426 17.436 141.408 17.7821C141.408 18.4204 141.855 18.6798 142.406 18.3633C142.698 18.1736 142.941 17.9177 143.116 17.6166C143.29 17.3154 143.391 16.9775 143.409 16.6302C143.409 15.992 142.962 15.7325 142.406 16.0542Z" fill="white"/>
<path d="M146.384 13.7867C146.099 13.9761 145.862 14.2288 145.691 14.525C145.521 14.8212 145.421 15.1528 145.401 15.4938C145.401 16.132 145.848 16.3915 146.404 16.0698C146.696 15.8797 146.939 15.6238 147.113 15.3228C147.288 15.0217 147.389 14.6839 147.408 14.3367C147.387 13.6984 146.961 13.4442 146.384 13.7867Z" fill="white"/>
<path d="M150.361 11.4724C150.069 11.661 149.826 11.9159 149.652 12.2162C149.477 12.5165 149.376 12.8537 149.358 13.2003C149.358 13.8386 149.805 14.098 150.361 13.7815C150.652 13.5909 150.894 13.3347 151.067 13.0337C151.241 12.7327 151.341 12.3951 151.36 12.0484C151.36 11.4102 150.912 11.1507 150.361 11.4724Z" fill="white"/>
<path d="M149.713 23.1277C149.63 22.8527 149.37 22.7645 149.063 22.9409L84.9417 59.8912C84.7391 60.019 84.5741 60.198 84.4633 60.4101L82.3523 59.1907C82.463 58.9786 82.6281 58.7996 82.8307 58.6718L146.952 21.7267C147.161 21.6193 147.393 21.5632 147.628 21.5632C147.863 21.5632 148.095 21.6193 148.304 21.7267L149.063 22.1626C149.231 22.2715 149.375 22.4131 149.487 22.579C149.599 22.7448 149.676 22.9314 149.713 23.1277Z" fill="#EBEBEB"/>
<path d="M149.739 23.3301V50.9818C149.727 51.2159 149.659 51.4437 149.542 51.6466C149.424 51.8495 149.26 52.0218 149.063 52.1493L84.9416 89.0945L84.8481 89.1412C84.808 89.158 84.7661 89.1702 84.7233 89.1775C84.4685 89.2138 84.2865 89.0322 84.2865 88.7001V61.038C84.2949 60.8034 84.3629 60.5749 84.4841 60.3738C84.5948 60.1617 84.7599 59.9827 84.9624 59.8549L149.084 22.9046C149.391 22.7281 149.651 22.8164 149.734 23.0914C149.737 23.1085 149.737 23.1261 149.734 23.1433C149.744 23.2051 149.745 23.2678 149.739 23.3301Z" fill="#FAFAFA"/>
<path d="M84.7026 89.1826C84.4957 89.2457 84.2779 89.2651 84.063 89.2397C83.8968 89.2253 83.7355 89.1758 83.5899 89.0944L82.8307 88.6585C82.6346 88.5301 82.4712 88.3576 82.3539 88.1548C82.2365 87.9521 82.1683 87.7247 82.1548 87.491V59.8392C82.1621 59.6045 82.2301 59.3757 82.3524 59.175L84.4634 60.3944C84.3422 60.5956 84.2743 60.8241 84.2658 61.0586V88.7052C84.2658 89.058 84.4478 89.2189 84.7026 89.1826Z" fill="#E0E0E0"/>
<path d="M111.699 79.1057C111.616 78.8307 111.351 78.7424 111.049 78.9189L84.9417 93.9667C84.7339 94.093 84.5634 94.272 84.4478 94.4856L82.3419 93.2559C82.4568 93.0433 82.6252 92.8645 82.8307 92.737L108.933 77.6891C109.142 77.5817 109.374 77.5256 109.609 77.5256C109.844 77.5256 110.076 77.5817 110.285 77.6891L111.049 78.125C111.217 78.2372 111.361 78.3817 111.473 78.5501C111.584 78.7184 111.661 78.9073 111.699 79.1057Z" fill="#EBEBEB"/>
<path d="M111.725 79.3083V99.6592C111.712 99.8925 111.645 100.12 111.528 100.322C111.412 100.525 111.249 100.698 111.054 100.827L86.3819 115.039L84.9468 115.869L84.8429 115.921C84.5205 116.035 84.2865 115.854 84.2865 115.475V95.1293C84.2934 94.9064 84.3559 94.6888 84.4685 94.4962C84.5841 94.2826 84.7546 94.1036 84.9624 93.9773L111.07 78.9295C111.371 78.753 111.636 78.8413 111.72 79.1163C111.72 79.1163 111.72 79.1474 111.72 79.1682C111.726 79.2146 111.728 79.2615 111.725 79.3083Z" fill="#FAFAFA"/>
<path d="M84.8222 115.926L84.739 115.957C84.7023 115.973 84.6639 115.983 84.6246 115.989C84.5668 116.004 84.5076 116.015 84.4478 116.02H84.271C84.1486 116.019 84.0265 116.005 83.9071 115.978C83.7963 115.953 83.6895 115.913 83.5899 115.859L82.8307 115.418C82.6337 115.29 82.4697 115.118 82.3522 114.915C82.2347 114.712 82.1671 114.484 82.1548 114.25V93.915C82.1626 93.6867 82.2269 93.4639 82.342 93.2664L84.4478 94.4961C84.3353 94.6887 84.2727 94.9063 84.2658 95.1292V115.48C84.2658 115.859 84.479 116.041 84.8222 115.926Z" fill="#E0E0E0"/>
<path d="M86.3768 112.087V98.5227C86.3858 98.3667 86.4314 98.2149 86.51 98.0797C86.5885 97.9445 86.6979 97.8296 86.8292 97.7444L88.0407 97.0439C88.2903 96.9038 88.4879 97.0439 88.4879 97.3033V110.852C88.4799 111.007 88.4353 111.159 88.3576 111.294C88.2799 111.429 88.1713 111.544 88.0407 111.63L86.8292 112.325C86.5588 112.491 86.3768 112.372 86.3768 112.087Z" fill="#09B3EC"/>
<path d="M90.6041 109.653V93.6556C90.6117 93.4998 90.6561 93.348 90.7338 93.2127C90.8116 93.0774 90.9204 92.9625 91.0513 92.8773L92.2784 92.1716C92.528 92.0315 92.7308 92.1716 92.7308 92.431V108.428C92.7231 108.585 92.678 108.737 92.5993 108.872C92.5206 109.008 92.4106 109.123 92.2784 109.207L91.0669 109.907C90.8017 110.058 90.6041 109.938 90.6041 109.653Z" fill="#09B3EC"/>
<path d="M94.8262 107.219V99.5399C94.8351 99.3838 94.8807 99.232 94.9593 99.0968C95.0379 98.9616 95.1472 98.8467 95.2785 98.7615L96.4901 98.0662C96.7344 97.9209 96.9372 98.0402 96.9372 98.3256V106C96.9305 106.156 96.8864 106.308 96.8086 106.444C96.7308 106.579 96.6216 106.694 96.4901 106.778L95.2785 107.479C95.029 107.624 94.8262 107.505 94.8262 107.219Z" fill="#09B3EC"/>
<path d="M99.0378 104.791V94.8335C99.0464 94.6774 99.0918 94.5255 99.1704 94.3902C99.249 94.2549 99.3586 94.1401 99.4902 94.0552L100.702 93.3547C100.951 93.2146 101.154 93.3287 101.154 93.6141V103.587C101.146 103.744 101.101 103.896 101.023 104.031C100.944 104.167 100.834 104.281 100.702 104.366L99.4902 105.066C99.251 105.196 99.0378 105.076 99.0378 104.791Z" fill="#09B3EC"/>
<path d="M103.276 102.357V98.969C103.284 98.8134 103.329 98.662 103.406 98.5268C103.484 98.3916 103.592 98.2765 103.723 98.1907L104.94 97.4902C105.184 97.3501 105.387 97.4642 105.387 97.7496V101.138C105.378 101.294 105.334 101.445 105.256 101.58C105.178 101.715 105.07 101.831 104.94 101.916L103.718 102.617C103.478 102.757 103.276 102.643 103.276 102.357Z" fill="#09B3EC"/>
<path d="M107.498 99.9238V88.7883C107.507 88.6323 107.552 88.4805 107.631 88.3453C107.709 88.2101 107.819 88.0952 107.95 88.01L109.162 87.3147C109.411 87.1694 109.614 87.3147 109.614 87.5741V98.7044C109.606 98.8607 109.561 99.013 109.482 99.1484C109.404 99.2838 109.294 99.3984 109.162 99.4827L107.95 100.183C107.7 100.323 107.498 100.209 107.498 99.9238Z" fill="#09B3EC"/>
<path d="M149.713 57.1982C149.63 56.9232 149.365 56.835 149.063 57.0114L116.623 75.6915C116.415 75.8178 116.245 75.9968 116.129 76.2104L114.023 74.9806C114.138 74.7681 114.307 74.5893 114.512 74.4618L146.947 55.7816C147.156 55.6742 147.388 55.6182 147.623 55.6182C147.858 55.6182 148.09 55.6742 148.299 55.7816L149.063 56.2175C149.232 56.3297 149.376 56.4742 149.487 56.6426C149.599 56.811 149.676 56.9999 149.713 57.1982Z" fill="#EBEBEB"/>
<path d="M149.739 57.4057V77.7567C149.726 77.99 149.659 78.217 149.543 78.4197C149.426 78.6224 149.264 78.7952 149.069 78.9242L118.063 96.7897L116.628 97.6199L116.524 97.6718C116.202 97.7859 115.968 97.6043 115.968 97.2255V76.8746C115.975 76.6517 116.037 76.4341 116.15 76.2415C116.265 76.0279 116.436 75.8489 116.644 75.7226L149.084 57.0425C149.386 56.8661 149.651 56.9543 149.734 57.2293C149.734 57.2293 149.734 57.2604 149.734 57.2812C149.739 57.3225 149.741 57.3641 149.739 57.4057Z" fill="#FAFAFA"/>
<path d="M116.503 97.6717L116.42 97.7029C116.383 97.7181 116.345 97.7285 116.306 97.734C116.248 97.7498 116.189 97.7603 116.129 97.7651H115.952C115.83 97.7644 115.708 97.7505 115.588 97.7236C115.477 97.6988 115.371 97.6586 115.271 97.6043L114.512 97.1632C114.315 97.0357 114.151 96.8634 114.033 96.6605C113.916 96.4576 113.848 96.2298 113.836 95.9957V75.6603C113.844 75.432 113.908 75.2092 114.023 75.0117L116.129 76.2415C116.016 76.4341 115.954 76.6517 115.947 76.8745V97.2255C115.947 97.6043 116.197 97.7859 116.503 97.6717Z" fill="#E0E0E0"/>
<path d="M127.953 73.9583L126.273 80.185C126.117 80.6832 125.874 81.1503 125.556 81.5652L120.133 88.0669C119.782 87.8187 119.485 87.5022 119.26 87.1367C119.035 86.7711 118.886 86.3639 118.822 85.9395C118.443 83.8639 119.514 80.9892 121.609 78.4726C121.968 78.0471 122.332 77.6476 122.707 77.2688C124.17 75.769 125.968 74.6348 127.953 73.9583Z" fill="#09B3EC"/>
<path d="M132.471 81.8247C130.064 85.8669 125.488 88.918 122.072 88.7052C121.603 88.6884 121.142 88.5864 120.71 88.4043L126.055 81.9959C126.341 81.687 126.736 81.501 127.157 81.4771H127.215L132.471 81.8247Z" fill="#09B3EC"/>
<path d="M132.009 73.8545L127.027 79.827L128.676 73.7507C129.766 73.4072 130.942 73.4438 132.009 73.8545Z" fill="#09B3EC"/>
<path d="M132.835 81.2124L127.267 80.8699C127.204 80.8656 127.143 80.8516 127.085 80.8284C127.093 80.7909 127.109 80.7555 127.131 80.7246C127.144 80.7021 127.16 80.6812 127.178 80.6624L132.601 74.1606C134.364 75.3749 134.458 78.0939 132.835 81.2124Z" fill="#09B3EC"/>
<path d="M136.137 69.5996C136.137 69.9732 136.444 70.1185 136.813 69.885L146.952 64.0423C147.138 63.9332 147.295 63.7827 147.412 63.6026C147.53 63.4226 147.604 63.2178 147.628 63.0045C147.628 62.6309 147.327 62.4856 146.952 62.7139L136.813 68.5567C136.629 68.6681 136.472 68.8199 136.355 69.0006C136.238 69.1813 136.163 69.3861 136.137 69.5996Z" fill="#09B3EC"/>
<path d="M136.137 73.6677C136.137 74.0413 136.444 74.1866 136.813 73.9531L146.952 68.1156C147.141 68.0024 147.3 67.8468 147.417 67.6612C147.535 67.4756 147.607 67.2651 147.628 67.0467C147.628 66.6731 147.327 66.5278 146.952 66.7613L136.813 72.5988C136.625 72.7129 136.467 72.8688 136.349 73.0542C136.232 73.2396 136.16 73.4496 136.137 73.6677Z" fill="#E0E0E0"/>
<path d="M136.137 76.1793C136.137 76.5529 136.444 76.6982 136.813 76.4647L146.952 70.622C147.141 70.5103 147.3 70.3557 147.418 70.1709C147.535 69.986 147.607 69.7761 147.628 69.5582C147.628 69.1846 147.327 69.0393 146.952 69.2677L136.813 75.1104C136.625 75.2245 136.467 75.3803 136.349 75.5658C136.232 75.7512 136.16 75.9612 136.137 76.1793Z" fill="#E0E0E0"/>
<path d="M136.137 78.6804C136.137 79.054 136.444 79.1993 136.813 78.971L146.952 73.1283C147.142 73.016 147.301 72.8607 147.419 72.6749C147.536 72.4891 147.608 72.2781 147.628 72.0593C147.628 71.6857 147.327 71.5405 146.952 71.774L136.813 77.6426C136.628 77.7527 136.472 77.9034 136.354 78.0833C136.237 78.2632 136.163 78.4674 136.137 78.6804Z" fill="#E0E0E0"/>
<path d="M136.137 81.197C136.137 81.5706 136.444 81.7159 136.813 81.4876L146.952 75.6449C147.141 75.5317 147.3 75.3761 147.417 75.1905C147.535 75.0049 147.607 74.7944 147.628 74.5759C147.628 74.2023 147.327 74.0571 146.952 74.2906L136.813 80.1333C136.625 80.2459 136.466 80.4008 136.349 80.5854C136.232 80.7701 136.159 80.9795 136.137 81.197Z" fill="#E0E0E0"/>
<path d="M75.7904 76.6774C75.7072 76.3972 75.4473 76.309 75.1405 76.4906L57.4618 86.6609C57.2616 86.7916 57.0972 86.9699 56.9834 87.1798L54.8932 85.9449C55.0055 85.7339 55.1702 85.5552 55.3716 85.426L73.0502 75.2505C73.26 75.1455 73.4915 75.0908 73.7262 75.0908C73.9609 75.0908 74.1923 75.1455 74.4021 75.2505L75.1613 75.6915C75.3276 75.8048 75.4691 75.9506 75.5772 76.1201C75.6854 76.2895 75.7579 76.4792 75.7904 76.6774Z" fill="#EBEBEB"/>
<path d="M75.8163 76.8797V82.6239C75.8036 82.8578 75.7358 83.0855 75.6184 83.2884C75.5009 83.4912 75.3371 83.6636 75.1404 83.7914L57.4617 93.9617L57.3369 94.024H57.3057C57.0042 94.1122 56.7858 93.9306 56.7858 93.5621V87.8284C56.7923 87.5936 56.8604 87.3646 56.9833 87.1642C57.0972 86.9543 57.2616 86.776 57.4617 86.6453L75.1404 76.475C75.4472 76.2934 75.7072 76.3816 75.7903 76.6618C75.7933 76.679 75.7933 76.6965 75.7903 76.7137C75.805 76.768 75.8137 76.8236 75.8163 76.8797Z" fill="#FAFAFA"/>
<path d="M57.3266 94.0343C57.2441 94.0653 57.1588 94.0879 57.0718 94.1017C56.807 94.15 56.5341 94.1268 56.2814 94.0343L56.1307 93.9616L55.3715 93.5258C55.1745 93.3983 55.0105 93.226 54.893 93.0231C54.7755 92.8201 54.7078 92.5923 54.6956 92.3583V86.6141C54.7047 86.3797 54.7726 86.1513 54.8931 85.95L57.0042 87.1642C56.8813 87.3645 56.8132 87.5935 56.8066 87.8283V93.5725C56.8066 93.9409 57.025 94.1225 57.3266 94.0343Z" fill="#E0E0E0"/>
<path d="M75.7904 87.6259C75.7072 87.3457 75.4472 87.2575 75.1404 87.4391L57.4617 97.6094C57.2616 97.7401 57.0972 97.9184 56.9834 98.1283L54.8723 96.9141C54.9846 96.7031 55.1494 96.5245 55.3507 96.3952L73.0294 86.2197C73.2392 86.1147 73.4706 86.0601 73.7053 86.0601C73.94 86.0601 74.1715 86.1147 74.3813 86.2197L75.1404 86.6608C75.3083 86.7697 75.4524 86.9113 75.5641 87.0772C75.6757 87.243 75.7527 87.4297 75.7904 87.6259Z" fill="#EBEBEB"/>
<path d="M75.8164 87.8282V93.5724C75.8055 93.8127 75.7364 94.0467 75.6151 94.2546C75.4937 94.4624 75.3237 94.6378 75.1197 94.7658L57.441 104.936L57.3162 104.998H57.285C56.9834 105.087 56.765 104.905 56.765 104.537V98.7769C56.7716 98.542 56.8397 98.313 56.9626 98.1127C57.0764 97.9028 57.2408 97.7244 57.441 97.5938L75.1197 87.4235C75.4264 87.2419 75.6864 87.3301 75.7696 87.6103C75.7725 87.6275 75.7725 87.645 75.7696 87.6622C75.7913 87.7156 75.807 87.7713 75.8164 87.8282Z" fill="#FAFAFA"/>
<path d="M57.3266 104.983C57.2441 105.014 57.1588 105.037 57.0718 105.05C56.807 105.099 56.5341 105.076 56.2814 104.983L56.1307 104.91L55.3715 104.475C55.1745 104.347 55.0105 104.175 54.893 103.972C54.7755 103.769 54.7078 103.541 54.6956 103.307V97.5629C54.7047 97.3285 54.7726 97.1001 54.8931 96.8987L57.0042 98.1129C56.8813 98.3132 56.8132 98.5422 56.8066 98.7771V104.521C56.8066 104.89 57.025 105.071 57.3266 104.983Z" fill="#E0E0E0"/>
<path d="M75.7904 98.5798C75.7072 98.2996 75.4472 98.2114 75.1404 98.393L57.4617 108.563C57.2616 108.694 57.0972 108.872 56.9834 109.082L54.8723 107.868C54.9846 107.657 55.1494 107.478 55.3507 107.349L73.0294 97.1736C73.2392 97.0686 73.4706 97.0139 73.7053 97.0139C73.94 97.0139 74.1715 97.0686 74.3813 97.1736L75.1404 97.6146C75.3083 97.7236 75.4524 97.8652 75.5641 98.031C75.6757 98.1969 75.7527 98.3835 75.7904 98.5798Z" fill="#EBEBEB"/>
<path d="M75.8163 98.7823V104.526C75.8036 104.76 75.7358 104.988 75.6184 105.191C75.5009 105.394 75.3371 105.566 75.1404 105.694L57.4617 115.864L57.3369 115.927H57.3057C57.0042 116.015 56.7858 115.833 56.7858 115.465V109.731C56.7923 109.496 56.8604 109.267 56.9833 109.067C57.0972 108.857 57.2616 108.679 57.4617 108.548L75.1196 98.3984C75.4264 98.2167 75.6864 98.305 75.7696 98.5852C75.7725 98.6023 75.7725 98.6199 75.7696 98.637C75.7899 98.6838 75.8056 98.7325 75.8163 98.7823Z" fill="#FAFAFA"/>
<path d="M57.3266 115.937C57.2441 115.968 57.1588 115.99 57.0718 116.004C56.807 116.053 56.5341 116.029 56.2814 115.937L56.1307 115.864L55.3715 115.428C55.1745 115.301 55.0105 115.129 54.893 114.926C54.7755 114.723 54.7078 114.495 54.6956 114.261V108.517C54.7047 108.282 54.7726 108.054 54.8931 107.853L57.0042 109.067C56.8813 109.267 56.8132 109.496 56.8066 109.731V115.475C56.8066 115.843 57.025 116.041 57.3266 115.937Z" fill="#E0E0E0"/>
<path d="M75.7904 109.534C75.7072 109.253 75.4472 109.165 75.1404 109.347L57.4617 119.517C57.2616 119.648 57.0972 119.826 56.9834 120.036L54.8723 118.822C54.9846 118.611 55.1494 118.432 55.3507 118.303L73.0294 108.127C73.2392 108.022 73.4706 107.968 73.7053 107.968C73.94 107.968 74.1715 108.022 74.3813 108.127L75.1404 108.569C75.3083 108.677 75.4524 108.819 75.5641 108.985C75.6757 109.151 75.7527 109.337 75.7904 109.534Z" fill="#EBEBEB"/>
<path d="M75.8163 109.736V115.48C75.8036 115.714 75.7358 115.942 75.6184 116.145C75.5009 116.347 75.3371 116.52 75.1404 116.648L57.4617 126.818L57.3369 126.88H57.3057C57.0042 126.968 56.7858 126.787 56.7858 126.418V120.71C56.7923 120.476 56.8604 120.247 56.9833 120.046C57.0972 119.836 57.2616 119.658 57.4617 119.527L75.1404 109.357C75.4472 109.175 75.7072 109.264 75.7903 109.544C75.7933 109.561 75.7933 109.579 75.7903 109.596C75.8033 109.642 75.812 109.688 75.8163 109.736Z" fill="#FAFAFA"/>
<path d="M57.3266 126.891C57.2441 126.922 57.1588 126.944 57.0718 126.958C56.807 127.006 56.5341 126.983 56.2814 126.891L56.1307 126.818L55.3715 126.382C55.1745 126.254 55.0105 126.082 54.893 125.879C54.7755 125.676 54.7078 125.449 54.6956 125.214V119.47C54.7047 119.236 54.7726 119.008 54.8931 118.806L57.0042 120.02C56.8813 120.221 56.8132 120.45 56.8066 120.685V126.418C56.8066 126.797 57.025 126.979 57.3266 126.891Z" fill="#E0E0E0"/>
<path d="M77.6467 67.5812C77.6688 67.575 77.6922 67.575 77.7143 67.5812L75.8164 66.4915V65.9052C75.8213 65.8552 75.8213 65.8048 75.8164 65.7547C75.8194 65.7375 75.8194 65.72 75.8164 65.7028C75.7788 65.5066 75.7018 65.3199 75.5901 65.1541C75.4785 64.9882 75.3344 64.8466 75.1665 64.7377L74.4074 64.2966C74.1976 64.1916 73.9661 64.137 73.7314 64.137C73.4967 64.137 73.2652 64.1916 73.0555 64.2966L55.3768 74.4721C55.18 74.5999 55.0162 74.7723 54.8988 74.9751C54.7813 75.178 54.7135 75.4057 54.7008 75.6396V81.3838C54.7131 81.6178 54.7808 81.8456 54.8982 82.0485C55.0157 82.2515 55.1797 82.4238 55.3768 82.5513L56.1359 82.9871L56.2867 83.0598C56.5394 83.1523 56.8123 83.1756 57.077 83.1272C57.164 83.1134 57.2494 83.0908 57.3318 83.0598H57.363L57.4878 82.9975L75.1665 72.8272C75.3633 72.6994 75.527 72.5271 75.6445 72.3242C75.7619 72.1213 75.8297 71.8937 75.8424 71.6597V70.0148L77.7715 67.794C77.7897 67.7735 77.8009 67.7478 77.8035 67.7206C77.8062 67.6934 77.8002 67.6661 77.7863 67.6425C77.7725 67.6189 77.7515 67.6003 77.7265 67.5893C77.7014 67.5783 77.6735 67.5755 77.6467 67.5812Z" fill="#09B3EC"/>
<path opacity="0.1" d="M57.3266 83.0804C57.2441 83.1114 57.1588 83.134 57.0718 83.1479C56.807 83.1962 56.5342 83.1729 56.2815 83.0804L56.1307 83.0078L55.3611 82.5719C55.1641 82.4444 55.0001 82.2721 54.8826 82.0692C54.7651 81.8663 54.6975 81.6385 54.6852 81.4044V75.6603C54.6943 75.4259 54.7622 75.1975 54.8828 74.9961L56.9938 76.2103C56.8709 76.4107 56.8028 76.6397 56.7962 76.8745V82.6186C56.8066 82.987 57.025 83.1686 57.3266 83.0804Z" fill="black"/>
<path opacity="0.4" d="M75.7904 65.708C75.7072 65.4277 75.4472 65.3395 75.1404 65.5211L57.4617 75.6914C57.2616 75.8221 57.0972 76.0004 56.9834 76.2103L54.8723 74.9961C54.9846 74.7852 55.1494 74.6065 55.3507 74.4772L73.0294 64.3017C73.2392 64.1968 73.4706 64.1421 73.7053 64.1421C73.94 64.1421 74.1715 64.1968 74.3813 64.3017L75.1404 64.7428C75.3083 64.8517 75.4524 64.9934 75.5641 65.1592C75.6757 65.3251 75.7527 65.5117 75.7904 65.708Z" fill="white"/>
<path opacity="0.4" d="M77.6467 67.5811H75.8164V66.5122L77.7143 67.6019C77.6942 67.5886 77.6707 67.5814 77.6467 67.5811Z" fill="white"/>
<path d="M22.5123 160.634L26.1521 158.558C26.1521 158.558 27.9043 148.938 26.594 140.672C24.7534 129.049 16.8239 125.038 13.9434 126.189C11.0628 127.341 10.3868 130.792 15.5864 137.507C18.6698 141.471 22.6111 149.846 22.5123 160.634Z" fill="#09B3EC"/>
<g opacity="0.1">
<path opacity="0.1" d="M22.5123 160.634L26.1521 158.558C26.1521 158.558 27.9043 148.938 26.594 140.672C24.7534 129.049 16.8239 125.038 13.9434 126.189C11.0628 127.341 10.3868 130.792 15.5864 137.507C18.6698 141.471 22.6111 149.846 22.5123 160.634Z" fill="black"/>
</g>
<path d="M23.833 156.021H23.7966C23.7293 156.01 23.6688 155.974 23.628 155.92C23.5871 155.865 23.5693 155.797 23.5782 155.73C25.0861 144.833 20.6976 132.925 15.7788 128.12C15.7544 128.096 15.7351 128.067 15.7219 128.035C15.7087 128.004 15.7019 127.97 15.7019 127.936C15.7019 127.901 15.7087 127.867 15.7219 127.836C15.7351 127.804 15.7544 127.775 15.7788 127.751C15.8025 127.727 15.8308 127.708 15.8621 127.695C15.8933 127.682 15.9269 127.675 15.9608 127.675C15.9947 127.675 16.0282 127.682 16.0595 127.695C16.0907 127.708 16.1191 127.727 16.1428 127.751C21.1604 132.645 25.6321 144.761 24.1034 155.808C24.0911 155.87 24.0571 155.925 24.0075 155.964C23.9579 156.003 23.8961 156.023 23.833 156.021Z" fill="white"/>
<path d="M12.3939 166.471C11.8219 166.798 10.6312 166.077 10.1788 165.771C9.40069 165.247 8.77046 164.532 8.34857 163.695C7.87245 162.731 7.71236 161.642 7.891 160.582C7.98211 160.027 8.11243 159.479 8.28098 158.942C8.43696 158.423 8.58776 157.878 8.73854 157.349C8.9263 156.835 9.00595 156.287 8.97253 155.74C8.83734 154.651 7.86501 153.888 6.98627 153.229C6.00875 152.497 4.99482 151.537 5.00002 150.225C5.07479 149.206 5.48209 148.24 6.15954 147.475C6.78869 146.681 7.53223 145.98 8.10419 145.139C8.55842 144.559 8.80056 143.842 8.79054 143.105C8.73067 142.655 8.57845 142.223 8.34337 141.834C7.81066 141.019 7.34298 140.164 6.94467 139.276C6.6275 138.358 6.67429 137.2 7.39184 136.562C7.71236 136.323 8.07743 136.15 8.46577 136.052C8.8541 135.955 9.25792 135.936 9.65368 135.997C10.3919 136.094 11.1009 136.347 11.7335 136.739C13.8134 137.896 15.0145 140.371 17.2295 141.253C18.1075 141.528 19.0018 141.748 19.9073 141.912C20.3618 141.995 20.7939 142.172 21.1754 142.432C21.557 142.692 21.8796 143.03 22.1224 143.422C22.9335 145.041 21.4256 147.054 21.9976 148.761C22.5175 150.282 23.9838 150.868 24.8158 152.238C25.1589 152.842 25.2958 153.542 25.2057 154.23C25.1354 155.397 24.8498 156.54 24.3634 157.603C23.8227 158.658 23.204 159.671 22.5123 160.634C22.4759 160.67 12.4823 166.419 12.3939 166.471Z" fill="#09B3EC"/>
<path d="M18.3163 163.321C18.2821 163.32 18.2486 163.312 18.2175 163.298C18.1865 163.283 18.1586 163.263 18.1354 163.238C18.1122 163.213 18.0942 163.184 18.0824 163.152C18.0706 163.12 18.0653 163.086 18.0667 163.052C18.4931 152.752 13.6314 141.377 10.0957 138.072C10.048 138.024 10.0214 137.958 10.0214 137.891C10.0214 137.823 10.048 137.757 10.0957 137.709C10.1452 137.661 10.2114 137.634 10.2803 137.634C10.3492 137.634 10.4154 137.661 10.4649 137.709C14.0734 141.082 19.0338 152.643 18.6022 163.088C18.599 163.122 18.589 163.155 18.5728 163.185C18.5567 163.216 18.5347 163.242 18.5081 163.264C18.4815 163.286 18.4508 163.302 18.4179 163.312C18.385 163.322 18.3504 163.325 18.3163 163.321Z" fill="white"/>
<path d="M16.7668 151.153C16.7428 151.159 16.7179 151.159 16.694 151.153C14.2472 150.484 11.7351 150.08 9.20134 149.95C9.16719 149.948 9.13364 149.94 9.1026 149.926C9.07157 149.912 9.04367 149.891 9.02049 149.866C8.99731 149.841 8.9793 149.812 8.96751 149.78C8.95571 149.748 8.95036 149.714 8.95175 149.68C8.95239 149.645 8.95998 149.612 8.97406 149.58C8.98814 149.549 9.00842 149.521 9.03368 149.498C9.05894 149.474 9.08866 149.456 9.12105 149.445C9.15344 149.433 9.18782 149.429 9.22214 149.431C11.8 149.565 14.3557 149.978 16.8448 150.66C16.9137 150.671 16.9757 150.708 17.0172 150.764C17.0586 150.82 17.0761 150.89 17.0658 150.959C17.0554 151.028 17.0181 151.09 16.962 151.131C16.906 151.172 16.8357 151.19 16.7668 151.179V151.153Z" fill="white"/>
<path d="M53.2266 141.961C53.1974 141.652 53.0854 141.357 52.9024 141.107C52.7194 140.857 52.4721 140.661 52.1867 140.539C51.4217 140.15 50.5754 139.948 49.7169 139.948C48.8584 139.948 48.0121 140.15 47.2471 140.539C46.9623 140.661 46.7157 140.858 46.5328 141.108C46.3499 141.358 46.2375 141.652 46.2072 141.961L44.8241 178.216C44.7721 178.968 45.2452 179.731 46.2436 180.291C47.3133 180.833 48.4962 181.116 49.6961 181.116C50.896 181.116 52.0789 180.833 53.1486 180.291C54.147 179.715 54.6149 178.952 54.5681 178.216L53.2266 141.961Z" fill="#09B3EC"/>
<path opacity="0.15" d="M47.2679 140.539C45.9056 141.322 45.9056 142.614 47.2679 143.382C48.033 143.771 48.8793 143.974 49.7378 143.974C50.5962 143.974 51.4425 143.771 52.2076 143.382C53.5699 142.599 53.5699 141.307 52.2076 140.539C51.4425 140.15 50.5962 139.948 49.7378 139.948C48.8793 139.948 48.033 140.15 47.2679 140.539Z" fill="black"/>
<path d="M51.23 130.4C50.768 130.164 50.2566 130.041 49.7378 130.041C49.2189 130.041 48.7075 130.164 48.2455 130.4C48.075 130.474 47.9277 130.593 47.8189 130.743C47.71 130.894 47.6437 131.071 47.6267 131.256V141.96C47.6428 142.146 47.7087 142.324 47.8176 142.476C47.9265 142.627 48.0743 142.747 48.2455 142.822C48.7084 143.054 49.2195 143.176 49.7378 143.176C50.2561 143.176 50.7671 143.054 51.23 142.822C51.4012 142.747 51.549 142.627 51.6579 142.476C51.7668 142.324 51.8327 142.146 51.8488 141.96V131.256C51.8318 131.071 51.7655 130.894 51.6566 130.743C51.5478 130.593 51.4005 130.474 51.23 130.4Z" fill="#263238"/>
<path d="M73.2403 104.18C73.2403 103.967 73.2403 103.76 73.2091 103.552C73.1779 103.344 73.1831 103.142 73.1623 102.94C73.1415 102.737 73.1363 102.67 73.1207 102.535C73.0843 102.182 73.0323 101.835 72.9751 101.497C72.9751 101.347 72.9231 101.191 72.892 101.041C72.8608 100.89 72.8348 100.755 72.8036 100.615C72.7152 100.231 72.6216 99.8575 72.5124 99.4995C72.4552 99.3283 72.4032 99.157 72.346 98.9806C72.335 98.9555 72.3263 98.9294 72.32 98.9028C72.2576 98.7367 72.2004 98.5759 72.138 98.4202C72.0756 98.2645 71.9924 98.057 71.9092 97.9013C71.826 97.7456 71.7948 97.647 71.7272 97.5225C71.6895 97.4291 71.6443 97.3388 71.592 97.2527C71.5421 97.1418 71.4847 97.0343 71.4205 96.931C71.4205 96.931 71.3945 96.8791 71.3789 96.8583C71.3633 96.8376 71.2697 96.6715 71.2125 96.5781C71.1553 96.4847 71.1345 96.4588 71.0981 96.4017C70.8316 95.9828 70.5326 95.5855 70.2038 95.2134L70.0374 95.0266L69.897 94.8813L69.715 94.6997C69.5517 94.5285 69.378 94.3673 69.195 94.2172C69.1066 94.1393 69.013 94.0667 68.9194 93.9992L68.6335 93.7917C68.4849 93.683 68.3304 93.5825 68.1707 93.4907L68.0459 93.4129H68.0199L60.6521 89.1683H60.6105C59.1969 88.3816 57.6012 87.979 55.9828 88.0008C53.5702 88.0008 50.8456 88.7895 47.9598 90.45C38.0493 96.1578 30.0107 110.054 30.0107 121.48C30.0107 127.188 32.0074 131.183 35.2104 133.061H35.2416L42.6146 137.301H42.6458L42.7342 137.347C42.8725 137.429 43.0148 137.503 43.1606 137.571C43.3373 137.659 43.5193 137.737 43.6805 137.809C43.8417 137.882 44.0081 137.939 44.2005 137.991L44.4657 138.069C44.5585 138.104 44.6542 138.132 44.7516 138.152C44.8474 138.181 44.9446 138.205 45.0428 138.224C45.1127 138.245 45.1839 138.261 45.256 138.271C45.3808 138.297 45.516 138.323 45.646 138.339C45.6752 138.344 45.7051 138.344 45.7344 138.339L46.2023 138.401C48.8801 138.681 51.9843 137.929 55.3121 136.014C65.2277 130.306 73.2663 116.405 73.2663 104.984C73.2559 104.72 73.2507 104.45 73.2403 104.18ZM61.2188 96.1007C61.6043 97.5213 61.7933 98.9878 61.7804 100.459C61.7804 110.536 54.3917 123.291 45.6616 128.345C44.3854 129.102 43.0075 129.673 41.5695 130.041C41.1823 128.619 40.9916 127.151 41.0027 125.678C41.0027 115.601 48.3914 102.846 57.1215 97.7923C58.3992 97.0358 59.779 96.4661 61.2188 96.1007Z" fill="#09B3EC"/>
<path opacity="0.1" d="M42.3595 137.135L35.1996 133.035C31.9707 131.152 30 127.146 30 121.459C30 116.363 31.6015 110.78 34.2481 105.654L41.6211 109.898C38.9693 115.025 37.3731 120.608 37.3731 125.704C37.3471 131.251 39.2501 135.204 42.3595 137.135Z" fill="black"/>
<path opacity="0.4" d="M73.2399 104.18C73.2399 103.967 73.2399 103.76 73.2087 103.552C73.1775 103.345 73.1827 103.142 73.1619 102.94C73.1411 102.737 73.136 102.67 73.1204 102.535C73.084 102.182 73.032 101.835 72.9748 101.497C72.9748 101.347 72.9228 101.191 72.8916 101.041C72.8604 100.89 72.8344 100.755 72.8032 100.615C72.7148 100.231 72.6212 99.8576 72.512 99.4995C72.4548 99.3283 72.4028 99.1571 72.3456 98.9806C72.3346 98.9555 72.3259 98.9295 72.3196 98.9028C72.2572 98.7368 72.2 98.5759 72.1376 98.4202C72.0752 98.2646 71.992 98.057 71.9088 97.9013C71.8256 97.7457 71.7944 97.6471 71.7269 97.5225C71.6892 97.4291 71.6439 97.3389 71.5917 97.2527C71.5417 97.1418 71.4844 97.0343 71.4201 96.931C71.4201 96.931 71.3941 96.8791 71.3785 96.8584C71.3629 96.8376 71.2693 96.6716 71.2121 96.5782C71.1549 96.4848 71.1341 96.4588 71.0977 96.4017C70.8312 95.9829 70.5322 95.5856 70.2034 95.2135L70.037 95.0267L69.8966 94.8814L69.7146 94.6998C69.5513 94.5285 69.3777 94.3673 69.1946 94.2172C69.1063 94.1394 69.0127 94.0667 68.9191 93.9993L68.6331 93.7917C68.4845 93.683 68.33 93.5825 68.1703 93.4907C64.9102 91.5138 60.3709 91.7473 55.3221 94.6479C45.4064 100.356 37.3678 114.252 37.3678 125.678C37.3678 131.463 39.4476 135.505 42.7494 137.342C42.8877 137.424 43.03 137.498 43.1758 137.565C43.3526 137.654 43.5345 137.732 43.6957 137.804C43.8569 137.877 44.0233 137.934 44.2157 137.986L44.4809 138.064C44.5737 138.099 44.6694 138.127 44.7668 138.147C44.8626 138.176 44.9598 138.2 45.058 138.219C45.1279 138.24 45.1991 138.255 45.2712 138.266C45.396 138.292 45.5312 138.318 45.6612 138.333C45.6904 138.338 45.7203 138.338 45.7496 138.333L46.2175 138.396C48.8953 138.676 51.9995 137.924 55.3273 136.009C65.2429 130.301 73.2815 116.4 73.2815 104.979C73.2555 104.72 73.2503 104.45 73.2399 104.18ZM53.4814 132.88C51.256 134.162 49.1137 134.836 47.2835 134.836C43.8465 134.836 42.2658 132.496 41.5639 130.042C41.1767 128.619 40.986 127.151 40.9971 125.678C40.9971 115.601 48.3858 102.846 57.1159 97.7924C58.3936 97.0358 59.7734 96.4661 61.2132 96.1008C61.8938 95.9318 62.5918 95.843 63.2931 95.8361C68.9763 95.8361 69.5846 102.239 69.5846 104.995C69.6106 115.071 62.2272 127.847 53.4814 132.88Z" fill="white"/>
<path opacity="0.1" d="M69.6107 105.015C69.6107 115.092 62.2272 127.846 53.4919 132.9C51.2664 134.182 49.1242 134.857 47.2939 134.857C43.857 134.857 42.2763 132.516 41.5743 130.062C43.0123 129.694 44.3903 129.122 45.6664 128.365C54.4122 123.327 61.7852 110.557 61.7852 100.48C61.7982 99.0084 61.6092 97.5419 61.2237 96.1214C61.9042 95.9524 62.6023 95.8636 63.3035 95.8567C69.0023 95.836 69.6107 102.239 69.6107 105.015Z" fill="black"/>
<path opacity="0.7" d="M66.4701 103.236C66.4701 113.312 59.0866 126.067 50.3513 131.121C48.1258 132.403 45.9836 133.077 44.1533 133.077C43.7893 133.078 43.4258 133.048 43.0666 132.989C42.364 132.123 41.852 131.118 41.5639 130.042C41.1767 128.62 40.9861 127.151 40.9972 125.678C40.9972 115.601 48.3858 102.846 57.116 97.7924C58.3936 97.0358 59.7734 96.4662 61.2133 96.1008C61.8938 95.9318 62.5918 95.843 63.2931 95.8362C63.6589 95.8353 64.0241 95.8648 64.385 95.9244C66.2049 98.0363 66.4701 101.425 66.4701 103.236Z" fill="white"/>
<path opacity="0.1" d="M48.7187 143.88L47.7879 180.893C47.27 180.764 46.7716 180.567 46.306 180.307C45.3077 179.731 44.8346 178.968 44.8866 178.231L46.2696 141.981C46.3 142.289 46.4124 142.584 46.5953 142.834C46.7781 143.084 47.0248 143.28 47.3096 143.403C47.7499 143.638 48.2259 143.799 48.7187 143.88Z" fill="black"/>
<path d="M204.981 81.328C204.981 80.7927 203.943 75.0708 203.254 71.9143L196.544 74.0001L197.736 79.861L203.393 84.3871C205.142 84.0047 205.023 81.8634 204.981 81.328Z" fill="#FFA8A7"/>
<path d="M187.453 52.656H188.881C191.531 52.6523 194.071 51.5997 195.944 49.7293C197.817 47.8589 198.869 45.3233 198.871 42.6791C198.869 39.8462 197.74 37.1299 195.733 35.1274C193.725 33.1249 191.002 32 188.163 32C185.325 32 182.602 33.1249 180.594 35.1274C178.586 37.1299 177.457 39.8462 177.455 42.6791C177.455 45.3251 178.508 47.8628 180.383 49.7338C182.258 51.6048 184.801 52.656 187.453 52.656Z" fill="#263238"/>
<path d="M172.537 69.3213L169.367 75.1197L174.299 79.3399L178.821 72.1927L172.537 69.3213Z" fill="#F28F8F"/>
<path d="M184.436 56.3826C181.294 56.4173 177.831 57.5575 176.64 60.0187C175.449 62.4799 171.701 70.1486 171.701 70.1486C171.701 70.1486 174.487 74.2088 178.89 73.9238L184.436 56.3826Z" fill="#09B3EC"/>
<g opacity="0.1">
<path opacity="0.1" d="M184.436 56.3826C181.294 56.4173 177.831 57.5575 176.64 60.0187C175.449 62.4799 171.701 70.1486 171.701 70.1486C171.701 70.1486 174.487 74.2088 178.89 73.9238L184.436 56.3826Z" fill="black"/>
</g>
<path d="M195.046 159.509V158.814C194.775 159.621 193.514 163.09 191.605 164.828C190.086 166.218 188.017 167.804 187.487 169.34C186.958 170.877 190.372 171.482 191.793 171.231C193.686 170.912 195.421 169.981 196.732 168.582C197.548 167.588 198.07 166.399 198.648 165.614C199.227 164.828 200.578 163.945 200.892 163.034C200.987 162.185 200.891 161.325 200.613 160.517C200.39 159.669 200.153 158.731 199.861 158.814V159.335C199.175 159.876 198.323 160.163 197.45 160.149C196.781 160.184 195.039 160.045 195.046 159.509Z" fill="#263238"/>
<path d="M190.232 166.045C190.706 165.627 191.18 165.217 191.626 164.828C192.909 163.479 193.908 161.889 194.566 160.149C194.895 159.345 195.065 158.486 195.067 157.618V154.886H199.882V159.335V159.454C199.652 160.455 197.443 163.111 196.189 164.842C195.346 166.003 193.751 167.477 191.842 167.734C189.933 167.991 189.055 167.414 190.232 166.045Z" fill="#FFA8A7"/>
<path d="M177.163 154.872V154.177C176.891 154.983 175.63 158.446 173.721 160.184C172.202 161.574 170.133 163.166 169.604 164.703C169.074 166.239 172.488 166.844 173.902 166.594C175.797 166.276 177.535 165.345 178.849 163.945C179.664 162.951 180.179 161.762 180.765 160.976C181.35 160.191 182.687 159.308 183.008 158.397C183.099 157.548 183.004 156.689 182.729 155.88C182.506 155.032 182.262 154.093 181.977 154.177V154.698C181.29 155.237 180.439 155.524 179.566 155.512C178.863 155.553 177.156 155.414 177.163 154.872Z" fill="#263238"/>
<path d="M172.349 161.414L173.742 160.198C175.023 158.849 176.02 157.258 176.675 155.519C177.01 154.717 177.183 153.857 177.184 152.988V150.242H181.998V154.698V154.823C181.768 155.825 179.559 158.48 178.305 160.212C177.462 161.373 175.867 162.847 173.951 163.104C172.098 163.354 171.171 162.756 172.349 161.414Z" fill="#FFA8A7"/>
<path d="M198.871 84.8881C202.606 93.0226 198.739 121.674 198.739 121.674C198.85 122.995 200.362 125.588 200.927 131.407C201.623 138.277 199.882 155.505 199.882 155.505C199.146 155.932 198.317 156.173 197.467 156.207C196.617 156.241 195.772 156.067 195.005 155.7C195.005 155.7 190.421 129.746 189.557 122.918C188.804 116.967 187.355 102.972 187.355 102.972L183.252 122.891C183.892 125.179 184.273 127.532 184.387 129.906C184.485 133.938 182.032 151.625 182.032 151.625C181.559 152.529 177.971 152.745 177.03 151.625C177.03 151.625 174.94 126.798 174.487 121.966C174.237 119.081 177.532 83.7271 177.532 83.7271L198.871 84.8881Z" fill="#37474F"/>
<path d="M187.397 102.964L186.191 96.3107C186.191 96.3107 181.064 95.2539 178.737 93.0708C180.343 94.9474 182.442 96.3392 184.798 97.0894L186.157 102.909L183.781 120.512L187.397 102.964Z" fill="#263238"/>
<path d="M192.322 56.612C193.694 56.944 194.973 57.5793 196.066 58.471C197.159 59.3627 198.036 60.4881 198.634 61.7639C199.513 63.7063 199.595 65.9145 198.864 67.9168L195.527 77.5391C195.527 77.5391 197.088 81.3074 198.899 84.8601C190.539 89.5253 180.089 87.0711 177.574 83.6713C177.469 82.976 177.615 79.7014 177.413 76.0235C177.197 72.0814 176.654 67.6248 177.274 65.1845C178.424 60.6584 180.59 56.4104 184.889 56.4104L192.322 56.612Z" fill="#09B3EC"/>
<path d="M192.322 56.6121C195.172 57.0153 199.617 57.5785 201.581 64.5032C203.497 71.2541 203.943 73.604 203.943 73.604C203.943 73.604 201.602 76.3294 196.865 76.3016L195.388 71.1011L192.322 56.6121Z" fill="#09B3EC"/>
<path d="M181.454 37.4089C180.326 38.0694 178.925 40.8852 179.065 46.8644C179.183 51.9049 180.82 53.1216 181.642 53.511C182.464 53.9003 184.053 53.65 185.593 53.3928V56.4171C185.593 56.4171 183.461 58.8922 183.593 60.2758C183.725 61.6593 186.672 61.9931 188.665 60.6373C189.958 59.7077 191.068 58.5481 191.939 57.2167V49.9026C192.101 50.1016 192.301 50.2664 192.527 50.3873C192.754 50.5082 193.002 50.5829 193.258 50.6068C193.513 50.6308 193.771 50.6036 194.016 50.5268C194.261 50.4501 194.488 50.3253 194.684 50.1599C196.384 49.0336 196.447 46.2386 195.458 45.2375C194.468 44.2363 192.336 44.5422 191.939 45.9327C189.915 45.8486 187.944 45.2606 186.206 44.2224C184.933 43.5392 183.839 42.5662 183.014 41.3824C182.188 40.1986 181.654 38.8373 181.454 37.4089Z" fill="#FFA8A7"/>
<path d="M184.715 45.5921C184.707 45.6772 184.717 45.763 184.743 45.8444C184.769 45.9258 184.811 46.0012 184.867 46.066C184.923 46.1308 184.991 46.1838 185.068 46.2218C185.145 46.2598 185.228 46.2821 185.314 46.2873C185.445 46.2996 185.577 46.2724 185.693 46.2092C185.809 46.1461 185.903 46.0499 185.963 45.9329C186.024 45.8159 186.048 45.6836 186.033 45.5528C186.017 45.4221 185.963 45.2989 185.877 45.1991C185.791 45.0992 185.677 45.0274 185.55 44.9926C185.423 44.9579 185.288 44.9619 185.163 45.0042C185.038 45.0464 184.929 45.1249 184.849 45.2297C184.769 45.3345 184.722 45.4606 184.715 45.5921Z" fill="#263238"/>
<path d="M184.54 49.8682L183.063 50.3409C183.092 50.4388 183.139 50.5302 183.202 50.6098C183.266 50.6895 183.345 50.7557 183.434 50.8048C183.523 50.854 183.622 50.8849 183.723 50.896C183.824 50.9071 183.927 50.898 184.025 50.8693C184.225 50.8024 184.39 50.6603 184.487 50.4733C184.583 50.2863 184.602 50.0692 184.54 49.8682Z" fill="#F28F8F"/>
<path d="M179.503 43.6457L180.757 42.7558C180.703 42.67 180.632 42.5961 180.548 42.5385C180.465 42.4809 180.37 42.4409 180.271 42.4207C180.171 42.4006 180.068 42.4008 179.969 42.4213C179.869 42.4419 179.775 42.4823 179.692 42.5402C179.524 42.6653 179.411 42.8497 179.376 43.0555C179.341 43.2612 179.387 43.4725 179.503 43.6457Z" fill="#263238"/>
<path d="M179.796 45.1332C179.794 45.2578 179.828 45.3803 179.895 45.4858C179.961 45.5912 180.057 45.6749 180.171 45.7266C180.285 45.7783 180.411 45.7958 180.534 45.7769C180.658 45.758 180.773 45.7035 180.866 45.6201C180.959 45.5367 181.025 45.4281 181.057 45.3076C181.089 45.1871 181.084 45.06 181.045 44.9418C181.005 44.8236 180.932 44.7195 180.834 44.6424C180.736 44.5652 180.617 44.5183 180.493 44.5075C180.406 44.5018 180.318 44.5137 180.236 44.5422C180.153 44.5708 180.077 44.6156 180.012 44.6739C179.947 44.7322 179.895 44.8029 179.858 44.8817C179.821 44.9606 179.8 45.0461 179.796 45.1332Z" fill="#263238"/>
<path d="M182.799 44.7717L182.694 48.5887L180.681 47.9699L182.799 44.7717Z" fill="#F28F8F"/>
<path d="M185.634 53.3928C187.258 53.1773 190.602 52.2248 191.124 50.9038C190.915 51.5706 190.507 52.1576 189.954 52.5863C188.951 53.4415 185.634 54.4009 185.634 54.4009V53.3928Z" fill="#F28F8F"/>
<path opacity="0.1" d="M196.544 74.6052C195.904 72.8746 195.357 71.1107 194.907 69.3213C194.907 69.3213 195.172 73.2495 196.301 75.363L196.544 74.6052Z" fill="black"/>
<path d="M159 68.9668L177.448 73.8127L182.896 96.6657L165.354 91.5764L159 68.9668Z" fill="#E0E0E0"/>
<g opacity="0.1">
<path opacity="0.1" d="M167.047 84.0815C166.873 84.5474 165.862 85.8475 163.717 85.7432L163.452 84.7977L167.047 84.0815Z" fill="black"/>
</g>
<g opacity="0.1">
<path opacity="0.1" d="M171.171 84.7976C171.248 85.4094 172.502 86.5357 174.655 87.238C177.065 88.0445 180.771 87.6203 180.771 87.6203L180.437 86.4801L171.171 84.7976Z" fill="black"/>
</g>
<g opacity="0.1">
<path opacity="0.1" d="M164.406 72.2759L164.253 71.5807C164.169 71.1913 165.249 71.1705 166.67 71.539L169.388 72.2342C170.781 72.6027 172.028 73.2145 172.112 73.6247L172.265 74.32L164.406 72.2759Z" fill="black"/>
</g>
<path d="M163.124 69.6273C163.069 69.384 163.507 69.3214 164.107 69.4813L165.18 69.7803C165.18 69.7803 164.859 68.2577 167.27 68.793C167.908 68.8858 168.512 69.142 169.023 69.5368C169.533 69.9315 169.932 70.4513 170.182 71.0456L171.331 71.3724C171.965 71.5532 172.536 71.8939 172.613 72.1372L172.752 72.5752L163.243 70.0723C163.243 70.0723 163.18 69.8707 163.124 69.6273Z" fill="#37474F"/>
<path d="M164.434 70.385C165.305 70.5936 165.667 70.7048 165.793 71.3028C165.918 71.9007 166.002 72.4916 166.002 72.4916L170.182 73.5971C170.182 73.5971 169.98 72.735 169.917 72.3943C169.854 72.0536 169.994 71.859 170.662 72.0328L170.718 71.7686L164.128 70.093L164.434 70.385Z" fill="#37474F"/>
<path d="M164.288 72.3733L164.135 71.6781C164.051 71.2887 165.138 71.2748 166.552 71.6433L169.269 72.3386C170.662 72.7071 171.91 73.3189 171.993 73.7291L172.146 74.4243L164.288 72.3733Z" fill="#37474F"/>
<path d="M203.393 84.3525L197.736 79.8263C197.736 79.8263 185.251 82.0442 183.802 82.1624C183.025 82.1844 182.26 81.971 181.607 81.5502C180.954 81.1295 180.444 80.5212 180.144 79.8055C179.587 78.3663 178.598 78.5471 178.598 78.5471C178.598 78.5471 179.037 80.3686 179.169 80.9457C179.301 81.5228 175.79 82.0094 173.839 81.349C171.889 80.6885 169.067 81.6479 170.816 84.2968C172.564 86.9457 175.971 87.2586 178.333 87.2586C179.321 87.252 180.307 87.1846 181.287 87.057C182.053 86.9596 182.813 86.8832 183.579 86.8276C188.421 86.4869 201.191 85.0408 203.393 84.3525Z" fill="#FFA8A7"/>
<path d="M160.881 75.6482C160.881 75.6482 161.543 77.9982 161.696 78.5613C161.85 79.1245 164.002 80.1396 165.354 80.5081C166.705 80.8765 168.196 81.3215 167.555 83.2126C166.963 84.9577 164.734 85.3609 163.591 85.2983C162.449 85.2358 160.902 84.1651 160.289 82.413C159.509 80.1882 159.927 77.8105 159.592 76.5034C159.258 75.1963 160.198 74.8695 160.881 75.6482Z" fill="#FFA8A7"/>
<path d="M204.737 60.6724C202.957 60.6705 201.25 59.9638 199.99 58.7073C198.731 57.4508 198.023 55.7471 198.021 53.9701V38.2366C199.802 38.2384 201.509 38.9451 202.768 40.2016C204.027 41.4582 204.736 43.1618 204.737 44.9388V60.6724Z" fill="#263238"/>
<path d="M197.805 38.7859L200.592 37.298C200.504 37.1124 200.379 36.9465 200.225 36.8103C200.071 36.674 199.891 36.5703 199.696 36.5054C199.5 36.4404 199.294 36.4156 199.089 36.4323C198.884 36.449 198.684 36.507 198.502 36.6028C198.126 36.8067 197.844 37.1477 197.714 37.5545C197.584 37.9614 197.617 38.4026 197.805 38.7859Z" fill="#263238"/>
<path d="M52.474 24.12L48.9019 26.1956C48.9223 26.039 48.9327 25.8813 48.9331 25.7234V24.6856C48.9331 22.8487 47.6436 22.0912 46.0473 23.0252C45.3628 23.443 44.7773 24.0043 44.3314 24.67C44.0663 22.3662 42.2516 21.5048 40.047 22.7761C37.6655 24.146 35.7313 27.4876 35.7313 30.2326V31.7893C35.7165 32.4045 35.8428 33.0151 36.1004 33.5742L33.1367 35.2814C32.6719 35.5816 32.2841 35.9863 32.0042 36.4629C31.7243 36.9396 31.5601 37.475 31.5248 38.0263C31.5248 39.0641 32.2423 39.4533 33.1263 38.9448L52.4636 27.8042C52.9291 27.5011 53.3162 27.0926 53.5936 26.612C53.871 26.1315 54.0307 25.5923 54.0599 25.0385C54.0703 24.0214 53.3632 23.6011 52.474 24.12Z" fill="#EBEBEB"/>
</svg>
