<svg width="285" height="285" viewBox="0 0 285 285" fill="none" xmlns="http://www.w3.org/2000/svg">
<path opacity="0.5" d="M70.908 234.464C116.542 256.209 190.528 256.209 236.162 234.464C281.797 212.718 281.791 177.464 236.162 155.701C190.534 133.939 116.542 133.95 70.908 155.701C25.2738 177.452 25.2795 212.713 70.908 234.464Z" fill="#EBEBEB"/>
<path d="M218.789 193.772C236.204 193.772 250.321 187.042 250.321 178.741C250.321 170.439 236.204 163.71 218.789 163.71C201.374 163.71 187.256 170.439 187.256 178.741C187.256 187.042 201.374 193.772 218.789 193.772Z" fill="#2AA9D2"/>
<path d="M171.103 238.573C162.678 242.592 149.021 242.592 140.596 238.573C132.172 234.555 132.172 228.051 140.596 224.033C149.021 220.014 162.678 220.043 171.103 224.033C179.527 228.023 179.55 234.561 171.103 238.573Z" fill="#2AA9D2"/>
<path d="M57.798 187.296L62.4321 184.623C62.4321 184.623 64.8774 173.719 61.2351 159.868C57.5928 146.017 47.0877 135.66 41.61 137.832C36.1323 140.003 36.2748 144.102 39.2958 148.257C41.8038 151.677 49.9377 159.999 53.8479 169.586C56.1774 175.217 57.5138 181.209 57.798 187.296Z" fill="#1683D7"/>
<path opacity="0.1" d="M57.798 187.296L62.4321 184.623C62.4321 184.623 64.8774 173.719 61.2351 159.868C57.5928 146.017 47.0877 135.66 41.61 137.832C36.1323 140.003 36.2748 144.102 39.2958 148.257C41.8038 151.677 49.9377 159.999 53.8479 169.586C56.1774 175.217 57.5138 181.209 57.798 187.296Z" fill="black"/>
<path d="M60.2662 186.156H60.2263C60.1525 186.145 60.0861 186.105 60.0414 186.046C59.9966 185.986 59.977 185.911 59.9869 185.837C63.1504 163.037 49.0201 144.603 42.5905 140.756C42.5532 140.74 42.5198 140.716 42.4925 140.686C42.4652 140.656 42.4447 140.62 42.4323 140.581C42.4198 140.543 42.4158 140.502 42.4205 140.462C42.4251 140.421 42.4383 140.382 42.4592 140.348C42.4801 140.313 42.5082 140.283 42.5416 140.26C42.575 140.237 42.6129 140.221 42.6529 140.214C42.6928 140.207 42.7339 140.208 42.7732 140.218C42.8126 140.228 42.8494 140.246 42.8812 140.271C49.4077 144.17 63.7546 162.849 60.5512 185.917C60.5392 185.984 60.5041 186.044 60.452 186.088C60.3999 186.132 60.3342 186.156 60.2662 186.156Z" fill="white"/>
<path d="M57.798 187.296L50.8554 191.286C49.4054 190.562 47.8347 190.11 46.2213 189.953C43.2687 189.582 41.3022 186.732 41.5929 184.606C41.7867 183.17 42.2484 181.534 42.0261 180.08C41.8323 178.781 40.5726 177.612 39.3984 177.156C38.3991 176.844 37.3558 176.696 36.309 176.717C34.6389 176.637 32.889 176.449 31.4811 175.577C30.0732 174.705 29.0358 172.961 29.4918 171.348C29.7985 170.513 30.2962 169.761 30.9453 169.153C31.5918 168.544 32.1161 167.816 32.49 167.01C33.1056 165.403 32.0169 164.377 30.723 163.63C26.163 161.008 24.111 158.939 25.7526 156.955C27.3942 154.972 31.9029 154.105 36.5256 156.533C41.1483 158.962 44.9844 156.357 48.0339 156.87C52.8105 157.668 53.0898 161.042 52.497 163.972C51.9042 166.902 57.8151 168.15 59.28 171.667C60.3801 174.221 61.2807 182.611 57.798 187.296Z" fill="#1683D7"/>
<path d="M55.4838 188.915C55.4101 188.915 55.3393 188.887 55.2862 188.836C55.2331 188.785 55.2017 188.715 55.1988 188.642C54.6288 172.368 33.7725 158.175 28.8534 157.36C28.8163 157.354 28.7807 157.342 28.7486 157.322C28.7165 157.303 28.6885 157.277 28.6663 157.247C28.644 157.217 28.628 157.183 28.619 157.146C28.61 157.11 28.6083 157.072 28.614 157.035C28.6279 156.961 28.6702 156.895 28.7319 156.851C28.7936 156.808 28.8699 156.79 28.9446 156.801C34.1259 157.656 55.1931 171.741 55.7688 188.619C55.7703 188.656 55.7644 188.694 55.7515 188.729C55.7386 188.764 55.7189 188.796 55.6934 188.824C55.668 188.851 55.6374 188.873 55.6034 188.889C55.5694 188.905 55.5326 188.914 55.4952 188.915H55.4838Z" fill="white"/>
<path d="M144.928 218.31C144.7 215.46 142.5 210.592 139.228 207.127C135.956 203.661 130.758 201.997 127.543 203.388C124.551 204.687 125.212 208.7 129.162 211.077C133.112 213.454 138.995 216.361 141.012 220.858L144.911 226.256L144.928 218.31Z" fill="#1683D7"/>
<path opacity="0.1" d="M144.928 218.31C144.7 215.46 142.5 210.592 139.228 207.127C135.956 203.661 130.758 201.997 127.543 203.388C124.551 204.687 125.212 208.7 129.162 211.077C133.112 213.454 138.995 216.361 141.012 220.858L144.911 226.256L144.928 218.31Z" fill="black"/>
<path d="M144.928 223.531H144.985C145.036 223.524 145.085 223.507 145.129 223.481C145.173 223.456 145.211 223.421 145.242 223.381C145.272 223.34 145.295 223.293 145.308 223.244C145.32 223.194 145.323 223.143 145.316 223.092C143.897 212.53 133.163 205.183 128.894 204.374C128.844 204.364 128.792 204.364 128.742 204.374C128.692 204.384 128.644 204.404 128.602 204.433C128.56 204.461 128.523 204.498 128.495 204.541C128.467 204.583 128.448 204.631 128.438 204.681C128.428 204.732 128.428 204.783 128.438 204.833C128.449 204.883 128.469 204.931 128.497 204.973C128.526 205.016 128.562 205.052 128.605 205.08C128.648 205.108 128.696 205.128 128.746 205.137C132.736 205.895 143.19 213.163 144.541 223.195C144.554 223.288 144.601 223.373 144.672 223.435C144.743 223.497 144.834 223.531 144.928 223.531Z" fill="white"/>
<path d="M144.506 230.109C143.936 228.541 141.748 226.051 138.402 224.124C134.702 221.986 130.182 221.228 129.008 219.433C127.6 217.267 129.333 214.981 132.964 215.135C136.595 215.289 143.327 219.695 144.934 227.008L144.506 230.109Z" fill="#1683D7"/>
<path d="M144.78 228.57H144.854C144.905 228.561 144.953 228.541 144.996 228.512C145.04 228.484 145.077 228.447 145.105 228.404C145.134 228.361 145.154 228.313 145.163 228.262C145.173 228.211 145.173 228.159 145.162 228.108C144.085 222.693 136.236 217.085 131.163 216.851C131.06 216.85 130.962 216.888 130.886 216.957C130.81 217.025 130.762 217.12 130.752 217.221C130.749 217.325 130.787 217.426 130.857 217.503C130.927 217.58 131.025 217.626 131.128 217.632C135.837 217.848 143.401 223.246 144.398 228.262C144.416 228.35 144.465 228.428 144.534 228.484C144.604 228.54 144.691 228.571 144.78 228.57Z" fill="white"/>
<path d="M52.8162 191.521C52.4873 191.3 52.2313 190.987 52.0811 190.62C51.9309 190.254 51.8931 189.851 51.9726 189.463L72.1848 100.007C72.4281 99.1422 72.977 98.3948 73.7295 97.9039L194 28.4779C194.367 28.2834 194.776 28.1784 195.192 28.1715C195.608 28.1646 196.019 28.2559 196.394 28.438C196.717 28.6599 196.969 28.9724 197.116 29.3364C197.263 29.7004 197.299 30.0997 197.22 30.4843L177.002 119.94C176.758 120.806 176.207 121.554 175.452 122.043L55.2102 191.469C54.8434 191.666 54.4353 191.773 54.0194 191.781C53.6034 191.79 53.1912 191.701 52.8162 191.521Z" fill="#F0F0F0"/>
<path d="M74.499 101.329L54.2868 190.819C54.1158 191.583 54.5262 191.891 55.2102 191.497L175.48 122.071C176.236 121.582 176.787 120.834 177.031 119.968L197.22 30.4837C197.391 29.7142 196.981 29.4121 196.297 29.8054L76.0266 99.2314C75.2819 99.7244 74.7396 100.469 74.499 101.329Z" fill="#E6E6E6"/>
<path d="M198.685 29.7597C198.31 29.5785 197.898 29.4882 197.482 29.4961C197.066 29.504 196.658 29.61 196.291 29.8053L76.0209 99.2313C75.672 99.4572 75.3915 99.7741 75.2097 100.148C75.0278 100.522 74.9516 100.938 74.9892 101.352L90.8181 212.154C90.8954 212.574 91.0556 212.974 91.2896 213.332C91.5235 213.689 91.8263 213.996 92.1804 214.235C92.5535 214.417 92.9648 214.508 93.3801 214.5C93.7954 214.492 94.2028 214.386 94.5687 214.189L214.816 144.78C215.166 144.554 215.447 144.236 215.629 143.861C215.811 143.486 215.886 143.069 215.848 142.654L200.07 31.8402C199.99 31.4183 199.827 31.0167 199.589 30.6593C199.351 30.3019 199.043 29.996 198.685 29.7597Z" fill="#F0F0F0"/>
<path d="M77.3262 102.691L93.1323 213.494C93.1354 213.659 93.1842 213.82 93.2733 213.959C93.3624 214.098 93.4883 214.21 93.6371 214.282C93.7858 214.354 93.9516 214.384 94.116 214.367C94.2805 214.351 94.4371 214.289 94.5687 214.189L214.816 144.78C215.166 144.554 215.447 144.236 215.629 143.861C215.811 143.486 215.886 143.069 215.848 142.654L200.07 31.8404C200.068 31.6747 200.02 31.5128 199.931 31.3728C199.842 31.2328 199.717 31.1202 199.568 31.0475C199.419 30.9748 199.253 30.9449 199.088 30.9611C198.923 30.9773 198.766 31.039 198.634 31.1393L78.3636 100.565C78.0127 100.791 77.7305 101.108 77.5476 101.483C77.3646 101.858 77.2881 102.276 77.3262 102.691Z" fill="#FAFAFA"/>
<path d="M54.3951 190.317L85.1751 172.539L86.07 178.98L71.9568 187.131C71.9568 187.131 68.1948 188.465 66.7014 188.841C65.208 189.217 54.3951 190.317 54.3951 190.317Z" fill="#E0E0E0"/>
<path d="M86.0871 178.986L90.7041 211.362L71.9739 187.137L86.0871 178.986Z" fill="#E6E6E6"/>
<path d="M90.1512 212.439L73.3647 190.637C73.086 190.312 72.7338 190.058 72.3372 189.896C71.9406 189.734 71.5112 189.67 71.0847 189.708L55.3869 191.988C54.5029 192.082 53.6103 191.92 52.8162 191.52C52.1778 191.155 52.2861 190.734 53.0556 190.585L71.0961 187.114C71.5191 187.05 71.9513 187.097 72.3508 187.25C72.7504 187.403 73.1035 187.656 73.3761 187.986L92.4882 213.75C92.9556 214.383 92.8188 214.594 92.1804 214.223C91.4109 213.744 90.7254 213.141 90.1512 212.439Z" fill="#E0E0E0"/>
<path d="M197.248 30.0447C197.246 29.7236 197.165 29.4078 197.012 29.1255C196.859 28.8432 196.639 28.6029 196.371 28.4259C195.996 28.2465 195.584 28.1571 195.168 28.165C194.753 28.173 194.345 28.2779 193.977 28.4715L73.7067 97.8975C73.34 98.1273 73.0207 98.4253 72.7662 98.7753C72.4837 99.1394 72.2764 99.5559 72.1563 100.001L69.3063 112.638L71.6205 113.966L194.37 43.1148L197.22 30.4836C197.247 30.339 197.259 30.1918 197.254 30.0447H197.248Z" fill="#1683D7"/>
<path opacity="0.2" d="M197.22 30.4837C197.391 29.7142 196.981 29.4121 196.297 29.8054L76.0267 99.2314C75.2755 99.7214 74.7269 100.466 74.482 101.329L71.632 113.966L194.37 43.1149L197.22 30.4837Z" fill="black"/>
<path opacity="0.1" d="M75.1032 100.109C74.8202 100.47 74.6146 100.885 74.499 101.329L71.649 113.966L69.3348 112.632L72.1848 99.9953C72.3049 99.5504 72.5122 99.1338 72.7947 98.7698L75.1032 100.109Z" fill="black"/>
<path opacity="0.4" d="M197.249 30.0391C197.192 29.6116 196.821 29.4691 196.291 29.8054L76.0209 99.2257C75.6516 99.4545 75.3318 99.7549 75.0804 100.109L72.7662 98.7697C73.0208 98.4197 73.34 98.1217 73.7067 97.8919L193.977 28.4659C194.345 28.2723 194.753 28.1673 195.168 28.1594C195.584 28.1515 195.996 28.2408 196.371 28.4203C196.639 28.5973 196.859 28.8376 197.012 29.1199C197.165 29.4022 197.246 29.7179 197.249 30.0391Z" fill="white"/>
<path d="M200.19 32.9004L200.07 31.8402C200.061 31.7884 200.05 31.737 200.036 31.6863C200.038 31.6712 200.038 31.6558 200.036 31.6407C199.842 30.8737 199.373 30.2044 198.719 29.7597C198.345 29.5785 197.933 29.4882 197.517 29.4961C197.101 29.504 196.692 29.61 196.325 29.8053L76.0551 99.2313C75.691 99.4568 75.4031 99.7865 75.2286 100.178C75.0506 100.542 74.9794 100.949 75.0234 101.352L77.3034 117.226L79.6176 118.566L202.31 47.7204L200.19 32.9004Z" fill="#1683D7"/>
<path opacity="0.1" d="M79.5948 118.56L77.2806 117.221L75.0006 101.346C74.9566 100.943 75.0277 100.536 75.2058 100.172L77.5257 101.506C77.3435 101.869 77.2703 102.276 77.3148 102.68L79.5948 118.56Z" fill="black"/>
<path opacity="0.4" d="M200.002 31.6407C199.969 31.4971 199.901 31.364 199.803 31.2537C199.706 31.1434 199.582 31.0594 199.443 31.0094C199.305 30.9595 199.156 30.9452 199.011 30.9678C198.865 30.9905 198.728 31.0494 198.611 31.1391L78.3408 100.565C77.9753 100.789 77.687 101.119 77.5143 101.511L75.24 100.178C75.4159 99.7859 75.7034 99.4548 76.0665 99.2256L196.336 29.8053C196.704 29.61 197.112 29.504 197.528 29.4961C197.944 29.4882 198.356 29.5785 198.73 29.7597C199.369 30.2109 199.821 30.8798 200.002 31.6407Z" fill="white"/>
<path d="M111.52 195.134L110.084 185.039C110.082 184.908 110.044 184.779 109.974 184.668C109.904 184.557 109.805 184.467 109.687 184.408C109.57 184.349 109.438 184.324 109.307 184.335C109.176 184.345 109.05 184.392 108.944 184.469L98.4618 190.523C98.1793 190.703 97.9525 190.959 97.8066 191.261C97.6607 191.563 97.6014 191.899 97.6353 192.233L99.066 202.35C99.066 202.482 99.1028 202.612 99.1724 202.725C99.2419 202.837 99.3415 202.928 99.4598 202.987C99.5782 203.047 99.7107 203.072 99.8424 203.06C99.9742 203.048 100.1 203 100.206 202.92L110.688 196.867C110.976 196.685 111.207 196.427 111.354 196.12C111.501 195.814 111.559 195.472 111.52 195.134Z" fill="#1683D7"/>
<path d="M127.731 185.786L126.289 175.697C126.289 175.565 126.252 175.435 126.183 175.322C126.113 175.21 126.014 175.119 125.895 175.06C125.777 175 125.644 174.975 125.513 174.987C125.381 174.999 125.255 175.047 125.149 175.127L114.667 181.175C114.385 181.356 114.158 181.611 114.013 181.913C113.867 182.215 113.807 182.551 113.84 182.885L115.282 192.979C115.282 193.112 115.319 193.241 115.389 193.354C115.458 193.466 115.558 193.557 115.676 193.617C115.795 193.676 115.927 193.701 116.059 193.689C116.191 193.677 116.317 193.629 116.422 193.549L126.905 187.496C127.188 187.316 127.415 187.06 127.561 186.758C127.707 186.456 127.766 186.12 127.731 185.786Z" fill="#EBEBEB"/>
<path d="M143.942 176.438L142.5 166.349C142.5 166.217 142.463 166.087 142.394 165.974C142.324 165.862 142.225 165.771 142.106 165.712C141.988 165.653 141.855 165.627 141.724 165.639C141.592 165.651 141.466 165.7 141.36 165.779L130.872 171.838C130.59 172.019 130.364 172.275 130.218 172.577C130.072 172.878 130.012 173.215 130.046 173.548L131.488 183.643C131.488 183.775 131.525 183.905 131.594 184.017C131.664 184.13 131.763 184.221 131.882 184.28C132 184.339 132.132 184.364 132.264 184.352C132.396 184.341 132.522 184.292 132.628 184.213L143.11 178.159C143.396 177.979 143.625 177.722 143.772 177.418C143.92 177.113 143.978 176.774 143.942 176.438Z" fill="#EBEBEB"/>
<path d="M160.17 167.096L158.728 157.001C158.728 156.869 158.691 156.739 158.621 156.626C158.552 156.514 158.452 156.423 158.334 156.364C158.216 156.304 158.083 156.279 157.951 156.291C157.82 156.303 157.694 156.351 157.588 156.431L147.06 162.496C146.777 162.676 146.55 162.931 146.404 163.233C146.258 163.535 146.199 163.872 146.233 164.206L147.676 174.295C147.676 174.427 147.712 174.557 147.782 174.669C147.852 174.782 147.951 174.873 148.069 174.932C148.188 174.991 148.32 175.016 148.452 175.004C148.584 174.992 148.71 174.944 148.816 174.865L159.298 168.817C159.59 168.641 159.827 168.386 159.981 168.081C160.135 167.777 160.201 167.435 160.17 167.096Z" fill="#EBEBEB"/>
<path d="M176.364 157.747L174.922 147.63C174.922 147.498 174.885 147.368 174.815 147.255C174.746 147.143 174.646 147.052 174.528 146.993C174.409 146.934 174.277 146.908 174.145 146.92C174.013 146.932 173.888 146.981 173.782 147.06L163.299 153.113C163.016 153.294 162.789 153.549 162.643 153.851C162.497 154.153 162.438 154.49 162.473 154.823L163.915 164.912C163.915 165.045 163.952 165.174 164.021 165.287C164.091 165.4 164.19 165.49 164.309 165.55C164.427 165.609 164.56 165.634 164.691 165.622C164.823 165.61 164.949 165.562 165.055 165.482L175.56 159.446C175.836 159.263 176.057 159.008 176.198 158.709C176.34 158.409 176.397 158.077 176.364 157.747Z" fill="#EBEBEB"/>
<path d="M192.575 148.4L191.132 138.305C191.132 138.173 191.096 138.043 191.026 137.93C190.957 137.818 190.857 137.727 190.739 137.668C190.62 137.609 190.488 137.584 190.356 137.595C190.224 137.607 190.098 137.656 189.992 137.735L179.51 143.788C179.227 143.969 179 144.224 178.854 144.526C178.708 144.828 178.649 145.165 178.684 145.498L180.12 155.61C180.12 155.743 180.157 155.872 180.226 155.985C180.296 156.097 180.396 156.188 180.514 156.248C180.632 156.307 180.765 156.332 180.897 156.32C181.028 156.308 181.154 156.26 181.26 156.18L191.742 150.127C192.029 149.946 192.258 149.688 192.406 149.382C192.553 149.077 192.611 148.737 192.575 148.4Z" fill="#EBEBEB"/>
<path d="M208.785 139.08L207.343 128.985C207.343 128.853 207.306 128.723 207.237 128.611C207.167 128.498 207.068 128.407 206.949 128.348C206.831 128.289 206.699 128.264 206.567 128.276C206.435 128.288 206.309 128.336 206.203 128.415L195.721 134.469C195.438 134.65 195.212 134.905 195.066 135.207C194.92 135.509 194.861 135.845 194.894 136.179L196.331 146.274C196.333 146.405 196.371 146.533 196.441 146.645C196.511 146.756 196.61 146.846 196.728 146.905C196.845 146.964 196.977 146.989 197.108 146.978C197.239 146.967 197.364 146.921 197.471 146.844L207.953 140.79C208.237 140.61 208.465 140.355 208.612 140.053C208.758 139.751 208.819 139.414 208.785 139.08Z" fill="#EBEBEB"/>
<path d="M108.705 175.384L107.263 165.3C107.261 165.169 107.222 165.04 107.153 164.929C107.083 164.818 106.983 164.728 106.866 164.669C106.748 164.61 106.617 164.585 106.486 164.596C106.355 164.606 106.229 164.653 106.123 164.73L95.6403 170.784C95.3579 170.964 95.1311 171.22 94.9852 171.522C94.8393 171.824 94.78 172.16 94.8138 172.494L96.2502 182.588C96.2523 182.72 96.2904 182.848 96.3604 182.959C96.4304 183.071 96.5296 183.161 96.6472 183.219C96.7648 183.278 96.8962 183.304 97.0273 183.293C97.1583 183.282 97.2838 183.236 97.3902 183.158L107.873 177.105C108.156 176.922 108.384 176.665 108.531 176.361C108.677 176.057 108.738 175.719 108.705 175.384Z" fill="#1683D7"/>
<path d="M124.916 166.035L123.473 155.941C123.471 155.809 123.433 155.681 123.363 155.57C123.293 155.458 123.194 155.368 123.077 155.309C122.959 155.251 122.827 155.225 122.696 155.236C122.565 155.247 122.44 155.293 122.333 155.371L111.851 161.424C111.569 161.605 111.342 161.86 111.196 162.162C111.05 162.464 110.991 162.8 111.025 163.134L112.461 173.229C112.463 173.36 112.501 173.489 112.571 173.6C112.641 173.711 112.74 173.801 112.858 173.86C112.976 173.919 113.107 173.944 113.238 173.933C113.369 173.922 113.495 173.876 113.601 173.799L124.083 167.745C124.365 167.563 124.591 167.308 124.738 167.007C124.885 166.705 124.946 166.369 124.916 166.035Z" fill="#EBEBEB"/>
<path d="M141.126 156.687L139.684 146.593C139.682 146.461 139.644 146.333 139.574 146.222C139.504 146.11 139.405 146.02 139.287 145.962C139.17 145.903 139.038 145.877 138.907 145.888C138.776 145.899 138.651 145.945 138.544 146.023L128.062 152.076C127.78 152.257 127.553 152.512 127.407 152.814C127.261 153.116 127.202 153.453 127.235 153.786L128.672 163.881C128.674 164.012 128.712 164.141 128.782 164.252C128.852 164.363 128.951 164.453 129.069 164.512C129.186 164.571 129.318 164.596 129.449 164.585C129.58 164.575 129.705 164.528 129.812 164.451L140.294 158.397C140.576 158.216 140.802 157.96 140.949 157.659C141.096 157.357 141.157 157.021 141.126 156.687Z" fill="#EBEBEB"/>
<path d="M157.32 147.34L155.878 137.245C155.876 137.113 155.838 136.985 155.768 136.874C155.698 136.762 155.599 136.672 155.481 136.614C155.363 136.555 155.232 136.529 155.101 136.54C154.97 136.551 154.844 136.598 154.738 136.675L144.267 142.74C143.985 142.921 143.759 143.176 143.613 143.478C143.467 143.78 143.407 144.116 143.441 144.45L144.877 154.544C144.879 154.676 144.917 154.804 144.987 154.915C145.057 155.027 145.156 155.117 145.274 155.175C145.392 155.234 145.523 155.26 145.654 155.249C145.785 155.238 145.911 155.192 146.017 155.114L156.499 149.061C156.781 148.877 157.007 148.619 157.152 148.316C157.297 148.012 157.355 147.674 157.32 147.34Z" fill="#EBEBEB"/>
<path d="M173.548 137.991L172.106 127.902C172.106 127.77 172.069 127.64 171.999 127.528C171.93 127.415 171.83 127.324 171.712 127.265C171.594 127.206 171.461 127.181 171.329 127.193C171.198 127.205 171.072 127.253 170.966 127.332L160.478 133.38C160.196 133.561 159.969 133.817 159.824 134.119C159.678 134.42 159.618 134.757 159.651 135.09L161.088 145.185C161.09 145.316 161.128 145.445 161.198 145.556C161.268 145.667 161.367 145.757 161.485 145.816C161.602 145.875 161.734 145.9 161.865 145.889C161.996 145.879 162.121 145.832 162.228 145.755L172.71 139.69C172.991 139.51 173.218 139.257 173.366 138.958C173.514 138.658 173.576 138.324 173.548 137.991Z" fill="#EBEBEB"/>
<path d="M189.759 128.643L188.317 118.56C188.317 118.428 188.28 118.298 188.21 118.186C188.141 118.073 188.041 117.982 187.923 117.923C187.804 117.864 187.672 117.839 187.54 117.851C187.408 117.862 187.282 117.911 187.177 117.99L176.7 124.049C176.417 124.229 176.19 124.485 176.044 124.787C175.898 125.089 175.839 125.426 175.873 125.759L177.31 135.848C177.312 135.98 177.35 136.108 177.42 136.219C177.49 136.331 177.589 136.421 177.707 136.479C177.824 136.538 177.956 136.564 178.087 136.553C178.218 136.542 178.344 136.495 178.45 136.418L188.932 130.365C189.215 130.182 189.442 129.924 189.588 129.621C189.734 129.317 189.793 128.979 189.759 128.643Z" fill="#EBEBEB"/>
<path d="M205.97 119.301L204.528 109.206C204.528 109.074 204.491 108.944 204.421 108.832C204.352 108.719 204.252 108.628 204.134 108.569C204.015 108.51 203.883 108.485 203.751 108.497C203.619 108.509 203.493 108.557 203.388 108.636L192.9 114.69C192.618 114.871 192.392 115.127 192.248 115.429C192.103 115.731 192.044 116.067 192.079 116.4L193.515 126.489C193.517 126.62 193.555 126.749 193.625 126.86C193.695 126.971 193.794 127.061 193.912 127.12C194.03 127.179 194.161 127.204 194.292 127.193C194.423 127.183 194.549 127.136 194.655 127.059L205.137 121.011C205.419 120.829 205.645 120.573 205.791 120.272C205.938 119.971 206 119.635 205.97 119.301Z" fill="#EBEBEB"/>
<path d="M105.883 155.61L104.447 145.515C104.445 145.384 104.407 145.255 104.337 145.144C104.267 145.033 104.167 144.943 104.05 144.884C103.932 144.825 103.801 144.8 103.67 144.811C103.539 144.822 103.413 144.868 103.307 144.945L92.8131 151.05C92.532 151.232 92.3063 151.488 92.1606 151.789C92.0149 152.091 91.9547 152.427 91.9866 152.76L93.4287 162.849C93.4287 162.981 93.4655 163.111 93.5351 163.224C93.6047 163.336 93.7042 163.427 93.8226 163.486C93.9409 163.545 94.0734 163.571 94.2052 163.559C94.337 163.547 94.4628 163.498 94.5687 163.419L105.057 157.32C105.339 157.139 105.565 156.883 105.711 156.582C105.857 156.28 105.916 155.944 105.883 155.61Z" fill="#1683D7"/>
<path d="M122.094 146.285L120.658 136.19C120.656 136.059 120.617 135.93 120.547 135.819C120.477 135.708 120.378 135.618 120.261 135.559C120.143 135.5 120.012 135.475 119.881 135.486C119.75 135.496 119.624 135.543 119.518 135.62L109.035 141.674C108.754 141.856 108.529 142.111 108.383 142.413C108.237 142.714 108.177 143.05 108.209 143.384L109.651 153.478C109.653 153.61 109.691 153.738 109.761 153.849C109.831 153.961 109.93 154.051 110.048 154.109C110.165 154.168 110.297 154.194 110.428 154.183C110.559 154.172 110.684 154.125 110.791 154.048L121.273 147.995C121.555 147.813 121.78 147.558 121.925 147.256C122.07 146.954 122.128 146.618 122.094 146.285Z" fill="#EBEBEB"/>
<path d="M138.305 136.937L136.868 126.842C136.866 126.711 136.828 126.582 136.758 126.471C136.688 126.36 136.589 126.27 136.472 126.211C136.354 126.152 136.222 126.127 136.091 126.138C135.96 126.148 135.835 126.195 135.728 126.272L125.246 132.326C124.966 132.508 124.74 132.764 124.595 133.065C124.449 133.367 124.388 133.702 124.42 134.036L125.862 144.13C125.864 144.262 125.902 144.39 125.972 144.501C126.042 144.613 126.141 144.703 126.259 144.761C126.376 144.82 126.508 144.846 126.639 144.835C126.77 144.824 126.895 144.778 127.002 144.7L137.484 138.647C137.765 138.466 137.991 138.21 138.136 137.908C138.281 137.606 138.339 137.27 138.305 136.937Z" fill="#EBEBEB"/>
<path d="M154.516 127.589L153.079 117.494C153.077 117.363 153.039 117.234 152.969 117.123C152.899 117.012 152.8 116.922 152.682 116.863C152.565 116.804 152.433 116.779 152.302 116.79C152.171 116.8 152.046 116.847 151.939 116.924L141.457 122.977C141.176 123.16 140.951 123.416 140.805 123.717C140.66 124.019 140.599 124.354 140.63 124.687L142.073 134.782C142.075 134.914 142.113 135.042 142.183 135.153C142.253 135.265 142.352 135.355 142.469 135.413C142.587 135.472 142.719 135.498 142.85 135.487C142.981 135.476 143.106 135.429 143.213 135.352L153.695 129.299C153.976 129.117 154.202 128.862 154.347 128.56C154.492 128.258 154.55 127.922 154.516 127.589Z" fill="#EBEBEB"/>
<path d="M170.726 118.241L169.29 108.146C169.288 108.015 169.25 107.886 169.18 107.775C169.11 107.664 169.011 107.574 168.893 107.515C168.775 107.456 168.644 107.431 168.513 107.442C168.382 107.452 168.256 107.499 168.15 107.576L157.668 113.63C157.387 113.812 157.162 114.068 157.016 114.369C156.87 114.671 156.81 115.006 156.841 115.34L158.283 125.434C158.285 125.566 158.323 125.694 158.393 125.805C158.463 125.917 158.563 126.007 158.68 126.065C158.798 126.124 158.929 126.15 159.06 126.139C159.191 126.128 159.317 126.082 159.423 126.004L169.906 119.951C170.187 119.769 170.413 119.514 170.557 119.212C170.702 118.91 170.761 118.574 170.726 118.241Z" fill="#EBEBEB"/>
<path d="M186.96 108.87L185.524 98.7753C185.522 98.6439 185.483 98.5155 185.413 98.4042C185.344 98.2929 185.244 98.203 185.127 98.1442C185.009 98.0854 184.878 98.06 184.747 98.0708C184.616 98.0816 184.49 98.1281 184.384 98.2053L173.85 104.31C173.569 104.493 173.344 104.748 173.198 105.05C173.053 105.351 172.992 105.687 173.024 106.02L174.466 116.115C174.468 116.246 174.506 116.375 174.576 116.486C174.646 116.597 174.745 116.687 174.863 116.746C174.98 116.805 175.112 116.83 175.243 116.819C175.374 116.808 175.499 116.762 175.606 116.685L186.111 110.58C186.398 110.403 186.63 110.149 186.78 109.846C186.93 109.544 186.992 109.206 186.96 108.87Z" fill="#EBEBEB"/>
<path d="M203.148 99.5448L201.712 89.4558C201.71 89.3243 201.671 89.1959 201.602 89.0846C201.532 88.9733 201.432 88.8834 201.315 88.8246C201.197 88.7658 201.066 88.7404 200.935 88.7512C200.804 88.762 200.678 88.8085 200.572 88.8858L190.089 94.9335C189.808 95.1156 189.583 95.3713 189.437 95.6728C189.291 95.9743 189.231 96.3101 189.263 96.6435L190.705 106.738C190.707 106.87 190.745 106.998 190.815 107.109C190.885 107.221 190.984 107.311 191.102 107.369C191.219 107.428 191.351 107.453 191.482 107.443C191.613 107.432 191.739 107.385 191.845 107.308L202.35 101.243C202.626 101.06 202.846 100.805 202.987 100.506C203.128 100.206 203.183 99.8738 203.148 99.5448Z" fill="#EBEBEB"/>
<path d="M103.067 135.877L101.625 125.788C101.625 125.655 101.589 125.526 101.519 125.413C101.449 125.301 101.35 125.21 101.232 125.15C101.113 125.091 100.981 125.066 100.849 125.078C100.717 125.09 100.591 125.138 100.485 125.218L90.0031 131.265C89.7211 131.447 89.4947 131.702 89.3488 132.004C89.2029 132.306 89.1433 132.642 89.1766 132.975L90.6301 143.07C90.6301 143.202 90.6669 143.332 90.7365 143.445C90.806 143.557 90.9056 143.648 91.0239 143.707C91.1423 143.767 91.2748 143.792 91.4065 143.78C91.5383 143.768 91.6642 143.719 91.7701 143.64L102.252 137.587C102.533 137.405 102.758 137.149 102.902 136.847C103.046 136.545 103.103 136.209 103.067 135.877Z" fill="#1683D7"/>
<path d="M119.278 126.54L117.836 116.451C117.836 116.319 117.799 116.189 117.73 116.077C117.66 115.964 117.561 115.873 117.442 115.814C117.324 115.755 117.191 115.73 117.06 115.742C116.928 115.754 116.802 115.802 116.696 115.881L106.214 121.935C105.931 122.115 105.704 122.37 105.558 122.672C105.412 122.974 105.353 123.311 105.387 123.645L106.829 133.734C106.829 133.866 106.866 133.996 106.936 134.108C107.005 134.221 107.105 134.312 107.223 134.371C107.342 134.43 107.474 134.455 107.606 134.443C107.738 134.431 107.864 134.383 107.969 134.304L118.452 128.25C118.735 128.07 118.962 127.815 119.108 127.513C119.254 127.211 119.313 126.874 119.278 126.54Z" fill="#EBEBEB"/>
<path d="M135.489 117.186L134.047 107.092C134.047 106.959 134.01 106.83 133.941 106.717C133.871 106.605 133.771 106.514 133.653 106.454C133.535 106.395 133.402 106.37 133.27 106.382C133.139 106.394 133.013 106.442 132.907 106.522L122.425 112.575C122.142 112.755 121.915 113.011 121.769 113.313C121.623 113.615 121.564 113.951 121.598 114.285L123.04 124.374C123.04 124.506 123.077 124.636 123.147 124.749C123.216 124.861 123.316 124.952 123.434 125.011C123.552 125.071 123.685 125.096 123.817 125.084C123.948 125.072 124.074 125.023 124.18 124.944L134.663 118.896C134.944 118.715 135.171 118.46 135.317 118.158C135.463 117.856 135.522 117.52 135.489 117.186Z" fill="#EBEBEB"/>
<path d="M151.7 107.838L150.258 97.7438C150.258 97.6114 150.221 97.4817 150.151 97.3692C150.082 97.2566 149.982 97.1657 149.864 97.1065C149.745 97.0473 149.613 97.0222 149.481 97.0341C149.349 97.046 149.224 97.0944 149.118 97.1738L138.635 103.227C138.353 103.407 138.125 103.663 137.979 103.965C137.833 104.267 137.774 104.604 137.809 104.937L139.245 115.032C139.247 115.163 139.285 115.292 139.355 115.403C139.425 115.514 139.525 115.604 139.642 115.663C139.76 115.722 139.891 115.747 140.022 115.736C140.153 115.726 140.279 115.679 140.385 115.602L150.868 109.548C151.151 109.368 151.378 109.113 151.525 108.811C151.672 108.509 151.732 108.173 151.7 107.838Z" fill="#EBEBEB"/>
<path d="M167.911 98.4905L166.469 88.3959C166.469 88.2635 166.432 88.1338 166.362 88.0213C166.293 87.9087 166.193 87.8177 166.075 87.7586C165.956 87.6994 165.824 87.6743 165.692 87.6862C165.56 87.6981 165.434 87.7465 165.329 87.8259L154.846 93.8792C154.563 94.0595 154.336 94.3149 154.19 94.6169C154.044 94.9189 153.985 95.2556 154.02 95.5892L155.456 105.684C155.458 105.815 155.496 105.944 155.566 106.055C155.636 106.166 155.735 106.256 155.853 106.315C155.971 106.374 156.102 106.399 156.233 106.388C156.364 106.378 156.49 106.331 156.596 106.254L167.078 100.201C167.362 100.021 167.59 99.7654 167.737 99.4635C167.884 99.1615 167.944 98.8247 167.911 98.4905Z" fill="#EBEBEB"/>
<path d="M184.11 89.1424L182.668 79.0477C182.668 78.9154 182.631 78.7857 182.562 78.6731C182.492 78.5606 182.392 78.4696 182.274 78.4104C182.156 78.3513 182.023 78.3262 181.891 78.3381C181.76 78.35 181.634 78.3983 181.528 78.4777L171.046 84.5311C170.763 84.7118 170.536 84.9673 170.39 85.2692C170.245 85.5711 170.185 85.9075 170.219 86.2411L171.661 96.3301C171.663 96.4616 171.701 96.5899 171.771 96.7012C171.841 96.8125 171.941 96.9025 172.058 96.9613C172.176 97.02 172.307 97.0454 172.438 97.0347C172.569 97.0239 172.695 96.9773 172.801 96.9001L183.284 90.8467C183.565 90.6665 183.791 90.4119 183.937 90.1111C184.083 89.8103 184.143 89.4751 184.11 89.1424Z" fill="#EBEBEB"/>
<path d="M200.332 79.8001L198.89 69.7054C198.89 69.5731 198.853 69.4434 198.784 69.3308C198.714 69.2183 198.615 69.1273 198.496 69.0681C198.378 69.009 198.246 68.9839 198.114 68.9958C197.982 69.0077 197.856 69.056 197.75 69.1354L187.268 75.1888C186.985 75.3695 186.759 75.625 186.613 75.9269C186.467 76.2288 186.408 76.5652 186.441 76.8988L187.878 86.9935C187.88 87.125 187.918 87.2533 187.988 87.3646C188.058 87.4759 188.157 87.5659 188.275 87.6247C188.392 87.6835 188.524 87.7089 188.655 87.6981C188.786 87.6873 188.911 87.6407 189.018 87.5635L199.5 81.5101C199.784 81.3301 200.012 81.075 200.158 80.773C200.305 80.4711 200.366 80.1343 200.332 79.8001Z" fill="#EBEBEB"/>
<path d="M100.576 118.036L100.212 115.459C100.212 115.327 100.175 115.197 100.105 115.085C100.036 114.972 99.9362 114.881 99.8178 114.822C99.6995 114.763 99.567 114.738 99.4352 114.75C99.3034 114.762 99.1776 114.81 99.0717 114.889L88.5837 120.954C88.3013 121.135 88.0745 121.39 87.9286 121.692C87.7826 121.994 87.7233 122.331 87.7572 122.664L88.1163 125.241C88.1183 125.372 88.1564 125.5 88.2264 125.612C88.2964 125.723 88.3956 125.813 88.5132 125.872C88.6308 125.93 88.7623 125.956 88.8933 125.945C89.0243 125.934 89.1499 125.888 89.2563 125.811L99.75 119.734C100.029 119.553 100.254 119.299 100.399 119C100.545 118.701 100.606 118.367 100.576 118.036Z" fill="#E6E6E6"/>
<path d="M116.787 108.688L116.423 106.111C116.423 105.979 116.386 105.849 116.316 105.737C116.247 105.624 116.147 105.533 116.029 105.474C115.91 105.415 115.778 105.39 115.646 105.402C115.514 105.414 115.388 105.462 115.283 105.541L104.795 111.606C104.512 111.787 104.285 112.042 104.139 112.344C103.993 112.646 103.934 112.983 103.968 113.316L104.327 115.893C104.329 116.024 104.367 116.152 104.437 116.264C104.507 116.375 104.606 116.465 104.724 116.524C104.842 116.583 104.973 116.608 105.104 116.597C105.235 116.586 105.361 116.54 105.467 116.463L115.955 110.409C116.239 110.227 116.467 109.97 116.614 109.666C116.761 109.362 116.821 109.024 116.787 108.688Z" fill="#E6E6E6"/>
<path d="M132.998 99.3398L132.633 96.7634C132.631 96.6319 132.593 96.5035 132.523 96.3923C132.453 96.281 132.354 96.191 132.236 96.1322C132.119 96.0734 131.987 96.048 131.856 96.0588C131.725 96.0696 131.6 96.1161 131.493 96.1934L121.005 102.258C120.723 102.439 120.496 102.694 120.35 102.996C120.204 103.298 120.145 103.635 120.179 103.968L120.538 106.545C120.538 106.677 120.575 106.807 120.644 106.919C120.714 107.032 120.813 107.123 120.932 107.182C121.05 107.241 121.183 107.266 121.314 107.254C121.446 107.242 121.572 107.194 121.678 107.115L132.166 101.061C132.45 100.879 132.678 100.622 132.825 100.318C132.972 100.014 133.032 99.6755 132.998 99.3398Z" fill="#E6E6E6"/>
<path d="M149.209 89.9973L148.844 87.4152C148.842 87.2838 148.804 87.1554 148.734 87.0441C148.664 86.9328 148.565 86.8429 148.447 86.7841C148.33 86.7253 148.198 86.6999 148.067 86.7107C147.936 86.7215 147.811 86.768 147.704 86.8452L137.216 92.91C136.934 93.0907 136.707 93.3462 136.561 93.6481C136.415 93.95 136.356 94.2865 136.39 94.62L136.749 97.1964C136.749 97.3288 136.786 97.4585 136.855 97.571C136.925 97.6836 137.024 97.7745 137.143 97.8337C137.261 97.8929 137.393 97.9179 137.525 97.9061C137.657 97.8942 137.783 97.8458 137.889 97.7664L148.377 91.7187C148.66 91.5355 148.887 91.2781 149.034 90.9745C149.181 90.671 149.241 90.333 149.209 89.9973Z" fill="#E6E6E6"/>
<path d="M165.42 80.6494L165.055 78.0673C165.053 77.9359 165.015 77.8075 164.945 77.6962C164.875 77.5849 164.776 77.495 164.658 77.4362C164.54 77.3774 164.409 77.352 164.278 77.3628C164.147 77.3736 164.021 77.4201 163.915 77.4973L153.427 83.5621C153.145 83.7433 152.918 83.9989 152.773 84.3006C152.627 84.6024 152.567 84.9386 152.6 85.2721L152.959 87.8485C152.959 87.9808 152.996 88.1105 153.066 88.2231C153.135 88.3357 153.235 88.4266 153.353 88.4858C153.472 88.545 153.604 88.57 153.736 88.5581C153.868 88.5463 153.994 88.4979 154.099 88.4185L164.587 82.3708C164.871 82.1876 165.098 81.9302 165.245 81.6266C165.391 81.3231 165.452 80.9851 165.42 80.6494Z" fill="#E6E6E6"/>
<path d="M181.631 71.3013L181.266 68.725C181.266 68.5926 181.229 68.4629 181.159 68.3504C181.09 68.2378 180.99 68.1468 180.872 68.0877C180.754 68.0285 180.621 68.0034 180.489 68.0153C180.357 68.0272 180.232 68.0756 180.126 68.155L169.638 74.214C169.356 74.3952 169.129 74.6508 168.983 74.9526C168.838 75.2543 168.778 75.5905 168.811 75.924L169.17 78.5061C169.172 78.6376 169.21 78.766 169.28 78.8773C169.35 78.9886 169.45 79.0785 169.567 79.1373C169.685 79.1961 169.816 79.2215 169.947 79.2107C170.078 79.1999 170.204 79.1534 170.31 79.0761L180.798 73.0227C181.082 72.84 181.309 72.5826 181.456 72.279C181.603 71.9753 181.663 71.637 181.631 71.3013Z" fill="#E6E6E6"/>
<path d="M197.836 61.9535L197.477 59.3771C197.477 59.2447 197.44 59.115 197.37 59.0025C197.301 58.8899 197.201 58.7989 197.083 58.7398C196.964 58.6806 196.832 58.6555 196.7 58.6674C196.568 58.6793 196.442 58.7277 196.337 58.8071L185.854 64.8605C185.571 65.0407 185.344 65.2961 185.198 65.5981C185.052 65.9001 184.993 66.2368 185.028 66.5705L185.387 69.1469C185.389 69.2783 185.427 69.4067 185.497 69.518C185.567 69.6293 185.666 69.7192 185.784 69.778C185.901 69.8368 186.033 69.8622 186.164 69.8514C186.295 69.8406 186.42 69.7941 186.527 69.7169L197.015 63.6635C197.296 63.4816 197.521 63.2257 197.666 62.924C197.811 62.6222 197.869 62.2864 197.836 61.9535Z" fill="#E6E6E6"/>
<path opacity="0.2" d="M88.35 102.817C88.2984 102.064 88.4539 101.311 88.7995 100.639C89.1451 99.9684 89.6678 99.4045 90.3108 99.0091C91.5876 98.2738 92.7789 98.7811 92.9784 100.149C93.0313 100.903 92.8758 101.657 92.529 102.329C92.1822 103 91.6573 103.563 91.0119 103.957C89.7408 104.692 88.5495 104.185 88.35 102.817Z" fill="black"/>
<path opacity="0.2" d="M104.578 93.48C104.525 92.7267 104.68 91.9733 105.026 91.3019C105.372 90.6306 105.895 90.0669 106.539 89.6724C107.816 88.9314 109.007 89.4387 109.206 90.8124C109.259 91.5655 109.103 92.3186 108.756 92.9892C108.409 93.6597 107.885 94.2219 107.24 94.6143C105.963 95.3268 104.772 94.8195 104.578 93.48Z" fill="black"/>
<path opacity="0.2" d="M120.772 84.1036C120.719 83.3502 120.874 82.5969 121.219 81.9255C121.565 81.2541 122.088 80.6905 122.732 80.296C124.009 79.555 125.206 80.0623 125.4 81.436C125.452 82.1884 125.297 82.9409 124.952 83.6112C124.606 84.2816 124.083 84.8443 123.439 85.2379C122.162 85.9732 120.965 85.4659 120.772 84.1036Z" fill="black"/>
<path opacity="0.2" d="M153.182 65.3904C153.129 64.6371 153.284 63.8837 153.63 63.2123C153.975 62.541 154.499 61.9773 155.143 61.5828C156.419 60.8475 157.611 61.3548 157.805 62.7228C157.86 63.4765 157.706 64.2308 157.36 64.9027C157.014 65.5745 156.489 66.1378 155.844 66.5304C154.567 67.26 153.376 66.7584 153.182 65.3904Z" fill="black"/>
<path opacity="0.2" d="M169.404 56.031C169.35 55.2775 169.504 54.5237 169.85 53.8521C170.196 53.1805 170.72 52.617 171.365 52.2234C172.642 51.4824 173.833 51.9897 174.032 53.3634C174.085 54.1174 173.93 54.8714 173.583 55.543C173.236 56.2145 172.711 56.7777 172.066 57.171C170.789 57.9006 169.598 57.3933 169.404 56.031Z" fill="black"/>
<path opacity="0.2" d="M185.598 46.6775C185.545 45.9242 185.7 45.1708 186.046 44.4995C186.391 43.8281 186.915 43.2644 187.559 42.8699C188.835 42.1289 190.032 42.6362 190.226 44.0099C190.279 44.7624 190.123 45.5148 189.778 46.1852C189.432 46.8556 188.909 47.4182 188.265 47.8118C186.96 48.5471 185.82 48.0398 185.598 46.6775Z" fill="black"/>
<path d="M86.6743 87.4155C84.9643 86.418 83.2885 86.2755 82.0117 87.0108C80.7349 87.7461 80.0281 89.2509 80.0281 91.2516C80.0392 92.1874 80.1773 93.1174 80.4385 94.0161L81.4531 93.4461C81.2709 92.7324 81.1752 91.9995 81.1681 91.263C81.1681 89.6898 81.6697 88.5327 82.5817 88.0083C82.9559 87.7993 83.3787 87.6931 83.8072 87.7005C84.6156 87.739 85.4006 87.9843 86.0872 88.413C89.1196 90.1686 91.5877 94.4436 91.5877 97.9434C91.5894 98.1928 91.576 98.4422 91.5478 98.6901C91.5338 99.1864 91.4026 99.6724 91.1648 100.108C90.9271 100.544 90.5895 100.918 90.1798 101.198C89.6572 101.48 89.0543 101.577 88.4698 101.472C88.3547 101.84 88.3064 102.226 88.3273 102.612C88.5403 102.646 88.7557 102.663 88.9714 102.663C89.5991 102.671 90.2174 102.509 90.7612 102.196C91.2701 101.876 91.7014 101.448 92.0238 100.941C92.3463 100.434 92.5517 99.8619 92.6251 99.2658C92.7019 98.833 92.74 98.3943 92.7391 97.9548C92.7448 94.0503 90.0202 89.3478 86.6743 87.4155Z" fill="#F5F5F5"/>
<path d="M102.896 78.0558C101.186 77.0583 99.5106 76.9158 98.2338 77.6511C96.957 78.3864 96.2502 79.8912 96.2502 81.8919C96.2614 82.8278 96.3994 83.7577 96.6606 84.6564L97.6752 84.0864C97.4931 83.3728 97.3974 82.6398 97.3902 81.9033C97.3902 80.3301 97.8918 79.173 98.8038 78.6486C99.178 78.4397 99.6008 78.3335 100.029 78.3408C100.838 78.3794 101.623 78.6247 102.309 79.0533C105.342 80.8089 107.81 85.0839 107.81 88.5837C107.812 88.8332 107.798 89.0826 107.77 89.3304C107.756 89.8268 107.625 90.3127 107.387 90.7486C107.149 91.1845 106.812 91.558 106.402 91.8384C105.879 92.1207 105.276 92.2171 104.692 92.112C104.577 92.4805 104.529 92.8666 104.549 93.252C104.762 93.2859 104.978 93.303 105.194 93.3033C105.821 93.3112 106.44 93.1497 106.983 92.8359C107.492 92.5168 107.924 92.0882 108.246 91.5814C108.568 91.0746 108.774 90.5023 108.847 89.9061C108.924 89.4734 108.962 89.0347 108.961 88.5951C108.967 84.7077 106.242 79.9881 102.896 78.0558Z" fill="#F5F5F5"/>
<path d="M119.09 68.7021C117.38 67.7046 115.704 67.5621 114.428 68.2974C113.151 69.0327 112.444 70.5375 112.444 72.5382C112.455 73.474 112.593 74.404 112.854 75.3027L113.869 74.7327C113.687 74.019 113.591 73.2861 113.584 72.5496C113.584 70.9764 114.086 69.8193 114.998 69.2949C115.372 69.0859 115.795 68.9797 116.223 68.9871C117.031 69.0256 117.817 69.271 118.503 69.6996C121.535 71.4552 124.004 75.7302 124.004 79.23C124.005 79.4795 123.992 79.7288 123.964 79.9767C123.95 80.473 123.818 80.959 123.581 81.3949C123.343 81.8308 123.005 82.2042 122.596 82.4847C122.073 82.7669 121.47 82.8634 120.886 82.7583C120.771 83.1267 120.722 83.5128 120.743 83.8983C120.956 83.9321 121.172 83.9493 121.387 83.9496C122.015 83.9574 122.633 83.7959 123.177 83.4822C123.686 83.163 124.117 82.7345 124.44 82.2277C124.762 81.7209 124.968 81.1486 125.041 80.5524C125.118 80.1196 125.156 79.6809 125.155 79.2414C125.161 75.354 122.436 70.6344 119.09 68.7021Z" fill="#F5F5F5"/>
<path d="M151.506 50.0175C149.796 49.02 148.12 48.8775 146.843 49.6128C145.567 50.3481 144.86 51.8529 144.86 53.8536C144.871 54.7894 145.009 55.7194 145.27 56.6181L146.285 56.0481C146.103 55.3345 146.007 54.6015 146 53.865C146 52.2918 146.501 51.1347 147.413 50.6103C147.788 50.4014 148.21 50.2952 148.639 50.3025C149.447 50.3411 150.232 50.5864 150.919 51.015C153.951 52.7706 156.419 57.0456 156.419 60.5454C156.421 60.7949 156.408 61.0442 156.38 61.2921C156.366 61.7884 156.234 62.2744 155.997 62.7103C155.759 63.1462 155.421 63.5197 155.012 63.8001C154.489 64.0823 153.886 64.1788 153.302 64.0737C153.186 64.4422 153.138 64.8283 153.159 65.2137C153.372 65.2476 153.587 65.2647 153.803 65.265C154.431 65.2728 155.049 65.1114 155.593 64.7976C156.102 64.4785 156.533 64.0499 156.856 63.5431C157.178 63.0363 157.383 62.464 157.457 61.8678C157.534 61.4351 157.572 60.9963 157.571 60.5568C157.577 56.6694 154.852 51.9498 151.506 50.0175Z" fill="#F5F5F5"/>
<path d="M167.728 40.6525C166.018 39.655 164.342 39.5125 163.066 40.2478C161.789 40.9831 161.082 42.4879 161.082 44.4886C161.093 45.4244 161.231 46.3544 161.492 47.2531L162.507 46.6831C162.325 45.9695 162.229 45.2365 162.222 44.5C162.222 42.9268 162.724 41.7697 163.636 41.2453C164.01 41.0364 164.433 40.9302 164.861 40.9375C165.67 40.9761 166.455 41.2214 167.141 41.65C170.174 43.4056 172.642 47.6806 172.642 51.1804C172.643 51.4299 172.63 51.6792 172.602 51.9271C172.588 52.4234 172.457 52.9094 172.219 53.3453C171.981 53.7812 171.643 54.1547 171.234 54.4351C170.711 54.7174 170.108 54.8138 169.524 54.7087C169.409 55.0772 169.36 55.4633 169.381 55.8487C169.594 55.8826 169.81 55.8997 170.025 55.9C170.653 55.9078 171.271 55.7464 171.815 55.4326C172.324 55.1135 172.755 54.6849 173.078 54.1781C173.4 53.6713 173.606 53.099 173.679 52.5028C173.756 52.0701 173.794 51.6313 173.793 51.1918C173.799 47.3101 171.074 42.5848 167.728 40.6525Z" fill="#F5F5F5"/>
<path d="M183.922 31.2988C182.212 30.3013 180.536 30.1588 179.259 30.8941C177.983 31.6294 177.27 33.1342 177.27 35.1349C177.281 36.0707 177.419 37.0007 177.68 37.8994L178.695 37.3294C178.513 36.6157 178.417 35.8828 178.41 35.1463C178.41 33.5731 178.912 32.416 179.824 31.8916C180.198 31.6826 180.621 31.5764 181.049 31.5838C181.858 31.6223 182.643 31.8676 183.329 32.2963C186.362 34.0519 188.83 38.3269 188.83 41.8267C188.831 42.0761 188.818 42.3255 188.79 42.5734C188.776 43.0697 188.645 43.5557 188.407 43.9916C188.169 44.4275 187.831 44.8009 187.422 45.0814C186.899 45.3636 186.296 45.4601 185.712 45.355C185.597 45.7234 185.548 46.1095 185.569 46.495C185.782 46.5288 185.998 46.5459 186.213 46.5463C186.841 46.5541 187.459 46.3926 188.003 46.0789C188.512 45.7597 188.943 45.3312 189.266 44.8244C189.588 44.3175 189.794 43.7452 189.867 43.1491C189.944 42.7163 189.982 42.2776 189.981 41.8381C189.992 37.9507 187.268 33.2311 183.922 31.2988Z" fill="#F5F5F5"/>
<path d="M200.765 179.55L196.935 186.202C196.683 186.618 196.607 187.116 196.723 187.588C196.839 188.06 197.138 188.467 197.554 188.718C197.969 188.97 198.468 189.046 198.94 188.93C199.412 188.814 199.818 188.516 200.07 188.1L203.923 181.408C204.294 180.77 203.895 179.841 203.028 179.339C202.162 178.838 201.136 178.929 200.765 179.55Z" fill="#455A64"/>
<path d="M231.249 167.837L237.901 171.667C238.105 171.794 238.333 171.878 238.571 171.916C238.808 171.954 239.051 171.944 239.284 171.887C239.518 171.83 239.738 171.727 239.931 171.584C240.125 171.441 240.288 171.262 240.411 171.055C240.535 170.849 240.616 170.62 240.65 170.382C240.683 170.143 240.67 169.901 240.609 169.668C240.548 169.436 240.442 169.217 240.296 169.026C240.15 168.835 239.968 168.675 239.759 168.555L233.067 164.73C232.429 164.36 231.5 164.759 230.998 165.625C230.497 166.491 230.611 167.466 231.249 167.837Z" fill="#455A64"/>
<path d="M238.619 137.849H238.585L222.38 128.495H222.334C218.777 126.472 213.875 126.785 208.466 129.897C197.596 136.167 188.784 151.438 188.784 163.989C188.784 170.259 190.979 174.642 194.518 176.706H194.547L210.752 186.065H210.792C214.349 188.1 219.256 187.775 224.671 184.669C235.535 178.399 244.348 163.128 244.348 150.583C244.348 144.313 242.159 139.912 238.619 137.849Z" fill="#1683D7"/>
<path opacity="0.1" d="M210.49 185.877L194.53 176.677H194.495C190.956 174.608 188.767 170.208 188.767 163.961C188.767 158.363 190.523 152.23 193.424 146.598L209.629 155.952C206.722 161.584 204.972 167.717 204.972 173.314C204.983 179.413 207.081 183.757 210.49 185.877Z" fill="black"/>
<path opacity="0.4" d="M238.586 169.961C246.272 156.649 246.273 142.26 238.587 137.823C230.902 133.386 218.441 140.581 210.755 153.893C203.069 167.205 203.069 181.594 210.754 186.031C218.44 190.468 230.901 183.274 238.586 169.961Z" fill="white"/>
<path d="M215.876 183.352C209.652 183.352 208.979 176.318 208.979 173.291C208.979 162.222 217.079 148.211 226.649 142.66C229.089 141.252 231.437 140.511 233.444 140.511C239.668 140.511 240.341 147.545 240.341 150.571C240.341 161.641 232.241 175.651 222.671 181.203C220.225 182.611 217.877 183.352 215.876 183.352Z" fill="#FAFAFA"/>
<path d="M220.305 174.757C220.275 174.762 220.244 174.762 220.214 174.757C220.143 174.731 220.084 174.678 220.051 174.61C220.018 174.542 220.013 174.464 220.037 174.392L224.398 161.937C224.423 161.865 224.475 161.806 224.543 161.773C224.612 161.74 224.691 161.736 224.762 161.761C224.834 161.785 224.893 161.838 224.926 161.906C224.959 161.975 224.964 162.053 224.939 162.125L220.59 174.563C220.571 174.622 220.533 174.674 220.481 174.709C220.429 174.744 220.367 174.761 220.305 174.757Z" fill="#1683D7"/>
<path d="M231.203 165.693C231.088 165.695 230.973 165.672 230.867 165.625L223.816 162.575V149.785C223.816 149.558 223.906 149.34 224.067 149.18C224.227 149.02 224.445 148.93 224.671 148.93C224.898 148.93 225.116 149.02 225.276 149.18C225.436 149.34 225.526 149.558 225.526 149.785V161.453L231.546 164.057C231.724 164.137 231.87 164.275 231.959 164.449C232.048 164.623 232.074 164.822 232.034 165.013C231.994 165.205 231.89 165.376 231.739 165.5C231.588 165.624 231.399 165.692 231.203 165.693Z" fill="#37474F"/>
<path d="M224.671 159.258C225.948 158.517 226.985 159.115 226.985 160.592C226.938 161.391 226.704 162.169 226.302 162.861C225.9 163.554 225.342 164.143 224.671 164.582C223.389 165.323 222.351 164.724 222.351 163.242C222.4 162.443 222.636 161.667 223.038 160.975C223.441 160.283 224 159.695 224.671 159.258Z" fill="#1683D7"/>
<path d="M205.838 150.081C203.045 154.909 197.784 157.098 193.829 154.812C191.508 153.47 189.816 151.262 189.123 148.672C188.431 146.083 188.796 143.324 190.138 141.004C191.479 138.683 193.688 136.991 196.278 136.299C198.867 135.606 201.626 135.971 203.946 137.313C207.89 139.65 208.62 145.247 205.838 150.081Z" fill="#455A64"/>
<path d="M193.829 154.812C197.784 157.092 203.045 154.909 205.839 150.081C206.462 148.999 206.925 147.831 207.212 146.615C207.053 146.826 202.401 152.754 196.622 151.084C190.739 149.374 189.633 144.854 190.141 141.001C189.476 142.15 189.044 143.419 188.869 144.735C188.695 146.051 188.781 147.388 189.123 148.671C189.466 149.953 190.058 151.156 190.865 152.209C191.672 153.263 192.679 154.148 193.829 154.812Z" fill="#37474F"/>
<path d="M192.204 140.021L189.206 138.311C189.001 138.184 188.774 138.1 188.536 138.062C188.299 138.024 188.056 138.034 187.823 138.091C187.589 138.148 187.369 138.251 187.175 138.394C186.982 138.536 186.819 138.716 186.696 138.923C186.572 139.129 186.491 139.358 186.457 139.596C186.423 139.834 186.437 140.077 186.498 140.309C186.559 140.542 186.665 140.76 186.811 140.952C186.957 141.143 187.139 141.303 187.348 141.423L190.38 143.179C191.024 143.549 191.953 143.15 192.455 142.284C192.957 141.417 192.843 140.391 192.204 140.021Z" fill="#1683D7"/>
<path d="M236.926 125.56L238.636 122.567C238.763 122.363 238.848 122.135 238.885 121.898C238.923 121.66 238.913 121.417 238.856 121.184C238.799 120.95 238.696 120.73 238.553 120.537C238.411 120.343 238.231 120.18 238.024 120.057C237.818 119.934 237.589 119.853 237.351 119.819C237.113 119.785 236.87 119.799 236.638 119.859C236.405 119.92 236.187 120.026 235.995 120.172C235.804 120.318 235.644 120.501 235.524 120.709L233.768 123.741C233.398 124.38 233.769 125.309 234.663 125.81C235.558 126.312 236.55 126.204 236.926 125.56Z" fill="#1683D7"/>
<path d="M222.443 126.797C223.107 125.646 223.991 124.637 225.046 123.828C226.1 123.019 227.303 122.425 228.587 122.081C229.87 121.737 231.209 121.649 232.526 121.823C233.844 121.996 235.114 122.427 236.265 123.092C237.416 123.756 238.425 124.64 239.234 125.695C240.043 126.749 240.636 127.952 240.98 129.235C241.324 130.519 241.412 131.858 241.239 133.175C241.066 134.493 240.634 135.763 239.97 136.914L222.443 126.797Z" fill="#455A64"/>
<path d="M237.747 124.169C238.317 125.36 239.867 130.405 237.747 131.659C235.627 132.913 225.834 128.752 225.834 128.752L239.97 136.914C241.147 134.865 241.57 132.468 241.164 130.139C240.758 127.811 239.549 125.699 237.747 124.169Z" fill="#37474F"/>
<path d="M173.776 153.051C163.687 139.49 160.37 137.98 158.471 137.518L161.8 146.638L168.72 155.513" fill="#FFA8A7"/>
<path d="M157.485 137.37C157.485 137.37 159.629 136.72 162.729 139.758C165.83 142.796 169.569 147.225 169.569 147.225C169.569 147.225 168.56 150.845 165.408 151.968L160.848 147.225L157.485 137.37Z" fill="#1683D7"/>
<path opacity="0.1" d="M157.485 137.37C157.485 137.37 159.629 136.72 162.729 139.758C165.83 142.796 169.569 147.225 169.569 147.225C169.569 147.225 168.56 150.845 165.408 151.968L160.848 147.225L157.485 137.37Z" fill="black"/>
<path d="M159.45 129.867C162.563 129.132 164.491 126.013 163.756 122.9C163.021 119.787 159.902 117.86 156.789 118.594C153.676 119.329 151.748 122.448 152.483 125.561C153.218 128.674 156.337 130.602 159.45 129.867Z" fill="#263238"/>
<path d="M144.256 229.208H148.337V222.226H144.256V229.208Z" fill="#FFA8A7"/>
<path d="M157.559 224.135L161.635 224.278L161.84 216.885L157.759 216.742L157.559 224.135Z" fill="#FFA8A7"/>
<path d="M144.518 166.862V195.082C144.421 196.222 143.594 198.143 143.378 202.914C143.104 208.768 143.999 224.876 143.999 224.876C143.999 224.876 145.909 226.774 148.61 224.876C148.61 224.876 152.23 201.882 152.965 196.086C153.604 191.024 154.675 177.276 154.675 177.276L157.115 197.984C157.115 197.984 156.448 201.786 156.305 204.465C156.163 207.144 157.48 221.468 157.48 221.468C158.141 221.881 158.899 222.113 159.678 222.142C160.457 222.171 161.23 221.996 161.92 221.633C161.92 221.633 164.713 200.172 165.135 197.75C165.556 195.327 163.601 166.856 163.601 166.856L144.518 166.862Z" fill="#37474F"/>
<path d="M148.439 138.675C147.868 138.754 147.305 138.886 146.758 139.068C145.618 139.507 145.122 140.887 144.854 142.101C144.63 143.119 144.517 144.159 144.518 145.202V166.862C147.368 169.974 157.354 171.422 163.601 166.862C163.601 166.862 163.482 147.732 163.031 144.586C162.216 139.125 159.611 137.176 156.978 137.381L150.68 138.282L148.439 138.675Z" fill="#1683D7"/>
<path d="M148.109 128.341C148.109 128.341 149.049 132.747 149.425 133.471C149.674 133.915 150.081 134.249 150.565 134.406L150.497 131.299L148.109 128.341Z" fill="#263238"/>
<path d="M149.289 122.02C148.96 121.982 148.628 122.02 148.316 122.129C148.004 122.239 147.721 122.418 147.488 122.652C146.718 123.445 147.151 125.918 148.109 128.352L149.882 128.552L149.289 122.02Z" fill="#263238"/>
<path d="M150.412 128.541C150.053 128.757 149.551 128.073 149.112 127.617C148.673 127.161 147.248 126.534 146.536 128.033C145.823 129.532 147.163 131.584 148.286 131.938C150.224 132.542 150.514 131.299 150.514 131.299L150.662 138.288C151.09 139.225 151.744 140.041 152.564 140.664C153.385 141.287 154.347 141.696 155.365 141.856C158.785 142.317 158.09 139.49 156.961 138.099V135.973C157.824 136.112 158.699 136.158 159.572 136.11C160.997 135.888 161.891 134.765 162.325 133.226C163.02 130.746 163.282 128.751 162.695 123.878C162.045 118.543 155.855 118.486 152.486 120.595C149.118 122.704 150.412 128.541 150.412 128.541Z" fill="#FFA8A7"/>
<path d="M150.412 129.139C150.229 129.139 149.551 127.999 149.112 127.617C148.502 127.047 149.289 122.02 149.289 122.02C149.125 121.586 149.092 121.113 149.194 120.661C149.295 120.208 149.526 119.795 149.859 119.472C150.691 118.549 152.093 118.452 154.481 118.075C155.735 117.876 157.639 117.505 158.893 117.294C160.387 117.015 161.624 116.725 162.678 117.637C163.094 117.994 163.388 118.472 163.52 119.004C163.652 119.536 163.614 120.096 163.413 120.606C163.305 120.84 163.16 121.055 162.986 121.245C162.684 121.581 162.632 122.037 162.205 122.174C162.205 122.174 161.299 122.994 159.03 123.268C156.941 123.424 154.842 123.384 152.76 123.148C152.099 123.057 151.922 123.268 151.569 125.007C151.267 126.54 151.01 129.128 150.412 129.139Z" fill="#263238"/>
<path d="M149.294 122.413L147.151 121.273C147.219 121.129 147.316 120.999 147.435 120.893C147.554 120.788 147.694 120.707 147.845 120.657C147.997 120.607 148.157 120.588 148.316 120.602C148.475 120.616 148.629 120.662 148.77 120.737C149.054 120.897 149.267 121.16 149.364 121.471C149.461 121.783 149.437 122.119 149.294 122.413Z" fill="#263238"/>
<path d="M156.955 135.973C156.955 135.973 153.78 135.335 152.669 134.742C152.015 134.404 151.478 133.875 151.13 133.226C151.299 133.875 151.596 134.483 152.002 135.016C152.817 136.053 156.955 136.823 156.955 136.823V135.973Z" fill="#F28F8F"/>
<path d="M156.397 128.33C156.392 128.455 156.351 128.576 156.278 128.678C156.205 128.78 156.104 128.858 155.987 128.903C155.87 128.948 155.743 128.957 155.62 128.93C155.498 128.903 155.386 128.84 155.299 128.75C155.212 128.66 155.154 128.546 155.131 128.423C155.108 128.3 155.122 128.173 155.171 128.058C155.22 127.942 155.302 127.844 155.406 127.775C155.51 127.705 155.633 127.669 155.758 127.668C155.844 127.669 155.928 127.687 156.007 127.721C156.086 127.754 156.157 127.804 156.216 127.865C156.276 127.927 156.322 127.999 156.353 128.079C156.384 128.159 156.399 128.244 156.397 128.33Z" fill="#263238"/>
<path d="M155.718 125.93L154.356 126.677C154.261 126.49 154.24 126.273 154.3 126.072C154.359 125.87 154.494 125.699 154.675 125.594C154.765 125.545 154.864 125.515 154.966 125.506C155.068 125.496 155.171 125.508 155.269 125.539C155.366 125.57 155.456 125.621 155.534 125.689C155.611 125.756 155.674 125.838 155.718 125.93Z" fill="#263238"/>
<path d="M156.67 132.149L158.124 132.719C158.092 132.816 158.042 132.906 157.974 132.984C157.907 133.061 157.825 133.124 157.733 133.169C157.641 133.214 157.541 133.239 157.438 133.244C157.336 133.249 157.234 133.233 157.138 133.197C157.037 133.16 156.946 133.103 156.868 133.03C156.79 132.957 156.727 132.869 156.683 132.771C156.64 132.674 156.616 132.568 156.614 132.461C156.612 132.354 156.631 132.248 156.67 132.149Z" fill="#F28F8F"/>
<path d="M162.074 126.46L160.831 125.502C160.89 125.418 160.965 125.346 161.051 125.292C161.138 125.237 161.236 125.201 161.337 125.186C161.439 125.17 161.542 125.176 161.641 125.202C161.741 125.228 161.833 125.274 161.914 125.337C162.08 125.468 162.19 125.657 162.219 125.867C162.249 126.076 162.197 126.288 162.074 126.46Z" fill="#263238"/>
<path d="M161.692 128.153C161.693 128.238 161.678 128.323 161.647 128.402C161.615 128.481 161.569 128.553 161.509 128.614C161.45 128.675 161.379 128.723 161.301 128.757C161.223 128.79 161.139 128.808 161.053 128.809C160.922 128.813 160.791 128.778 160.68 128.708C160.568 128.638 160.479 128.536 160.426 128.415C160.373 128.295 160.357 128.161 160.38 128.031C160.403 127.901 160.465 127.781 160.557 127.686C160.649 127.592 160.767 127.527 160.897 127.5C161.026 127.474 161.16 127.486 161.282 127.536C161.404 127.586 161.508 127.672 161.581 127.782C161.654 127.892 161.693 128.021 161.692 128.153Z" fill="#263238"/>
<path d="M158.243 126.962L158.454 130.792L160.455 130.114L158.243 126.962Z" fill="#F28F8F"/>
<path d="M148.331 227.196V226.626C148.724 226.792 149.631 230.257 151.25 231.756C152.538 232.93 154.293 234.281 154.738 235.592C155.183 236.903 152.293 237.707 151.09 237.49C149.693 237.245 147.271 236.259 146.667 235.347C146.063 234.435 145.772 233.067 145.276 232.423C144.78 231.779 143.646 231.01 143.378 230.234C143.297 229.511 143.377 228.78 143.612 228.091C143.8 227.373 144.005 226.581 144.25 226.649C144.25 226.735 144.25 227.094 144.25 227.094C144.833 227.547 145.552 227.79 146.291 227.783C146.889 227.772 148.337 227.652 148.331 227.196Z" fill="#263238"/>
<path d="M161.675 223.018C161.891 223.018 162.062 223.326 162.53 223.833C163.229 224.532 164.04 225.11 164.929 225.543C166.457 226.313 169.427 227.487 170.772 228.091C171.61 228.473 171.57 229.488 170.704 230.063C169.837 230.639 167.74 231.055 165.226 230.491C163.852 230.189 162.068 228.918 160.939 228.986C159.811 229.054 157.696 229.043 156.864 228.467C156.032 227.892 156.362 226.666 156.596 225.617C156.853 224.477 157.223 222.705 157.605 222.767V223.132C158.101 223.873 160.597 224.175 161.675 223.634V223.018Z" fill="#263238"/>
<path d="M154.675 177.27C156.791 176.617 158.737 175.505 160.375 174.015C160.375 174.015 159.281 176.067 156.02 177.977L156.089 189.097L154.675 177.27Z" fill="#263238"/>
<path d="M146.94 177.099C146.268 176.529 145.846 175.794 144.831 175.047C144.096 174.593 143.481 173.969 143.036 173.229C142.466 172.271 141.896 169.079 141.725 166.047C141.623 162.66 142.099 159.281 143.133 156.054C144.518 152.23 147.328 147.1 148.263 144.934C149.198 142.768 148.696 141.679 147.858 140.579C146.878 139.291 145.059 139.285 143.344 142.221C141.058 146.301 139.234 150.624 137.906 155.108C137.01 158.463 136.677 161.944 136.92 165.408C137.108 168.617 137.809 171.068 138.71 174.152C138.96 174.99 138.932 175.674 139.217 177.333C139.292 178.025 139.468 178.703 139.741 179.345C140.128 180.115 140.621 180.827 141.206 181.459C141.948 182.262 142.89 182.853 143.936 183.169C144.511 183.341 145.119 183.374 145.709 183.266C146.302 183.159 146.838 182.844 147.22 182.377C147.299 182.284 147.354 182.172 147.379 182.052C147.377 181.839 147.293 181.635 147.146 181.482C146.336 180.533 145.575 179.544 144.866 178.518C144.341 177.635 144.09 176.934 144.296 176.973C144.501 177.013 144.769 177.543 145.532 178.022C146.296 178.501 147.242 178.484 147.465 178.056C147.687 177.629 147.63 177.68 146.94 177.099Z" fill="#FFA8A7"/>
<path d="M147.22 138.938C145.589 139.034 144.107 139.399 142.477 142.631C140.847 145.863 138.288 151.916 138.288 151.916C138.905 153.022 139.81 153.94 140.907 154.573C142.004 155.206 143.252 155.531 144.518 155.513C144.518 155.513 148.268 147.681 148.878 145.618C149.488 143.554 149.91 140.22 147.22 138.938Z" fill="#1683D7"/>
<path opacity="0.1" d="M147.22 138.938C145.589 139.034 144.107 139.399 142.477 142.631C140.847 145.863 138.288 151.916 138.288 151.916C138.905 153.022 139.81 153.94 140.907 154.573C142.004 155.206 143.252 155.531 144.518 155.513C144.518 155.513 148.268 147.681 148.878 145.618C149.488 143.554 149.91 140.22 147.22 138.938Z" fill="black"/>
<path d="M168.72 155.513C168.35 156.596 164.793 159.896 162.176 160.945C161.557 161.159 160.89 161.198 160.25 161.059C159.637 160.802 158.977 160.674 158.312 160.683C157.548 160.751 156.773 160.899 156.003 160.991C155.843 160.996 155.686 161.035 155.542 161.105C155.074 161.361 155.342 161.754 155.713 161.897C156.31 162.112 156.921 162.286 157.542 162.416V162.581C155.95 163.137 154.289 163.471 152.606 163.573C152.307 163.576 152.017 163.676 151.78 163.858C151.683 163.966 151.615 164.097 151.582 164.238C151.549 164.38 151.553 164.527 151.592 164.667C151.671 164.944 151.807 165.202 151.99 165.425C152.678 166.465 153.747 167.192 154.966 167.449C156.198 167.543 157.437 167.388 158.608 166.993C159.174 166.833 159.733 166.656 160.284 166.463C161.897 165.869 163.468 165.166 164.987 164.359C168.238 162.653 171.253 160.532 173.958 158.049C175.6 156.448 175.195 154.909 173.816 153.051" fill="#FFA8A7"/>
<path d="M161.795 161.048C161.795 161.048 162.365 160.837 163.014 161.88C163.664 162.923 164.075 164.827 163.259 165.203C163.54 165.219 163.82 165.162 164.072 165.037C164.324 164.912 164.539 164.724 164.696 164.491C164.863 163.747 164.817 162.972 164.563 162.254C164.309 161.536 163.857 160.904 163.259 160.432C162.711 160.444 162.187 160.664 161.795 161.048Z" fill="#37474F"/>
<path d="M164.81 161.43C164.932 161.636 164.99 161.874 164.976 162.113C164.962 162.352 164.878 162.582 164.733 162.773C164.589 162.964 164.391 163.108 164.164 163.187C163.938 163.265 163.693 163.274 163.461 163.213C163.229 163.152 163.021 163.023 162.863 162.843C162.704 162.663 162.603 162.44 162.572 162.203C162.54 161.965 162.58 161.724 162.686 161.509C162.793 161.294 162.96 161.116 163.168 160.996C163.443 160.837 163.771 160.793 164.078 160.874C164.386 160.955 164.649 161.155 164.81 161.43Z" fill="#1683D7"/>
<path d="M164.53 161.589C164.619 161.742 164.661 161.917 164.65 162.093C164.639 162.269 164.576 162.437 164.469 162.577C164.361 162.717 164.215 162.822 164.048 162.879C163.882 162.936 163.702 162.941 163.531 162.896C163.361 162.85 163.208 162.755 163.092 162.622C162.977 162.489 162.903 162.325 162.88 162.15C162.858 161.975 162.888 161.798 162.967 161.64C163.045 161.482 163.169 161.352 163.322 161.264C163.423 161.206 163.534 161.168 163.649 161.153C163.764 161.138 163.881 161.146 163.994 161.176C164.106 161.206 164.211 161.258 164.303 161.329C164.395 161.4 164.473 161.488 164.53 161.589Z" fill="#FAFAFA"/>
</svg>
